<svg width="128" height="106" viewBox="0 0 128 106" fill="none" xmlns="http://www.w3.org/2000/svg">
<g clip-path="url(#clip0)">
<path d="M89.1345 44.3242L65.3468 36.9761C64.0506 36.5757 62.652 36.5757 61.3566 36.9761L37.5681 44.3242C35.5606 44.9441 35.5606 47.6133 37.5681 48.2332L41.7152 49.5142C40.8053 50.6451 40.2459 52.0247 40.1904 53.5355C39.3692 54.0088 38.791 54.8628 38.791 55.8823C38.791 56.8066 39.2754 57.5843 39.973 58.0816L37.7958 67.9317C37.6065 68.7882 38.2546 69.6011 39.127 69.6011H43.912C44.7853 69.6011 45.4334 68.7882 45.2441 67.9317L43.0669 58.0816C43.7645 57.5843 44.2488 56.8066 44.2488 55.8823C44.2488 54.8903 43.6971 54.0603 42.9134 53.5784C42.9782 52.2905 43.6331 51.1519 44.6778 50.4299L61.3558 55.5822C62.1284 55.8206 63.6106 56.1181 65.346 55.5822L89.1345 48.2341C91.1429 47.6133 91.1429 44.945 89.1345 44.3242ZM66.1476 58.2051C63.7146 58.9562 61.6415 58.5412 60.5542 58.2051L48.187 54.3852L46.9778 64.1136C46.9778 67.1446 54.3083 69.6011 63.3513 69.6011C72.3943 69.6011 79.7249 67.1446 79.7249 64.1136L78.5156 54.3844L66.1476 58.2051Z" fill="#FA7815"/>
</g>
<g clip-path="url(#clip1)">
<path d="M126.517 82.3768L108.252 76.7345C107.256 76.427 106.183 76.427 105.188 76.7345L86.9217 82.3768C85.3803 82.8528 85.3803 84.9024 86.9217 85.3784L90.1061 86.362C89.4074 87.2304 88.9778 88.2897 88.9353 89.4498C88.3047 89.8132 87.8607 90.4689 87.8607 91.2518C87.8607 91.9615 88.2327 92.5586 88.7683 92.9405L87.0965 100.504C86.9512 101.162 87.4488 101.786 88.1187 101.786H91.7929C92.4635 101.786 92.9611 101.162 92.8157 100.504L91.144 92.9405C91.6796 92.5586 92.0516 91.9615 92.0516 91.2518C92.0516 90.49 91.6279 89.8527 91.0261 89.4827C91.0759 88.4938 91.5788 87.6195 92.3809 87.0651L105.187 91.0213C105.781 91.2044 106.919 91.4328 108.251 91.0213L126.517 85.379C128.059 84.9024 128.059 82.8535 126.517 82.3768ZM108.867 93.0353C106.998 93.612 105.407 93.2934 104.572 93.0353L95.0755 90.1022L94.147 97.5722C94.147 99.8996 99.7758 101.786 106.72 101.786C113.663 101.786 119.292 99.8996 119.292 97.5722L118.364 90.1016L108.867 93.0353Z" fill="#CECECE"/>
</g>
<g clip-path="url(#clip2)">
<path d="M40.7518 82.3768L22.4862 76.7345C21.4909 76.427 20.417 76.427 19.4223 76.7345L1.15609 82.3768C-0.385362 82.8528 -0.385362 84.9024 1.15609 85.3784L4.34048 86.362C3.64178 87.2304 3.21222 88.2897 3.16966 89.4498C2.53906 89.8132 2.0951 90.4689 2.0951 91.2518C2.0951 91.9615 2.46704 92.5586 3.00268 92.9405L1.33092 100.504C1.18555 101.162 1.68322 101.786 2.3531 101.786H6.02729C6.69783 101.786 7.19549 101.162 7.05012 100.504L5.37837 92.9405C5.91401 92.5586 6.28595 91.9615 6.28595 91.2518C6.28595 90.49 5.86228 89.8527 5.2605 89.4827C5.31026 88.4938 5.81317 87.6195 6.61532 87.0651L19.4216 91.0213C20.0149 91.2044 21.153 91.4328 22.4855 91.0213L40.7518 85.379C42.2938 84.9024 42.2938 82.8535 40.7518 82.3768ZM23.1011 93.0353C21.2329 93.612 19.641 93.2934 18.8061 93.0353L9.3099 90.1022L8.38137 97.5722C8.38137 99.8996 14.0102 101.786 20.9539 101.786C27.8976 101.786 33.5265 99.8996 33.5265 97.5722L32.5979 90.1016L23.1011 93.0353Z" fill="#CECECE"/>
</g>
<g clip-path="url(#clip3)">
<path d="M40.7518 10.0858L22.4862 4.44349C21.4909 4.13602 20.417 4.13602 19.4223 4.44349L1.15609 10.0858C-0.385362 10.5618 -0.385362 12.6113 1.15609 13.0873L4.34048 14.071C3.64178 14.9394 3.21222 15.9987 3.16966 17.1588C2.53906 17.5222 2.0951 18.1779 2.0951 18.9607C2.0951 19.6705 2.46704 20.2676 3.00268 20.6495L1.33092 28.2129C1.18555 28.8707 1.68322 29.4948 2.3531 29.4948H6.02729C6.69783 29.4948 7.19549 28.8707 7.05012 28.2129L5.37837 20.6495C5.91401 20.2676 6.28595 19.6705 6.28595 18.9607C6.28595 18.199 5.86228 17.5617 5.2605 17.1917C5.31026 16.2028 5.81317 15.3285 6.61532 14.7741L19.4216 18.7303C20.0149 18.9133 21.153 19.1418 22.4855 18.7303L40.7518 13.088C42.2938 12.6113 42.2938 10.5625 40.7518 10.0858ZM23.1011 20.7443C21.2329 21.321 19.641 21.0024 18.8061 20.7443L9.3099 17.8112L8.38137 25.2812C8.38137 27.6086 14.0102 29.4948 20.9539 29.4948C27.8976 29.4948 33.5265 27.6086 33.5265 25.2812L32.5979 17.8106L23.1011 20.7443Z" fill="#CECECE"/>
</g>
<g clip-path="url(#clip4)">
<path d="M126.517 10.0858L108.252 4.44349C107.256 4.13602 106.183 4.13602 105.188 4.44349L86.9217 10.0858C85.3803 10.5618 85.3803 12.6113 86.9217 13.0873L90.1061 14.071C89.4074 14.9394 88.9778 15.9987 88.9353 17.1588C88.3047 17.5222 87.8607 18.1779 87.8607 18.9607C87.8607 19.6705 88.2327 20.2676 88.7683 20.6495L87.0965 28.2129C86.9512 28.8707 87.4488 29.4948 88.1187 29.4948H91.7929C92.4635 29.4948 92.9611 28.8707 92.8157 28.2129L91.144 20.6495C91.6796 20.2676 92.0516 19.6705 92.0516 18.9607C92.0516 18.199 91.6279 17.5617 91.0261 17.1917C91.0759 16.2028 91.5788 15.3285 92.3809 14.7741L105.187 18.7303C105.781 18.9133 106.919 19.1418 108.251 18.7303L126.517 13.088C128.059 12.6113 128.059 10.5625 126.517 10.0858ZM108.867 20.7443C106.998 21.321 105.407 21.0024 104.572 20.7443L95.0755 17.8112L94.147 25.2812C94.147 27.6086 99.7758 29.4948 106.72 29.4948C113.663 29.4948 119.292 27.6086 119.292 25.2812L118.364 17.8106L108.867 20.7443Z" fill="#CECECE"/>
</g>
<defs>
<clipPath id="clip0">
<rect width="54.5785" height="43.9001" fill="white" transform="translate(36.0625 31.1875)"/>
</clipPath>
<clipPath id="clip1">
<rect width="41.9085" height="33.709" fill="white" transform="translate(85.7656 72.291)"/>
</clipPath>
<clipPath id="clip2">
<rect width="41.9085" height="33.709" fill="white" transform="translate(0 72.291)"/>
</clipPath>
<clipPath id="clip3">
<rect width="41.9085" height="33.709" fill="white"/>
</clipPath>
<clipPath id="clip4">
<rect width="41.9085" height="33.709" fill="white" transform="translate(85.7656)"/>
</clipPath>
</defs>
</svg>
