<svg width="28" height="32" viewBox="0 0 28 32" fill="none" xmlns="http://www.w3.org/2000/svg">
<path d="M18.576 15.2C18.576 16.176 17.856 16.976 16.944 16.976C16.048 16.976 15.312 16.176 15.312 15.2C15.312 14.224 16.032 13.424 16.944 13.424C17.856 13.424 18.576 14.224 18.576 15.2ZM11.104 13.424C10.192 13.424 9.472 14.224 9.472 15.2C9.472 16.176 10.208 16.976 11.104 16.976C12.016 16.976 12.736 16.176 12.736 15.2C12.752 14.224 12.016 13.424 11.104 13.424ZM28 3.296V32C23.9691 28.4379 25.2583 29.617 20.576 25.264L21.424 28.224H3.28C1.472 28.224 0 26.752 0 24.928V3.296C0 1.472 1.472 0 3.28 0H24.72C26.528 0 28 1.472 28 3.296ZM23.44 18.464C23.44 13.312 21.136 9.136 21.136 9.136C18.832 7.408 16.64 7.456 16.64 7.456L16.416 7.712C19.136 8.544 20.4 9.744 20.4 9.744C16.5993 7.66094 12.1348 7.66056 8.448 9.28C7.856 9.552 7.504 9.744 7.504 9.744C7.504 9.744 8.832 8.48 11.712 7.648L11.552 7.456C11.552 7.456 9.36 7.408 7.056 9.136C7.056 9.136 4.752 13.312 4.752 18.464C4.752 18.464 6.096 20.784 9.632 20.896C9.632 20.896 10.224 20.176 10.704 19.568C8.672 18.96 7.904 17.68 7.904 17.68C8.13937 17.8447 8.5275 18.0583 8.56 18.08C11.2606 19.5924 15.0968 20.0879 18.544 18.64C19.104 18.432 19.728 18.128 20.384 17.696C20.384 17.696 19.584 19.008 17.488 19.6C17.968 20.208 18.544 20.896 18.544 20.896C22.08 20.784 23.44 18.464 23.44 18.464Z" fill="white"/>
</svg>
