<svg width="29" height="33" viewBox="0 0 29 33" fill="none" xmlns="http://www.w3.org/2000/svg">
<path d="M19.1287 16.1297C19.1287 17.1057 18.4087 17.9057 17.4967 17.9057C16.6007 17.9057 15.8647 17.1057 15.8647 16.1297C15.8647 15.1537 16.5847 14.3537 17.4967 14.3537C18.4087 14.3537 19.1287 15.1537 19.1287 16.1297ZM11.6567 14.3537C10.7447 14.3537 10.0247 15.1537 10.0247 16.1297C10.0247 17.1057 10.7607 17.9057 11.6567 17.9057C12.5687 17.9057 13.2887 17.1057 13.2887 16.1297C13.3047 15.1537 12.5687 14.3537 11.6567 14.3537ZM28.5527 4.22569V32.9297C24.5218 29.3676 25.811 30.5467 21.1287 26.1937L21.9767 29.1537H3.8327C2.0247 29.1537 0.552704 27.6817 0.552704 25.8577V4.22569C0.552704 2.40169 2.0247 0.929688 3.8327 0.929688H25.2727C27.0807 0.929688 28.5527 2.40169 28.5527 4.22569ZM23.9927 19.3937C23.9927 14.2417 21.6887 10.0657 21.6887 10.0657C19.3847 8.33769 17.1927 8.38569 17.1927 8.38569L16.9687 8.64169C19.6887 9.47369 20.9527 10.6737 20.9527 10.6737C17.152 8.59063 12.6875 8.59025 9.0007 10.2097C8.4087 10.4817 8.0567 10.6737 8.0567 10.6737C8.0567 10.6737 9.3847 9.40969 12.2647 8.57769L12.1047 8.38569C12.1047 8.38569 9.9127 8.33769 7.6087 10.0657C7.6087 10.0657 5.3047 14.2417 5.3047 19.3937C5.3047 19.3937 6.6487 21.7137 10.1847 21.8257C10.1847 21.8257 10.7767 21.1057 11.2567 20.4977C9.2247 19.8897 8.4567 18.6097 8.4567 18.6097C8.69208 18.7744 9.0802 18.988 9.1127 19.0097C11.8133 20.5221 15.6495 21.0176 19.0967 19.5697C19.6567 19.3617 20.2807 19.0577 20.9367 18.6257C20.9367 18.6257 20.1367 19.9377 18.0407 20.5297C18.5207 21.1377 19.0967 21.8257 19.0967 21.8257C22.6327 21.7137 23.9927 19.3937 23.9927 19.3937Z" fill="white"/>
</svg>
