<svg width="140" height="68" viewBox="0 0 140 68" fill="none" xmlns="http://www.w3.org/2000/svg">
<rect width="140" height="67.3077" fill="#EDEDED"/>
<rect width="99.4" height="67.3077" fill="#43D6B9"/>
<path d="M75.408 40.5293C75.408 41.2064 75.2725 41.8105 75.0017 42.3418C74.7413 42.873 74.3819 43.321 73.9236 43.6855C73.4757 44.0501 72.9496 44.3314 72.3455 44.5293C71.7413 44.7168 71.1007 44.8105 70.4236 44.8105C69.7257 44.8105 69.0538 44.7116 68.408 44.5137C67.7621 44.3158 67.1944 44.0033 66.7048 43.5762C66.2152 43.1595 65.8194 42.623 65.5173 41.9668C65.2152 41.3105 65.059 40.5241 65.0486 39.6074H63.1736C63.1944 40.722 63.3767 41.696 63.7205 42.5293C64.0746 43.3626 64.5486 44.0605 65.1423 44.623C65.7361 45.1855 66.4236 45.6178 67.2048 45.9199C67.9965 46.2116 68.8402 46.3887 69.7361 46.4512V49.4043H71.3298V46.4199C72.1736 46.347 72.9548 46.1699 73.6736 45.8887C74.4027 45.597 75.033 45.2012 75.5642 44.7012C76.0955 44.2012 76.5121 43.6022 76.8142 42.9043C77.1267 42.2064 77.283 41.4043 77.283 40.498C77.283 39.5501 77.1163 38.7324 76.783 38.0449C76.46 37.347 76.0121 36.7428 75.4392 36.2324C74.8663 35.722 74.1944 35.2897 73.4236 34.9355C72.6632 34.571 71.8455 34.2376 70.9705 33.9355C70.2309 33.6855 69.5486 33.4199 68.9236 33.1387C68.2986 32.847 67.7569 32.5137 67.2986 32.1387C66.8402 31.7637 66.4809 31.3262 66.2205 30.8262C65.9705 30.3158 65.8507 29.7116 65.8611 29.0137C65.8611 28.347 65.9757 27.7533 66.2048 27.2324C66.4444 26.7116 66.7673 26.2689 67.1736 25.9043C67.5902 25.5293 68.085 25.2428 68.658 25.0449C69.2309 24.847 69.8611 24.748 70.5486 24.748C71.2673 24.748 71.9132 24.8835 72.4861 25.1543C73.0694 25.4147 73.5642 25.7793 73.9705 26.248C74.3767 26.7272 74.6892 27.2949 74.908 27.9512C75.1267 28.597 75.2413 29.3105 75.2517 30.0918H77.1267C77.1059 29.0085 76.9444 28.0397 76.6423 27.1855C76.3507 26.321 75.9288 25.5866 75.3767 24.9824C74.8975 24.4512 74.3194 24.0293 73.6423 23.7168C72.9652 23.3939 72.21 23.196 71.3767 23.123V19.9355H69.7673V23.123C68.9548 23.196 68.1944 23.3783 67.4861 23.6699C66.7882 23.9616 66.1788 24.3574 65.658 24.8574C65.1371 25.3678 64.7257 25.972 64.4236 26.6699C64.1319 27.3678 63.9861 28.1595 63.9861 29.0449C63.9861 30.0033 64.1527 30.8314 64.4861 31.5293C64.8298 32.2272 65.2934 32.8314 65.8767 33.3418C66.4496 33.8626 67.1163 34.3053 67.8767 34.6699C68.6475 35.0241 69.4705 35.347 70.3455 35.6387C71.0538 35.8783 71.7205 36.1491 72.3455 36.4512C72.9705 36.7428 73.5121 37.0814 73.9705 37.4668C74.4184 37.8522 74.7725 38.2949 75.033 38.7949C75.2934 39.2949 75.4184 39.873 75.408 40.5293Z" fill="white"/>
</svg>
