<svg id="Layer_8" data-name="Layer 8" xmlns="http://www.w3.org/2000/svg" viewBox="0 0 1834.25 670"><defs><style>.cls-1{fill:#fa7815;}.cls-10,.cls-11,.cls-12,.cls-13,.cls-14,.cls-15,.cls-16,.cls-17,.cls-18,.cls-19,.cls-2,.cls-20,.cls-21,.cls-22,.cls-23,.cls-3,.cls-4,.cls-5,.cls-6,.cls-7,.cls-8,.cls-9{fill:none;stroke:#f9b88c;stroke-miterlimit:10;}.cls-2{stroke-width:20px;}.cls-3{stroke-width:19.1px;}.cls-4{stroke-width:18.19px;}.cls-5{stroke-width:17.29px;}.cls-6{stroke-width:16.38px;}.cls-7{stroke-width:15.48px;}.cls-8{stroke-width:14.57px;}.cls-9{stroke-width:13.67px;}.cls-10{stroke-width:12.76px;}.cls-11{stroke-width:11.86px;}.cls-12{stroke-width:10.95px;}.cls-13{stroke-width:10.05px;}.cls-14{stroke-width:9.14px;}.cls-15{stroke-width:8.24px;}.cls-16{stroke-width:7.33px;}.cls-17{stroke-width:6.43px;}.cls-18{stroke-width:5.52px;}.cls-19{stroke-width:4.62px;}.cls-20{stroke-width:3.71px;}.cls-21{stroke-width:2.81px;}.cls-22{stroke-width:1.9px;}</style></defs><path class="cls-1" d="M-61.41,184.34-56,223.8c85.12-33.91,171.72-67.12,262.65-78.36,50.34-6.22,101.25-5.6,152-5,30.9.38,62.21.82,92,9.1,50.66,14.08,92.76,49.59,142.17,67.55,56.29,20.45,121.06,16.26,175.72-9.12,29.84,3.75,56-17.73,82.43-32.11,35.46-19.29,75.93-26.68,114.58-38.29,42.68-12.82,83.55-30.95,125.58-45.73A841,841,0,0,1,1277.9,49.31c39.46-4.36,79.67-5.88,118.64,1.78s76.84,25.12,106.7,57.37c12.12,4.4,20.59,15.7,25.31,27.7s6.32,25,9.06,37.55c8.11,37.27,26.19,71.51,44.06,105.2,4.7,8.85,9.42,17.74,15.48,25.72,17.62,23.16,45,36.66,72.07,47.27a578.37,578.37,0,0,0,169.58,38.29c9.5-51.24,4.88-104.08,11.1-155.82C1855.74,185.84,1871,139,1880.43,91A599.58,599.58,0,0,0,1890,20.15c.26-3.46.37-7.3-1.85-10-1.64-2-4.22-2.83-6.67-3.56-34.35-10.18-70.86-8.88-106.67-9.91-91.39-2.63-181.49-21-272-34s-183.31-20.86-277.52,1.94C1009.77-23.34,793.39-26.79,574-48a2593.55,2593.55,0,0,1-441.5-13.76C65.62-69.56-1.07-80-68.34-83.26c-10.48-.51-21.22-.81-31.19,2.43-4.81,1.56-9.7,4.29-11.66,9-2.21,5.26-.08,11.21,1.91,16.55C-80.15,22.92-72,107.15-61.41,184.34Z"/><path class="cls-2" d="M-49.9,224c46.54-35.83,116.48-45.7,171.74-63.7,34.07-11.1,74.67-19,113.16-23.38,94.53-10.72,202.22-7.38,283.44,42.16,36.22,22.1,70.76,45.34,121.52,48.16,54.22,3,104.73-1.17,155.51-20.39s99.92-52.43,151.88-68.2c93.84-28.49,184.83-60.13,282.25-78.77,57.43-10.41,116.41-14.82,173.76-4s113.6,47.66,130.2,103.61c8.33,28.09,11.21,54.64,20.9,82.29,11.19,31.92,32,60.6,59.61,80.09,69.33,48.89,151.18,79.37,235.7,72.08"/><path class="cls-3" d="M-47.52,245.48c46.9-35,116.29-44.59,171.69-61.63C158.36,173.34,198.76,166,237.1,162c14.7-1.52,29.7-2.73,44.84-3.5,21.28-1.1,43.32-1.33,64.82-.69,16.2.48,32.14,1.48,47.65,3,24.37,2.37,47.29,6.18,70.23,13.47a254.88,254.88,0,0,1,52.19,23.42c36.09,21.3,70.43,43.81,120.27,46.9a496.33,496.33,0,0,0,61.66.32,317,317,0,0,0,74.12-13.24c5.93-1.85,11.85-3.83,17.76-6q10.56-3.92,20.91-8.76c42.08-19.73,84.13-46.64,128.1-59.9,93.25-28.72,184.25-59.28,281.15-76.3,38.43-6.36,77.49-10,116.23-8.13a371.71,371.71,0,0,1,56.26,6.89c30.58,6.22,60.81,19.67,85.17,39.12,20.78,16.62,37.24,37.67,45.68,62.44,9.15,26.94,13.15,52.24,23.54,78.35a163.54,163.54,0,0,0,63.13,74.23q15.14,9.46,31,17.9a429.89,429.89,0,0,0,61.42,26.73,389.77,389.77,0,0,0,86.87,19.54,355.28,355.28,0,0,0,61.25,1.39"/><path class="cls-4" d="M-45.15,267C2.12,232.72,71,223.45,126.5,207.37,160.81,197.46,201,190.63,239.21,187c14.68-1.39,29.63-2.47,44.71-3.15,21.08-1,43.36-1.14,64.61-.82,16.23.25,32,.84,47.08,1.61,23.59,1.19,44.84,3.22,67.4,9.4,17.73,4.85,35.73,12.88,52.2,22.2,36,20.49,70.11,42.27,119,45.62a508.08,508.08,0,0,0,60.81.91c24.51-1.3,49.22-5.08,73.2-12.54,5.88-1.83,11.74-3.73,17.57-5.85a204.65,204.65,0,0,0,20.58-8.73c40.81-20.08,82.32-47.43,125.56-60.39,92.67-29,183.67-58.42,280.06-73.82,38.25-5.74,77.06-8.65,115.47-6.21a374.28,374.28,0,0,1,55.74,7.73c30.27,6.61,60.17,20.14,84.67,39.2,20.79,16.25,37.61,36.59,46.84,60.31,10,25.8,15.07,49.85,26.16,74.41a164,164,0,0,0,66.66,68.37q15.54,8.56,31.79,16.2a445.18,445.18,0,0,0,62.71,23.8,448.72,448.72,0,0,0,88.49,17.26,435.51,435.51,0,0,0,62.32,1.78"/><path class="cls-5" d="M-42.77,288.41C4.87,255,73.15,246,128.84,230.9c34.42-9.33,74.43-15.61,112.48-18.89,14.66-1.24,29.56-2.19,44.58-2.78,20.88-.86,43.39-.73,64.4-.95,16.26-.18,31.78-.42,46.51.21,22.78,1,42.41.22,64.58,5.33,17.46,4,35.73,12,52.21,21,35.88,19.61,69.79,40.74,117.77,44.36a512.11,512.11,0,0,0,60,1.49c24.08-.95,48.72-4.51,72.29-11.84,5.82-1.81,11.62-3.64,17.37-5.69a161.69,161.69,0,0,0,20.25-8.68c39.54-20.42,80.5-48.24,123-60.9,92.08-29.18,183.09-57.56,279-71.34,38.06-5.1,76.62-7.33,114.72-4.28a376.82,376.82,0,0,1,55.21,8.57,226.86,226.86,0,0,1,84.18,39.29c20.8,15.86,38,35.51,48,58.18,10.8,24.64,17,47.44,28.8,70.47a166.36,166.36,0,0,0,70.18,62.51c10.64,5.09,21.52,9.88,32.6,14.49,20.66,8.61,42.19,15.23,64,20.87a530,530,0,0,0,90.11,15c21,1.72,42.14,2.89,63.4,2.18"/><path class="cls-6" d="M-40.39,309.87c48-32.62,115.73-41.28,171.56-55.45C165.71,245.69,205.52,240,243.43,237c14.63-1.1,29.49-1.93,44.44-2.43,20.69-.73,43.44-.78,64.21-1.08,16.28-.23,31.56-.44,45.93-1.18,22-1.14,40-2.79,61.75,1.26,17.2,3.19,35.72,11.07,52.23,19.74,35.75,18.79,69.46,39.21,116.51,43.1a526,526,0,0,0,59.1,2.07c23.65-.64,48.22-3.93,71.38-11.14,5.76-1.79,11.5-3.54,17.16-5.52a133,133,0,0,0,19.94-8.64c38.26-20.76,78.67-49,120.47-61.4,91.5-29.41,182.51-56.71,277.87-68.86,37.88-4.48,76.19-6,114-2.36a379.66,379.66,0,0,1,54.68,9.4,240.6,240.6,0,0,1,83.68,39.39c20.84,15.44,38.34,34.42,49.14,56,11.62,23.49,18.94,45.05,31.42,66.53,17.87,24.38,43,44,73.71,56.65,10.92,4.49,22.07,8.69,33.41,12.8,21.11,7.63,43.12,13.11,65.31,17.92a643.17,643.17,0,0,0,91.73,12.7c21.33,1.52,42.88,2.93,64.48,2.58"/><path class="cls-7" d="M-38,331.33C10.35,299.52,77.53,291.16,133.51,278c34.65-8.14,74.27-13.34,112-15.89,14.62-.95,29.43-1.66,44.32-2.06,20.49-.61,43.48-.61,64-1.21,16.31-.48,31.34-1.07,45.36-2.58,21.18-2.28,37.57-5.8,58.92-2.82,16.95,2.37,35.71,10.19,52.24,18.53,35.64,18,69.14,37.67,115.26,41.83a544.15,544.15,0,0,0,58.25,2.65c23.22-.33,47.72-3.36,70.46-10.44,5.71-1.78,11.38-3.44,17-5.35A111.25,111.25,0,0,0,790.92,292c37-21.07,76.86-49.84,117.93-61.89,90.91-29.64,181.93-55.86,276.78-66.38,37.7-3.85,75.76-4.71,113.23-.44A382.67,382.67,0,0,1,1353,173.53,257.27,257.27,0,0,1,1436.19,213c20.86,15.06,38.76,33.31,50.29,53.91,12.5,22.32,20.87,42.65,34.06,62.6,19.54,22.49,45.69,39.86,77.23,50.78,11.19,3.88,22.61,7.5,34.23,11.1,21.54,6.67,44,11,66.6,15,30.44,5.36,61.16,8.49,93.35,10.42,21.71,1.32,43.62,3,65.55,3"/><path class="cls-8" d="M-35.64,352.8c48.73-31,115.36-39.07,171.48-51.33,34.77-7.55,74.19-12.2,111.8-14.38,14.59-.82,29.37-1.4,44.19-1.71,20.29-.48,43.51-.44,63.8-1.34,16.33-.72,31.11-1.68,44.78-4,20.34-3.41,35.15-8.81,56.1-6.89,16.7,1.53,35.69,9.3,52.25,17.3,35.51,17.15,68.81,36.14,114,40.56,19.4,2,38.43,3.43,57.39,3.24,22.79-.22,47.22-2.79,69.55-9.74,5.65-1.76,11.26-3.35,16.77-5.19a95.09,95.09,0,0,0,19.28-8.56c35.72-21.38,75-50.65,115.39-62.39,90.33-29.87,181.34-55,275.69-63.91,37.51-3.22,75.32-3.39,112.48,1.49a385.82,385.82,0,0,1,53.62,11.08,276.8,276.8,0,0,1,82.68,39.56c20.88,14.66,39.14,32.22,51.45,51.77,13.32,21.16,22.8,40.26,36.68,58.66,21.22,20.6,48.44,35.72,80.76,44.92,11.47,3.27,23.15,6.31,35,9.4,22,5.71,45,8.9,67.9,12.05,31,4.27,62.18,6.52,95,8.15,22.09,1.11,44.36,3,66.63,3.36"/><path class="cls-9" d="M-33.27,374.26c49.11-30.21,115.18-38,171.45-49.26,34.88-7,74.11-11.07,111.57-12.89,14.57-.67,29.3-1.13,44.06-1.34,20.09-.37,43.55-.28,63.59-1.47,16.36-1,30.88-2.29,44.21-5.37,19.5-4.51,32.73-11.83,53.27-11,16.45.69,35.68,8.42,52.27,16.07,35.38,16.34,68.5,34.52,112.75,39.3,19.08,2.06,37.83,3.59,56.54,3.82,22.36.28,46.72-2.21,68.63-9,5.6-1.74,11.15-3.25,16.57-5a82.8,82.8,0,0,0,19-8.52c34.45-21.68,73.22-51.45,112.84-62.89,89.74-30.11,180.76-54.15,274.6-61.43,37.32-2.6,74.88-2.08,111.73,3.41a387.28,387.28,0,0,1,53.09,11.92,300.53,300.53,0,0,1,82.18,39.64c20.9,14.29,39.51,31.13,52.6,49.64,14.15,20,24.74,37.86,39.32,54.73,22.88,18.71,51.18,31.57,84.29,39,11.74,2.67,23.69,5.12,35.84,7.7,22.43,4.76,45.92,6.79,69.2,9.12,31.63,3.16,63.2,4.54,96.59,5.86,22.47.92,45.1,3.07,67.71,3.76"/><path class="cls-10" d="M-30.89,395.72c49.47-29.41,115-36.85,171.4-47.19,35-6.37,74-9.94,111.35-11.39,14.55-.53,29.23-.87,43.92-1,19.9-.24,43.6-.12,63.39-1.6,16.39-1.23,30.64-2.87,43.63-6.76,18.66-5.58,30.34-14.34,50.46-15,16.19-.56,35.66,7.53,52.28,14.85,35.25,15.52,68.17,33,111.5,38,18.76,2.19,37.21,3.92,55.68,4.4,21.93.58,46.22-1.64,67.72-8.34,5.54-1.72,11-3.16,16.37-4.85a72,72,0,0,0,18.64-8.49c33.19-22,71.4-52.25,110.3-63.38,89.15-30.34,180.18-53.3,273.5-59,37.15-2,74.46-.77,111,5.33a390.37,390.37,0,0,1,52.57,12.76c28.44,9,56.4,22.93,81.68,39.73,20.91,13.9,39.89,30,53.76,47.5,15,18.85,26.67,35.47,41.94,50.79,24.56,16.83,53.93,27.43,87.82,33.2,12,2.05,24.23,3.92,36.66,6,22.86,3.81,46.84,4.68,70.49,6.18,32.22,2.05,64.21,2.56,98.21,3.59,22.85.71,45.85,3.11,68.78,4.16"/><path class="cls-11" d="M-28.51,417.19c49.83-28.61,114.81-35.75,171.35-45.14,35.12-5.78,74-8.8,111.13-9.89,14.52-.39,29.16-.59,43.79-.63,19.7-.11,43.64,0,63.19-1.73,16.41-1.48,30.39-3.44,43.05-8.15,17.81-6.62,27.92-17.88,47.63-19.11,16-1,35.65,6.66,52.29,13.63,35.12,14.71,67.86,31.44,110.25,36.77,18.44,2.31,36.6,4.24,54.83,5,21.5.88,45.72-1.06,66.81-7.64,5.48-1.71,10.9-3.07,16.17-4.69a63.84,63.84,0,0,0,18.31-8.44c31.94-22.24,69.58-53,107.76-63.88,88.57-30.57,179.6-52.45,272.41-56.48,37-1.34,74,.55,110.23,7.26a395.29,395.29,0,0,1,52,13.59c28.14,9.42,55.76,23.41,81.18,39.83,20.93,13.51,40.26,28.95,54.91,45.36,15.8,17.7,28.6,33.07,44.58,46.85,26.22,14.95,56.67,23.28,91.34,27.34,12.29,1.44,24.77,2.74,37.47,4.29,23.3,2.86,47.78,2.57,71.79,3.25,32.82.93,65.23.58,99.82,1.31,23.24.51,46.6,3.15,69.87,4.55"/><path class="cls-12" d="M-26.14,438.65C24.06,410.84,88.49,404,145.18,395.58c35.24-5.19,73.87-7.67,110.89-8.39,14.51-.25,29.1-.3,43.67-.27,19.5,0,43.68.19,63-1.86,16.45-1.75,30.16-4,42.48-9.55,17-7.64,25.52-20.92,44.81-23.18,15.71-1.84,35.63,5.78,52.3,12.4,35,13.91,67.53,29.9,109,35.5,18.12,2.45,36,4.57,54,5.57,21.06,1.18,45.22-.49,65.89-6.93,5.43-1.7,10.79-3,16-4.53,6.39-1.9,12.39-4.3,18-8.41,30.68-22.49,67.76-53.85,105.21-64.38,88-30.79,179-51.59,271.32-54,36.77-.71,73.58,1.86,109.48,9.18a398.81,398.81,0,0,1,51.51,14.43c27.83,9.81,55.13,23.88,80.68,39.91,20.94,13.13,40.63,27.86,56.07,43.23,16.62,16.54,30.53,30.68,47.21,42.92,27.89,13.06,59.41,19.13,94.86,21.47,12.57.84,25.31,1.55,38.28,2.59,23.74,1.91,48.72.45,73.09.31,33.42-.18,66.25-1.39,101.44-1,23.62.31,47.34,3.2,71,4.94"/><path class="cls-13" d="M-23.76,460.11c50.57-27,114.44-33.54,171.27-41,35.36-4.59,73.79-6.52,110.67-6.89,14.49-.1,29,0,43.54.09,19.3.17,43.71.34,62.78-2,16.47-2,29.91-4.52,41.9-10.94,16.12-8.63,23.11-24,42-27.25,15.47-2.7,35.61,4.9,52.32,11.18,34.85,13.1,67.21,28.36,107.74,34.23,17.79,2.58,35.38,4.89,53.12,6.15,20.63,1.47,44.72.09,65-6.23,5.37-1.68,10.67-2.89,15.77-4.36,6.33-1.83,12.22-4.16,17.67-8.37,29.44-22.74,65.94-54.65,102.67-64.88,87.4-31,178.44-50.73,270.22-51.52,36.6-.08,73.15,3.18,108.74,11.11a400.3,400.3,0,0,1,51,15.27c27.53,10.21,54.49,24.36,80.18,40,21,12.75,41,26.77,57.22,41.1,17.44,15.38,32.47,28.27,49.84,39,29.57,11.17,62.16,15,98.39,15.61,12.84.23,25.85.37,39.09.9,24.18,1,49.66-1.68,74.39-2.63,34-1.31,67.27-3.38,103.06-3.25,24,.11,48.08,3.25,72,5.34"/><path class="cls-14" d="M-21.38,481.57c50.93-26.2,114.25-32.43,171.23-38.94,35.47-4,73.71-5.39,110.44-5.39,14.46,0,29,.23,43.4.45,19.11.29,43.76.48,62.58-2.12,16.5-2.28,29.69-5,41.33-12.34,15.29-9.59,20.7-27,39.15-31.32,15.23-3.56,35.6,4,52.33,9.95,34.72,12.31,66.89,26.83,106.49,33,17.48,2.7,34.78,5.21,52.27,6.74,20.2,1.76,44.22.65,64.07-5.54,5.31-1.66,10.54-2.8,15.57-4.2,6.25-1.74,12-4,17.34-8.32C783,400.53,819,368.05,855,358.13c86.8-31.26,177.85-49.88,269.12-49,36.41.55,72.72,4.49,108,13a404.41,404.41,0,0,1,50.45,16.11c27.22,10.61,53.85,24.84,79.69,40.09,21,12.37,41.35,25.68,58.37,39,18.25,14.23,34.4,25.87,52.47,35,31.23,9.28,64.9,10.83,101.91,9.74,13.12-.38,26.39-.93,39.91-.8,24.6.23,50.58-3.8,75.68-5.57,34.61-2.43,68.29-5.35,104.68-5.52,24.38-.09,48.82,3.29,73.1,5.73"/><path class="cls-15" d="M-19,503c51.3-25.4,114.07-31.33,171.19-36.89,35.59-3.41,73.63-4.25,110.22-3.89,14.44.18,28.9.47,43.27.81,18.91.38,43.8.62,62.37-2.25,16.53-2.55,29.49-5.53,40.76-13.73,14.48-10.53,18.29-30.07,36.33-35.4,15-4.42,35.57,3.15,52.34,8.73,34.58,11.52,66.56,25.31,105.23,31.71,17.16,2.83,34.17,5.53,51.42,7.32,19.77,2.05,43.72,1.23,63.15-4.84,5.26-1.64,10.43-2.7,15.38-4,6.18-1.66,11.87-3.86,17-8.29,27-23.2,62.31-56.25,97.6-65.87,86.22-31.49,177.27-49,268-46.56,36.23,1.17,72.28,5.8,107.23,14.95a407.66,407.66,0,0,1,49.93,16.95c26.92,11,53.21,25.31,79.19,40.17,21,12,41.72,24.6,59.53,36.83,19.06,13.09,36.32,23.48,55.09,31.1,32.91,7.4,67.65,6.69,105.44,3.88,13.4-1,26.94-2,40.72-2.5,25-.93,51.52-5.93,77-8.5,35.21-3.56,69.31-7.33,106.3-7.8,24.76-.3,49.56,3.34,74.18,6.13"/><path class="cls-16" d="M-16.63,524.5C35,499.9,97.25,494.28,154.51,489.68c35.71-2.82,73.56-3.12,110-2.39,14.43.32,28.84.73,43.15,1.17,18.71.49,43.83.75,62.17-2.38,16.55-2.83,29.29-6,40.18-15.13,13.7-11.46,15.88-33.13,33.5-39.47,14.73-5.29,35.56,2.28,52.36,7.51,34.44,10.72,66.24,23.77,104,30.43,16.83,3,33.55,5.85,50.56,7.91,19.34,2.33,43.22,1.8,62.24-4.14,5.2-1.63,10.31-2.61,15.18-3.86,6.11-1.58,11.7-3.71,16.69-8.25,25.76-23.42,60.48-57.06,95-66.37,85.63-31.72,176.69-48.18,266.93-44.09,36,1.81,71.85,7.12,106.49,16.88a409,409,0,0,1,49.4,17.79c26.61,11.4,52.56,25.79,78.69,40.26,21,11.61,42.08,23.52,60.68,34.69,19.88,11.94,38.26,21.08,57.73,27.16,34.58,5.52,70.39,2.55,109-2,13.67-1.6,27.48-3.18,41.53-4.21,25.49-1.87,52.46-8.06,78.28-11.44,35.8-4.68,70.33-9.31,107.92-10.07,25.14-.5,50.3,3.38,75.25,6.52"/><path class="cls-17" d="M-14.26,546c52-23.79,113.7-29.11,171.11-32.76,35.82-2.23,73.47-2,109.76-.89,14.4.47,28.77,1,43,1.53,18.51.62,43.87.88,62-2.51,16.58-3.1,29.12-6.48,39.61-16.52,12.93-12.37,13.46-36.2,30.68-43.54,14.47-6.17,35.53,1.4,52.36,6.28,34.31,9.94,65.92,22.25,102.73,29.17,16.51,3.1,32.95,6.16,49.71,8.49,18.91,2.62,42.72,2.37,61.32-3.44,5.15-1.61,10.2-2.51,15-3.7,6-1.5,11.54-3.55,16.37-8.2C763.91,456.24,798,422,831.86,413c85-31.95,176.11-47.33,265.84-41.61a477,477,0,0,1,105.74,18.8,416,416,0,0,1,48.87,18.62c26.31,11.81,51.92,26.29,78.19,40.35,21,11.25,42.45,22.44,61.84,32.56,20.69,10.8,40.19,18.69,60.35,23.23,36.25,3.63,73.14-1.6,112.5-7.84,13.94-2.2,28-4.36,42.34-5.91,25.92-2.81,53.38-10.18,79.57-14.37,36.4-5.82,71.35-11.29,109.54-12.36,25.52-.69,51,3.43,76.33,6.92"/><path class="cls-18" d="M-11.88,567.43c52.4-23,113.51-28,171.06-30.7,35.94-1.64,73.4-.85,109.54.61,14.38.61,28.7,1.27,42.89,1.89,18.31.74,43.9,1,61.76-2.64,16.59-3.39,29-7,39-17.91,12.2-13.29,11.05-39.28,27.86-47.62,14.22-7.06,35.52.53,52.38,5.05,34.16,9.16,65.59,20.73,101.48,27.91,16.18,3.24,32.33,6.47,48.85,9.07,18.48,2.9,42.22,2.95,60.41-2.74,5.09-1.59,10.08-2.41,14.78-3.53,6-1.41,11.37-3.4,16-8.17,23.37-23.82,56.85-58.66,90-67.36,84.46-32.18,175.53-46.47,264.75-39.14a473.2,473.2,0,0,1,105,20.73,418.74,418.74,0,0,1,48.35,19.46c26,12.21,51.27,26.77,77.68,40.44,21,10.87,42.81,21.36,63,30.42,21.51,9.66,42.13,16.29,63,19.29,37.92,1.74,75.88-5.75,116-13.7,14.22-2.81,28.55-5.53,43.15-7.61,26.36-3.74,54.31-12.31,80.87-17.3,37-7,72.37-13.27,111.16-14.64,25.89-.9,51.79,3.48,77.41,7.31"/><path class="cls-19" d="M-9.5,588.89c52.76-22.19,113.32-26.9,171-28.63,36-1,73.31.28,109.31,2.1,14.36.75,28.64,1.54,42.75,2.25,18.12.86,43.94,1.13,61.56-2.77,16.62-3.68,28.83-7.41,38.45-19.3,11.49-14.2,8.62-42.35,25-51.69,13.95-7.94,35.49-.33,52.39,3.83,34,8.37,65.26,19.2,100.22,26.64,15.87,3.37,31.73,6.78,48,9.65,18,3.18,41.72,3.52,59.5-2,5-1.57,10-2.31,14.58-3.37,5.9-1.32,11.21-3.24,15.72-8.12,22.18-24,55-59.47,87.42-67.87,83.87-32.41,174.95-45.61,263.65-36.65a469.76,469.76,0,0,1,104.25,22.65,422.34,422.34,0,0,1,47.82,20.3c25.68,12.61,50.62,27.26,77.18,40.53,21,10.49,43.17,20.28,64.15,28.28,22.32,8.52,44,13.9,65.61,15.36,39.59-.15,78.63-9.9,119.55-19.57,14.49-3.42,29.1-6.71,44-9.31,26.81-4.68,55.25-14.44,82.17-20.24,37.58-8.09,73.39-15.24,112.78-16.91,26.27-1.1,52.53,3.52,78.48,7.71"/><path class="cls-20" d="M-7.13,610.35C46,589,106,584.55,163.85,583.78c36.17-.46,73.24,1.42,109.09,3.61,14.33.89,28.57,1.8,42.62,2.6,17.92,1,44,1.25,61.35-2.89,16.64-4,28.72-7.87,37.88-20.7C425.58,551.28,421,521,437,510.63c13.69-8.82,35.48-1.19,52.41,2.61,33.88,7.6,64.92,17.74,99,25.37,15.54,3.54,31.12,7.09,47.15,10.24,17.62,3.46,41.22,4.1,58.58-1.34,5-1.56,9.84-2.21,14.39-3.2,5.82-1.24,11-3.08,15.39-8.08,21-24.2,53.21-60.27,84.88-68.37,83.29-32.64,174.36-44.76,262.56-34.17a465.91,465.91,0,0,1,103.5,24.57,425.05,425.05,0,0,1,47.29,21.14c25.38,13,50,27.79,76.68,40.61a497.1,497.1,0,0,0,65.3,26.15c23.13,7.42,46,11.5,68.25,11.42,41.26-2,81.37-14,123.07-25.43,14.77-4,29.65-7.86,44.78-11,27.25-5.57,56.16-16.64,83.46-23.18,38.15-9.3,74.41-17.23,114.4-19.19,26.65-1.31,53.27,3.56,79.56,8.1"/><path class="cls-21" d="M-4.75,631.81c53.5-20.58,113-24.69,170.93-24.5,36.29.13,73.16,2.55,108.86,5.1,14.32,1,28.51,2.07,42.5,3,17.72,1.11,44,1.36,61.15-3,16.65-4.27,28.62-8.33,37.3-22.09,10.12-16,3.74-48.51,19.38-59.84,13.42-9.71,35.46-2,52.42,1.38,33.74,6.84,64.6,16.21,97.72,24.11,15.21,3.67,30.51,7.39,46.29,10.82,17.2,3.74,40.72,4.67,57.67-.64,4.92-1.54,9.72-2.12,14.18-3,5.76-1.17,10.9-2.93,15.07-8,19.88-24.37,51.39-61.07,82.34-68.86a518.37,518.37,0,0,1,261.47-31.7A463.22,463.22,0,0,1,1165.27,481a425.89,425.89,0,0,1,46.77,22c25.07,13.4,49.32,28.27,76.18,40.7a394.08,394.08,0,0,0,66.46,24c24,6.27,47.92,9.11,70.88,7.48,42.93-3.91,84.11-18.19,126.59-31.28,15-4.64,30.19-9.05,45.59-12.71,27.69-6.52,57.09-18.75,84.76-26.12,38.74-10.41,75.43-19.2,116-21.47,27-1.5,54,3.62,80.64,8.5"/><path class="cls-22" d="M-2.38,653.28c53.87-19.79,112.78-23.59,170.9-22.45,36.4.73,73.07,3.69,108.63,6.61,14.3,1.17,28.44,2.33,42.37,3.32,17.52,1.24,44,1.48,60.94-3.16,16.67-4.56,28.55-8.8,36.73-23.48,9.46-17,1.29-51.59,16.56-63.91,13.13-10.6,35.43-2.9,52.43.16,33.59,6.11,64.28,14.67,96.46,22.84,14.89,3.8,29.92,7.67,45.44,11.4,16.78,4,40.22,5.25,56.75.07,4.87-1.53,9.61-2,14-2.88,5.69-1.08,10.74-2.76,14.75-8,18.74-24.55,49.57-61.87,79.79-69.36,82.12-33.1,173.2-43.05,260.37-29.22a460,460,0,0,1,102,28.42A429.1,429.1,0,0,1,1202,526.46c24.77,13.8,48.68,28.75,75.69,40.78a330.9,330.9,0,0,0,67.6,21.89c24.78,5.12,49.86,6.7,73.51,3.54,44.6-5.8,86.86-22.34,130.12-37.15,15.32-5.25,30.74-10.24,46.4-14.41,28.14-7.47,58-20.87,86.06-29.05,39.34-11.54,76.44-21.18,117.64-23.75,27.41-1.7,54.75,3.66,81.71,8.89"/><path class="cls-23" d="M0,674.74c101.92-35.67,218.39-16.66,321.49-8.59,17.33,1.35,44.06,1.58,60.74-3.29s28.48-9.29,36.16-24.88c8.82-17.93-1.16-54.67,13.73-68,12.86-11.49,35.42-3.77,52.45-1.07,49.06,7.79,91.73,21,139.79,33.56,16.35,4.28,39.72,5.82,55.84.77,11.1-3.49,21.45-1.2,28.21-10.67,17.62-24.72,47.75-62.68,77.25-69.86,114.24-46.71,247.25-45.38,360.53,3.6,43.3,18.71,77.55,45.93,120.9,64.53s97.58,28.49,144.9,19.35c62.65-10.41,119.92-41.19,180.85-59.12,28.58-8.41,59-23,87.36-32,39.93-12.65,77.46-23.16,119.25-26,27.8-1.91,55.5,3.7,82.8,9.28"/><rect class="cls-1" x="-112.13" y="-83.58" width="2007.94" height="99.24"/><rect class="cls-1" x="1818.59" y="-83.58" width="77.22" height="464.02"/></svg>