<svg width="29" height="30" viewBox="0 0 29 30" fill="none" xmlns="http://www.w3.org/2000/svg">
<path d="M7.83604 0.929688C3.51555 0.929688 0.0119019 4.46179 0.0119019 8.81737V21.4377C0.0119019 25.7932 3.51555 29.3253 7.83604 29.3253H20.3547C24.6752 29.3253 28.1788 25.7932 28.1788 21.4377V8.81737C28.1788 4.46179 24.6752 0.929688 20.3547 0.929688H7.83604ZM23.4843 4.08476C24.3481 4.08476 25.0492 4.7915 25.0492 5.6623C25.0492 6.5331 24.3481 7.23983 23.4843 7.23983C22.6205 7.23983 21.9195 6.5331 21.9195 5.6623C21.9195 4.7915 22.6205 4.08476 23.4843 4.08476ZM14.0954 7.23983C18.4159 7.23983 21.9195 10.7719 21.9195 15.1275C21.9195 19.4831 18.4159 23.0152 14.0954 23.0152C9.77486 23.0152 6.27121 19.4831 6.27121 15.1275C6.27121 10.7719 9.77486 7.23983 14.0954 7.23983ZM14.0954 10.3949C12.8503 10.3949 11.6563 10.8935 10.7759 11.7811C9.89546 12.6686 9.40086 13.8723 9.40086 15.1275C9.40086 16.3827 9.89546 17.5864 10.7759 18.474C11.6563 19.3615 12.8503 19.8601 14.0954 19.8601C15.3404 19.8601 16.5345 19.3615 17.4149 18.474C18.2953 17.5864 18.7898 16.3827 18.7898 15.1275C18.7898 13.8723 18.2953 12.6686 17.4149 11.7811C16.5345 10.8935 15.3404 10.3949 14.0954 10.3949Z" fill="#0D38D3"/>
</svg>
