<svg width="28" height="32" viewBox="0 0 28 32" fill="none" xmlns="http://www.w3.org/2000/svg">
<g clip-path="url(#clip0)">
<path d="M14 12.6663C13.3407 12.6665 12.6963 12.8622 12.1482 13.2287C11.6001 13.5952 11.173 14.1159 10.9209 14.7251C10.6688 15.3343 10.6029 16.0045 10.7317 16.6511C10.8605 17.2977 11.1781 17.8917 11.6444 18.3578C12.1107 18.8239 12.7047 19.1413 13.3513 19.2698C13.998 19.3983 14.6682 19.3322 15.2773 19.0799C15.8864 18.8275 16.407 18.4002 16.7732 17.852C17.1395 17.3038 17.335 16.6593 17.335 16C17.3343 15.1158 16.9827 14.2681 16.3574 13.643C15.7321 13.0179 14.8842 12.6666 14 12.6663ZM21.7944 10.1038C21.6247 9.67365 21.3684 9.28301 21.0414 8.95607C20.7145 8.62912 20.3238 8.37284 19.8937 8.20312C18.5812 7.685 15.4563 7.80125 14 7.80125C12.5437 7.80125 9.42188 7.68062 8.10563 8.20312C7.67553 8.37284 7.28489 8.62912 6.95794 8.95607C6.63099 9.28301 6.37471 9.67365 6.205 10.1038C5.6875 11.4163 5.80312 14.5444 5.80312 15.9994C5.80312 17.4544 5.6875 20.5787 6.2075 21.8956C6.37721 22.3257 6.63349 22.7164 6.96044 23.0433C7.28739 23.3703 7.67803 23.6265 8.10812 23.7962C9.42062 24.3144 12.5456 24.1981 14.0025 24.1981C15.4594 24.1981 18.58 24.3187 19.8962 23.7962C20.3263 23.6265 20.717 23.3703 21.0439 23.0433C21.3709 22.7164 21.6272 22.3257 21.7969 21.8956C22.3188 20.5831 22.1987 17.455 22.1987 16C22.1987 14.545 22.3188 11.4212 21.7969 10.1044L21.7944 10.1038ZM14 21.125C12.9864 21.125 11.9955 20.8244 11.1527 20.2613C10.3099 19.6981 9.65302 18.8977 9.26512 17.9613C8.87722 17.0248 8.77573 15.9943 8.97348 15.0002C9.17122 14.006 9.65933 13.0928 10.3761 12.3761C11.0928 11.6593 12.006 11.1712 13.0002 10.9735C13.9943 10.7757 15.0248 10.8772 15.9613 11.2651C16.8977 11.653 17.6981 12.3099 18.2613 13.1527C18.8244 13.9955 19.125 14.9864 19.125 16C19.1258 16.6733 18.9938 17.3401 18.7366 17.9622C18.4793 18.5844 18.1018 19.1497 17.6258 19.6258C17.1497 20.1018 16.5844 20.4793 15.9622 20.7366C15.3401 20.9938 14.6733 21.1258 14 21.125ZM19.3363 11.8562C19.0996 11.8564 18.8683 11.7863 18.6715 11.6549C18.4747 11.5236 18.3213 11.3368 18.2306 11.1182C18.14 10.8996 18.1162 10.6591 18.1623 10.427C18.2084 10.1949 18.3223 9.98171 18.4895 9.81434C18.6568 9.64698 18.87 9.53299 19.102 9.48678C19.3341 9.44057 19.5746 9.46423 19.7933 9.55475C20.0119 9.64527 20.1988 9.7986 20.3302 9.99533C20.4617 10.1921 20.5319 10.4234 20.5319 10.66C20.5325 10.8171 20.5022 10.9728 20.4425 11.1182C20.3828 11.2636 20.2951 11.3957 20.1842 11.5071C20.0734 11.6185 19.9416 11.7069 19.7965 11.7672C19.6515 11.8276 19.4959 11.8587 19.3388 11.8588L19.3363 11.8562ZM25 2H3C2.20435 2 1.44129 2.31607 0.87868 2.87868C0.31607 3.44129 0 4.20435 0 5L0 27C0 27.7956 0.31607 28.5587 0.87868 29.1213C1.44129 29.6839 2.20435 30 3 30H25C25.7956 30 26.5587 29.6839 27.1213 29.1213C27.6839 28.5587 28 27.7956 28 27V5C28 4.20435 27.6839 3.44129 27.1213 2.87868C26.5587 2.31607 25.7956 2 25 2ZM23.93 20.125C23.8494 21.7269 23.4837 23.1462 22.3144 24.3125C21.145 25.4788 19.7269 25.8519 18.1269 25.9281C16.4762 26.0212 11.5275 26.0212 9.87687 25.9281C8.275 25.8475 6.86062 25.4813 5.68937 24.3125C4.51813 23.1437 4.15 21.7237 4.07375 20.125C3.98062 18.4737 3.98062 13.5244 4.07375 11.875C4.15438 10.2731 4.51562 8.85375 5.68937 7.6875C6.86312 6.52125 8.28125 6.1525 9.87687 6.07625C11.5275 5.98312 16.4762 5.98312 18.1269 6.07625C19.7288 6.15688 21.1475 6.52312 22.3144 7.69187C23.4813 8.86063 23.8538 10.2806 23.93 11.8825C24.0231 13.5275 24.0231 18.4725 23.93 20.125Z" fill="#F9B88C"/>
</g>
<defs>
<clipPath id="clip0">
<rect width="28" height="32" fill="#F9B88C"/>
</clipPath>
</defs>
</svg>
