<svg width="29" height="28" viewBox="0 0 29 28" fill="none" xmlns="http://www.w3.org/2000/svg">
<path d="M7.78168 0C3.4868 0 0.00390625 3.48289 0.00390625 7.77778V20.2222C0.00390625 24.5171 3.4868 28 7.78168 28H20.2261C24.521 28 28.0039 24.5171 28.0039 20.2222V7.77778C28.0039 3.48289 24.521 0 20.2261 0H7.78168ZM23.3372 3.11111C24.1959 3.11111 24.8928 3.808 24.8928 4.66667C24.8928 5.52533 24.1959 6.22222 23.3372 6.22222C22.4786 6.22222 21.7817 5.52533 21.7817 4.66667C21.7817 3.808 22.4786 3.11111 23.3372 3.11111ZM14.0039 6.22222C18.2988 6.22222 21.7817 9.70511 21.7817 14C21.7817 18.2949 18.2988 21.7778 14.0039 21.7778C9.70902 21.7778 6.22613 18.2949 6.22613 14C6.22613 9.70511 9.70902 6.22222 14.0039 6.22222ZM14.0039 9.33333C12.7662 9.33333 11.5792 9.825 10.7041 10.7002C9.8289 11.5753 9.33724 12.7623 9.33724 14C9.33724 15.2377 9.8289 16.4247 10.7041 17.2998C11.5792 18.175 12.7662 18.6667 14.0039 18.6667C15.2416 18.6667 16.4286 18.175 17.3037 17.2998C18.1789 16.4247 18.6706 15.2377 18.6706 14C18.6706 12.7623 18.1789 11.5753 17.3037 10.7002C16.4286 9.825 15.2416 9.33333 14.0039 9.33333Z" fill="#0D3B4F"/>
</svg>
