<svg width="86" height="150" viewBox="0 0 86 150" fill="none" xmlns="http://www.w3.org/2000/svg">
<path d="M4.7901 58.3721C4.7901 57.8053 6.00457 57.5568 6.8186 57.5568H79.5229C80.3369 57.5568 80.5032 57.8053 80.5032 58.3721V135.607C80.5009 135.937 80.3979 136.258 80.2079 136.527C80.0179 136.797 79.7499 137.002 79.4397 137.116L44.6642 149.805C43.8293 150.065 42.9345 150.065 42.0996 149.805L6.34813 137.118C5.62601 136.861 4.7901 136.183 4.7901 135.616V58.3721Z" fill="black"/>
<path d="M77.9023 85.1754V76.3108H7.51758L77.9023 85.1754Z" fill="#101111"/>
<path d="M82.5357 72.4932C82.5357 72.4932 47.5742 84.0067 3.46143 72.4932V50.0853C44.1627 60.6395 82.5357 50.0853 82.5357 50.0853V72.4932Z" fill="white"/>
<path d="M82.5358 50.0853V72.4933C82.5358 72.4933 66.9949 77.6145 43.5698 77.6145C30.0356 77.6226 16.5563 75.9015 3.46152 72.4933V50.0853C17.0286 53.602 30.3353 54.7749 42.0489 54.7749C65.4784 54.7749 82.5314 50.0853 82.5314 50.0853H82.5358ZM85.9407 45.6225L81.6255 46.8107C81.4438 46.8608 64.6732 51.3782 42.0446 51.3782C28.7313 51.3782 16.0373 49.8368 4.31713 46.7998L0.0522461 45.6901V75.1226L2.59936 75.7875C15.9749 79.2688 29.7432 81.0273 43.5676 81.02C67.2706 81.02 82.9559 75.9467 83.6124 75.7308L85.9516 74.9612V45.6225H85.9407Z" fill="black"/>
<path d="M16.5327 58.8453C16.7676 58.887 16.9911 58.9768 17.1892 59.1091C17.5641 59.3574 17.8313 59.7373 17.9376 60.1731C17.9941 60.3985 18.0015 60.6334 17.9595 60.862C17.5598 63.1294 17.1578 65.3975 16.7537 67.6664C16.7135 67.8961 16.6215 68.1138 16.4846 68.303C16.3548 68.4934 16.1899 68.6576 15.9988 68.787C15.7998 68.9162 15.5764 69.0037 15.3423 69.0442C15.0958 69.0911 14.8427 69.0911 14.5961 69.0442C12.7259 68.6896 10.8594 68.3022 8.99644 67.8822C8.75355 67.8249 8.52302 67.7245 8.3159 67.5857C8.11798 67.4524 7.94721 67.283 7.8126 67.0864C7.68298 66.8956 7.59364 66.6805 7.55001 66.4542C7.50661 66.2252 7.51258 65.9896 7.56752 65.7631C8.10729 63.5247 8.64705 61.2857 9.18682 59.0459C9.2416 58.823 9.34055 58.6132 9.47785 58.4289C9.6115 58.2481 9.78046 58.0961 9.97458 57.982C10.1716 57.8684 10.3872 57.7902 10.6114 57.7509C10.8433 57.708 11.0817 57.7132 11.3116 57.7661C13.0461 58.1557 14.7865 58.5154 16.5327 58.8453ZM15.1585 61.1476C13.9813 60.918 12.8062 60.6745 11.6333 60.4172L10.4779 65.6235C11.6945 65.8924 12.9119 66.1453 14.1301 66.3822C14.4743 64.6395 14.8172 62.8947 15.1585 61.1476Z" fill="black"/>
<path d="M28.4712 60.6723C28.5183 60.7305 28.5403 60.805 28.5325 60.8794L28.329 62.8263C28.3256 62.8634 28.3145 62.8994 28.2964 62.9321C28.2783 62.9647 28.2536 62.9933 28.224 63.016C28.1939 63.0409 28.1588 63.0593 28.1211 63.0698C28.0834 63.0803 28.0439 63.0828 28.0051 63.077C26.3114 62.8968 24.6192 62.6882 22.9284 62.4513C22.8781 62.4513 22.8496 62.4513 22.8453 62.4993C22.7694 63.0312 22.6965 63.5646 22.6264 64.0995C22.6237 64.1094 22.6233 64.1198 22.6253 64.1299C22.6274 64.14 22.6318 64.1494 22.6382 64.1575C22.6446 64.1656 22.6528 64.172 22.6621 64.1764C22.6715 64.1807 22.6818 64.1827 22.6921 64.1824C23.9875 64.3655 25.2851 64.5312 26.585 64.6794C26.6222 64.6818 26.6586 64.6921 26.6914 64.7098C26.7243 64.7275 26.7529 64.7521 26.7753 64.7819C26.7989 64.8126 26.8159 64.8478 26.8253 64.8853C26.8347 64.9228 26.8363 64.9618 26.83 64.9999C26.76 65.6126 26.6922 66.2274 26.6112 66.84C26.6041 66.914 26.568 66.9822 26.5106 67.0297C26.4807 67.0549 26.4456 67.0732 26.4077 67.0834C26.3699 67.0936 26.3303 67.0953 26.2917 67.0885C24.9788 66.9432 23.66 66.7753 22.3354 66.5849C22.3255 66.5814 22.315 66.5804 22.3047 66.5818C22.2943 66.5832 22.2844 66.587 22.2759 66.593C22.2673 66.599 22.2603 66.6069 22.2554 66.6161C22.2506 66.6253 22.248 66.6355 22.2479 66.646C22.0903 67.7477 21.9335 68.8487 21.7774 69.9489C21.7511 70.1364 21.6374 70.2149 21.436 70.1866C20.703 70.0797 19.9699 69.9686 19.2478 69.8552C19.0465 69.8225 18.9611 69.7157 18.9896 69.5282C19.5104 66.2986 20.0297 63.069 20.5476 59.8394C20.5486 59.8004 20.5586 59.7621 20.5769 59.7276C20.5952 59.6931 20.6213 59.6633 20.653 59.6405C20.6848 59.6177 20.7215 59.6025 20.7601 59.5962C20.7988 59.5899 20.8384 59.5925 20.8758 59.604C23.3354 59.992 25.8008 60.3169 28.2721 60.5785C28.3099 60.5803 28.3469 60.5895 28.3811 60.6056C28.4152 60.6217 28.4459 60.6443 28.4712 60.6723Z" fill="black"/>
<path d="M37.9638 61.3546C37.9896 61.3814 38.0096 61.4133 38.0224 61.4482C38.0352 61.4831 38.0406 61.5203 38.0382 61.5574C38.0141 62.2114 37.9879 62.8655 37.9638 63.5195C37.9624 63.5567 37.9535 63.5932 37.9377 63.6269C37.9219 63.6606 37.8996 63.6908 37.8719 63.7157C37.8424 63.7422 37.8077 63.7625 37.7701 63.7752C37.7325 63.7879 37.6927 63.7929 37.6531 63.7899C35.9521 63.7201 34.2525 63.622 32.5545 63.4955C32.5019 63.4955 32.4757 63.5086 32.4735 63.5479C32.4319 64.0864 32.3925 64.6227 32.351 65.159C32.3489 65.1691 32.3493 65.1795 32.3519 65.1895C32.3545 65.1994 32.3594 65.2086 32.3662 65.2164C32.3729 65.2242 32.3814 65.2303 32.3909 65.2344C32.4004 65.2384 32.4107 65.2402 32.421 65.2397C33.7252 65.3385 35.0294 65.4192 36.3336 65.4817C36.371 65.4822 36.4079 65.4906 36.4419 65.5064C36.4758 65.5222 36.506 65.545 36.5305 65.5733C36.5546 65.601 36.573 65.6331 36.5847 65.6679C36.5963 65.7027 36.6009 65.7394 36.5983 65.776C36.5677 66.3923 36.5385 67.0093 36.5108 67.627C36.5086 67.7013 36.4771 67.7718 36.4233 67.8232C36.3957 67.8492 36.363 67.8691 36.3271 67.8815C36.2913 67.8939 36.2532 67.8986 36.2154 67.8952C34.8893 67.8298 33.564 67.7476 32.2394 67.6488C32.2293 67.6465 32.2188 67.6465 32.2087 67.6488C32.1986 67.6511 32.1892 67.6557 32.1811 67.6623C32.1731 67.6688 32.1667 67.6771 32.1624 67.6864C32.158 67.6958 32.1559 67.7061 32.1562 67.7164C32.073 68.8268 31.9892 69.9358 31.9046 71.0433C31.8892 71.2308 31.7798 71.3159 31.5785 71.3006C30.8411 71.2439 30.1058 71.1807 29.3684 71.1153C29.1649 71.0957 29.073 70.9932 29.0905 70.8057C29.3997 67.5485 29.7068 64.2913 30.0117 61.0341C30.0099 60.9952 30.0173 60.9565 30.0331 60.9209C30.049 60.8853 30.0729 60.8539 30.1031 60.8292C30.1332 60.8044 30.1688 60.787 30.2068 60.7783C30.2449 60.7696 30.2845 60.7699 30.3225 60.779C32.8025 61.0058 35.2825 61.17 37.7625 61.2718C37.8 61.2708 37.8373 61.2777 37.8719 61.292C37.9066 61.3063 37.9379 61.3276 37.9638 61.3546Z" fill="black"/>
<path d="M42.0774 71.4728C42.0774 71.6603 41.9724 71.7541 41.7711 71.7519C41.0314 71.741 40.294 71.7279 39.5544 71.7083C39.3509 71.7083 39.2524 71.6058 39.259 71.4183C39.3523 68.148 39.4457 64.8778 39.5391 61.6075C39.5352 61.5689 39.5403 61.53 39.554 61.4937C39.5676 61.4574 39.5894 61.4247 39.6178 61.3982C39.6461 61.3716 39.6802 61.3519 39.7174 61.3406C39.7546 61.3293 39.7939 61.3266 39.8323 61.3328C40.5209 61.3531 41.2102 61.3669 41.9002 61.3742C41.9387 61.3694 41.9778 61.3736 42.0144 61.3863C42.0511 61.3991 42.0842 61.4201 42.1113 61.4478C42.1385 61.4754 42.1588 61.509 42.1708 61.5457C42.1827 61.5825 42.186 61.6216 42.1803 61.6598C42.1482 64.9301 42.1139 68.2011 42.0774 71.4728Z" fill="black"/>
<path d="M47.2727 63.9383C47.2459 63.9627 47.2248 63.9928 47.2112 64.0264C47.1976 64.0599 47.1917 64.0962 47.1939 64.1323C47.2304 65.7311 47.2683 67.3299 47.3077 68.9287C47.3071 68.9654 47.3149 69.0017 47.3304 69.0349C47.346 69.0682 47.3689 69.0974 47.3975 69.1206C47.4594 69.1695 47.5374 69.1936 47.6163 69.1882C49.3056 69.1475 50.9942 69.0748 52.6821 68.9701C52.7212 68.9662 52.7608 68.9701 52.7984 68.9818C52.836 68.9934 52.8708 69.0124 52.9009 69.0377C52.9303 69.0617 52.9545 69.0916 52.9718 69.1253C52.9891 69.1591 52.9993 69.1961 53.0015 69.2339L53.1197 71.1852C53.1223 71.2232 53.1168 71.2612 53.1036 71.2969C53.0904 71.3326 53.0698 71.3651 53.0431 71.3923C52.9848 71.4501 52.9065 71.4836 52.8243 71.4861C51.7083 71.55 50.5908 71.6031 49.4719 71.6452C48.5528 71.6772 47.6331 71.7026 46.7125 71.7215H46.4237C46.1737 71.7279 45.9249 71.6864 45.6906 71.5994C45.4676 71.5181 45.2625 71.3944 45.0867 71.2353C44.9153 71.0807 44.7781 70.8921 44.684 70.6816C44.5863 70.4703 44.5356 70.2405 44.5352 70.0079V69.7659V68.6758C44.5352 67.5247 44.5294 66.3728 44.5177 65.2202V64.2566V63.1163C44.5163 62.8844 44.5617 62.6546 44.6512 62.4405C44.7361 62.2332 44.8627 62.0455 45.0232 61.8889C45.1867 61.7319 45.3762 61.6043 45.5834 61.5117C45.7968 61.4157 46.0277 61.3645 46.2618 61.3613H46.5331C48.4296 61.3235 50.3312 61.2508 52.2378 61.1433C52.313 61.1385 52.3869 61.1636 52.4435 61.213C52.5001 61.2625 52.5348 61.3322 52.5398 61.4071L52.658 63.3692C52.6608 63.4065 52.6559 63.444 52.6434 63.4793C52.631 63.5145 52.6114 63.5469 52.5858 63.5742C52.5602 63.6024 52.5292 63.6252 52.4946 63.6413C52.46 63.6574 52.4226 63.6664 52.3845 63.6679C50.7564 63.7609 49.1269 63.8285 47.4959 63.8707C47.4561 63.8663 47.4157 63.87 47.3773 63.8816C47.339 63.8932 47.3034 63.9125 47.2727 63.9383Z" fill="black"/>
<path d="M58.4696 70.7862C58.4871 70.9737 58.3952 71.0762 58.1917 71.0936C57.4564 71.1634 56.719 71.2266 55.9837 71.2833C55.7802 71.2986 55.6708 71.2135 55.6577 71.0261C55.4053 67.7645 55.1544 64.5029 54.9049 61.2414C54.8962 61.2034 54.8966 61.1639 54.9061 61.1261C54.9155 61.0883 54.9338 61.0532 54.9593 61.0237C54.9849 60.9942 55.017 60.9711 55.0532 60.9563C55.0894 60.9415 55.1285 60.9353 55.1675 60.9383C55.8546 60.8846 56.5417 60.8257 57.2288 60.7618C57.2666 60.7526 57.306 60.7524 57.3439 60.7609C57.3818 60.7695 57.4172 60.7868 57.4473 60.8113C57.4774 60.8358 57.5014 60.8669 57.5174 60.9022C57.5334 60.9374 57.541 60.9759 57.5396 61.0146C57.8547 64.2718 58.1647 67.529 58.4696 70.7862Z" fill="black"/>
<path d="M66.8484 59.5495C67.0805 59.5108 67.3182 59.5205 67.5464 59.5779C67.7655 59.6321 67.9731 59.7252 68.1591 59.8526C68.3424 59.9815 68.4997 60.1434 68.623 60.33C68.7536 60.5231 68.8416 60.7416 68.8813 60.971C69.3554 63.718 69.8309 66.4644 70.308 69.2099C70.3165 69.2479 70.3162 69.2872 70.3071 69.325C70.298 69.3628 70.2803 69.398 70.2555 69.4279C70.2313 69.4598 70.2011 69.4866 70.1666 69.5068C70.132 69.527 70.0938 69.5402 70.0541 69.5457C69.3247 69.6692 68.5888 69.7891 67.8462 69.9054C67.7698 69.918 67.6915 69.9008 67.6274 69.8574C67.5957 69.8371 67.5688 69.8102 67.5485 69.7786C67.5281 69.747 67.5147 69.7115 67.5092 69.6743C67.3735 68.8022 67.2386 67.9302 67.1044 67.0581C67.0995 67.0212 67.0873 66.9856 67.0686 66.9534C67.0498 66.9212 67.0248 66.8931 66.995 66.8706C66.9642 66.8473 66.9286 66.8309 66.8909 66.8226C66.8531 66.8143 66.8139 66.8143 66.7762 66.8226C65.755 66.9767 64.725 67.122 63.6864 67.2587C63.6478 67.2626 63.6103 67.274 63.5761 67.2923C63.542 67.3107 63.5118 67.3355 63.4872 67.3655C63.4616 67.3951 63.4427 67.43 63.4322 67.4677C63.4216 67.5054 63.4195 67.5449 63.426 67.5835L63.763 70.2019C63.787 70.3872 63.6995 70.4941 63.496 70.5202C62.7629 70.6118 62.0277 70.7012 61.2946 70.784C61.0911 70.8058 60.9795 70.723 60.9598 70.5377C60.6491 67.7674 60.3398 64.9971 60.032 62.2268C60.0059 61.9968 60.0268 61.764 60.0933 61.5422C60.1557 61.3266 60.2622 61.1262 60.4062 60.9536C60.5522 60.78 60.7269 60.6326 60.9226 60.5175C61.1243 60.4011 61.3476 60.3269 61.5791 60.2995C63.3414 60.08 65.0978 59.8301 66.8484 59.5495ZM66.7127 64.564C66.5785 63.705 66.4457 62.8452 66.3144 61.9848C65.1328 62.1665 63.949 62.3336 62.7629 62.4862C62.8753 63.3496 62.9876 64.2122 63.0999 65.0741C64.3064 64.9201 65.5106 64.7515 66.7127 64.5683V64.564Z" fill="black"/>
<path d="M79.3953 65.0675C79.4323 65.0579 79.4709 65.056 79.5087 65.0619C79.5464 65.0678 79.5826 65.0814 79.6148 65.1019C79.6471 65.1224 79.6747 65.1492 79.6961 65.1808C79.7174 65.2124 79.732 65.2481 79.7389 65.2856C79.8921 65.92 80.0452 66.5522 80.1962 67.1867C80.2068 67.2231 80.2095 67.2614 80.2042 67.2989C80.1989 67.3365 80.1858 67.3725 80.1656 67.4047C80.1454 67.4379 80.1184 67.4666 80.0863 67.4887C80.0543 67.5109 80.0179 67.5261 79.9796 67.5333C77.717 68.0696 75.4448 68.5558 73.1632 68.9919C72.9619 69.0289 72.8437 68.957 72.8087 68.7738C72.1975 65.5603 71.5862 62.3459 70.975 59.1309C70.9627 59.094 70.9593 59.0547 70.9649 59.0162C70.9705 58.9777 70.985 58.941 71.0073 58.9091C71.0296 58.8772 71.0591 58.8508 71.0933 58.8322C71.1276 58.8135 71.1657 58.8031 71.2048 58.8017C71.8831 58.6709 72.5637 58.5379 73.242 58.3983C73.2786 58.3846 73.3179 58.3796 73.3568 58.3838C73.3957 58.388 73.433 58.4013 73.4658 58.4225C73.4986 58.4437 73.5259 58.4723 73.5456 58.506C73.5653 58.5397 73.5767 58.5775 73.579 58.6164L75.0801 65.7543C75.0861 65.7907 75.1005 65.8252 75.1221 65.8551C75.1438 65.885 75.1721 65.9094 75.2049 65.9265C75.272 65.9618 75.3497 65.9718 75.4237 65.9549C76.7512 65.6787 78.0751 65.3829 79.3953 65.0675Z" fill="black"/>
<path d="M86 45.6182L81.6454 43.4663L81.5973 0H3.91476L3.99573 43.8217L0 45.7838L3.99573 48.5505V48.6181H4.08544L4.33053 48.7881L4.34803 48.6181H5.69599C5.69599 48.6181 42.988 59.7741 81.0765 48.7881H81.6454V48.6181H81.6717L86 45.6182Z" fill="black"/>
<path d="M17.6699 34.3379C17.7885 34.3892 17.8832 34.4835 17.9347 34.6017C17.9609 34.6623 17.9743 34.7276 17.974 34.7935V37.1917C17.9745 37.2024 17.9726 37.213 17.9684 37.2228C17.9642 37.2326 17.9579 37.2413 17.95 37.2484C17.9426 37.2559 17.9337 37.2616 17.9239 37.2654C17.9141 37.2692 17.9036 37.2708 17.8931 37.2702H17.311C17.3009 37.2706 17.2907 37.2689 17.2813 37.2651C17.2719 37.2614 17.2634 37.2557 17.2563 37.2484C17.2424 37.2328 17.2347 37.2126 17.2344 37.1917V35.0268H16.7508V37.1917C16.7513 37.2022 16.7495 37.2126 16.7458 37.2223C16.742 37.2321 16.7363 37.241 16.7289 37.2484C16.722 37.2558 16.7134 37.2616 16.704 37.2653C16.6945 37.2691 16.6844 37.2708 16.6742 37.2702H16.1381C16.1276 37.2707 16.1172 37.269 16.1074 37.2652C16.0976 37.2615 16.0887 37.2557 16.0812 37.2484C16.0736 37.2411 16.0675 37.2323 16.0634 37.2225C16.0592 37.2128 16.0571 37.2023 16.0571 37.1917V35.0268H15.5823V37.1917C15.5834 37.2025 15.582 37.2134 15.5783 37.2235C15.5745 37.2337 15.5686 37.2429 15.5608 37.2504C15.553 37.258 15.5436 37.2637 15.5333 37.2671C15.523 37.2705 15.5121 37.2716 15.5013 37.2702H14.9149C14.904 37.272 14.8929 37.2713 14.8824 37.268C14.8719 37.2648 14.8623 37.2591 14.8544 37.2514C14.8465 37.2438 14.8406 37.2344 14.837 37.224C14.8334 37.2137 14.8324 37.2026 14.8339 37.1917V34.3793C14.832 34.3683 14.8328 34.357 14.8362 34.3463C14.8395 34.3356 14.8455 34.3259 14.8534 34.318C14.8613 34.3101 14.8711 34.3042 14.8818 34.3009C14.8925 34.2975 14.9038 34.2967 14.9149 34.2986H17.4773C17.5435 34.2984 17.6091 34.3117 17.6699 34.3379Z" fill="white"/>
<path d="M20.6433 34.2987C20.7095 34.2985 20.7751 34.3118 20.8359 34.338C20.9545 34.3892 21.0492 34.4835 21.1006 34.6018C21.1269 34.6623 21.1403 34.7276 21.14 34.7936V37.1918C21.1405 37.2022 21.1388 37.2127 21.135 37.2224C21.1312 37.2322 21.1255 37.241 21.1181 37.2485C21.1021 37.2632 21.0809 37.271 21.0591 37.2703H20.4682C20.4578 37.2707 20.4473 37.269 20.4375 37.2653C20.4277 37.2615 20.4188 37.2558 20.4113 37.2485C20.4037 37.2412 20.3976 37.2323 20.3935 37.2226C20.3894 37.2129 20.3872 37.2024 20.3873 37.1918V36.4331C20.3878 36.4125 20.3808 36.3923 20.3676 36.3764C20.3603 36.3687 20.3515 36.3626 20.3417 36.3585C20.3319 36.3543 20.3213 36.3523 20.3107 36.3524H19.4704C19.4598 36.3523 19.4492 36.3543 19.4394 36.3585C19.4296 36.3626 19.4208 36.3687 19.4135 36.3764C19.4059 36.3838 19.3998 36.3926 19.3957 36.4023C19.3915 36.4121 19.3894 36.4225 19.3894 36.4331V37.1918C19.391 37.2027 19.3899 37.2137 19.3863 37.2241C19.3828 37.2345 19.3768 37.2439 19.3689 37.2515C19.361 37.2591 19.3515 37.2648 19.341 37.2681C19.3304 37.2714 19.3193 37.2721 19.3085 37.2703H18.722C18.7112 37.2721 18.7 37.2714 18.6895 37.2681C18.679 37.2648 18.6695 37.2591 18.6616 37.2515C18.6537 37.2439 18.6477 37.2345 18.6442 37.2241C18.6406 37.2137 18.6395 37.2027 18.6411 37.1918V34.7936C18.6408 34.7276 18.6542 34.6623 18.6804 34.6018C18.7035 34.5424 18.7394 34.4888 18.7855 34.4448C18.8324 34.4006 18.8864 34.3645 18.9452 34.338C19.006 34.3118 19.0716 34.2985 19.1378 34.2987H20.6433ZM20.3873 35.7093V34.9637H19.3894V35.7093H20.3873Z" fill="white"/>
<path d="M23.816 34.3227C23.8238 34.33 23.8299 34.3388 23.8341 34.3486C23.8382 34.3583 23.8403 34.3688 23.8401 34.3794V36.7667C23.8396 36.8335 23.8254 36.8996 23.7985 36.9608C23.7734 37.019 23.7378 37.0722 23.6935 37.1177C23.6477 37.1644 23.5929 37.2013 23.5323 37.226C23.4717 37.2508 23.4067 37.2629 23.3412 37.2616H22.0632C21.9965 37.2626 21.9302 37.25 21.8685 37.2246C21.7487 37.175 21.6535 37.0801 21.6037 36.9608C21.5775 36.8994 21.5641 36.8334 21.5643 36.7667V35.862C21.5629 35.851 21.564 35.8399 21.5676 35.8295C21.5711 35.819 21.577 35.8095 21.5849 35.8017C21.5927 35.794 21.6022 35.7881 21.6127 35.7845C21.6232 35.781 21.6343 35.7799 21.6453 35.7813H22.2317C22.2428 35.7794 22.2542 35.7801 22.2649 35.7835C22.2756 35.7869 22.2853 35.7928 22.2932 35.8007C22.3012 35.8086 22.3071 35.8183 22.3105 35.829C22.3139 35.8396 22.3146 35.8509 22.3127 35.862V36.4659C22.3125 36.4765 22.3146 36.487 22.3188 36.4967C22.3229 36.5065 22.329 36.5153 22.3368 36.5225C22.3527 36.5358 22.3729 36.5427 22.3937 36.5422H23.0108C23.0315 36.5427 23.0517 36.5358 23.0677 36.5225C23.0754 36.5153 23.0815 36.5065 23.0857 36.4967C23.0898 36.487 23.0919 36.4765 23.0917 36.4659V34.3794C23.0907 34.3587 23.0978 34.3384 23.1114 34.3227C23.1183 34.3145 23.1271 34.3081 23.137 34.3039C23.1469 34.2998 23.1576 34.298 23.1683 34.2988H23.7591C23.7698 34.2983 23.7804 34.3002 23.7903 34.3044C23.8001 34.3085 23.8089 34.3148 23.816 34.3227Z" fill="white"/>
<path d="M26.5018 34.2987C26.5688 34.2982 26.6351 34.3116 26.6966 34.338C26.755 34.364 26.8083 34.4002 26.8541 34.4448C26.8989 34.4899 26.9346 34.5432 26.9592 34.6018C26.9871 34.6619 27.0013 34.7274 27.0007 34.7936V36.7558C27.0013 36.8227 26.9872 36.889 26.9592 36.9498C26.934 37.0081 26.8984 37.0613 26.8541 37.1068C26.8095 37.1528 26.7559 37.1891 26.6966 37.2136C26.6349 37.2392 26.5686 37.2519 26.5018 37.2507H24.9985C24.933 37.2516 24.868 37.2394 24.8074 37.2148C24.7467 37.1902 24.6916 37.1538 24.6453 37.1077C24.599 37.0616 24.5624 37.0067 24.5378 36.9462C24.5131 36.8858 24.5009 36.821 24.5018 36.7558V34.7936C24.5008 34.7278 24.5134 34.6625 24.539 34.6018C24.5635 34.5427 24.6 34.4892 24.6462 34.4448C24.6924 34.4007 24.7456 34.3646 24.8037 34.338C24.8653 34.3118 24.9316 34.2985 24.9985 34.2987H26.5018ZM26.248 35.0182H25.248V36.5443H26.248V35.0182Z" fill="white"/>
<path d="M30.2615 37.1939C30.2662 37.2014 30.2686 37.2101 30.2686 37.2189C30.2686 37.2278 30.2662 37.2365 30.2615 37.244C30.256 37.2506 30.2489 37.2556 30.2408 37.2587C30.2328 37.2618 30.2241 37.2627 30.2156 37.2614H29.5438C29.52 37.2619 29.4966 37.2558 29.4759 37.244C29.455 37.232 29.4377 37.2147 29.4256 37.1939L28.9748 36.3894C28.9718 36.3841 28.9673 36.3798 28.9619 36.3771C28.9564 36.3744 28.9503 36.3733 28.9442 36.3741H28.4387C28.4234 36.3741 28.4168 36.3741 28.4168 36.3937V37.183C28.4184 37.1938 28.4173 37.2049 28.4137 37.2152C28.4102 37.2256 28.4042 37.235 28.3963 37.2427C28.3884 37.2503 28.3789 37.256 28.3683 37.2592C28.3578 37.2625 28.3467 37.2633 28.3359 37.2614H27.7494C27.7387 37.2628 27.7277 37.2617 27.7174 37.2583C27.7071 37.2549 27.6977 37.2492 27.69 37.2416C27.6822 37.2341 27.6762 37.2249 27.6725 37.2147C27.6688 37.2046 27.6674 37.1937 27.6685 37.183V34.3792C27.667 34.3683 27.6681 34.3572 27.6717 34.3468C27.6753 34.3363 27.6812 34.3268 27.689 34.319C27.6968 34.3112 27.7063 34.3053 27.7168 34.3018C27.7273 34.2983 27.7384 34.2972 27.7494 34.2986H29.6707C29.7376 34.2983 29.8039 34.3117 29.8654 34.3378C29.9229 34.3645 29.9754 34.4006 30.0208 34.4447C30.067 34.4891 30.1035 34.5425 30.128 34.6016C30.1543 34.6622 30.1677 34.7275 30.1674 34.7935V35.9076C30.1685 36.0118 30.1355 36.1136 30.0733 36.1975C30.0122 36.2804 29.9264 36.3422 29.8282 36.3741H29.8151C29.7954 36.3741 29.791 36.3872 29.8151 36.3981L30.2615 37.1939ZM29.4169 34.9875H28.3928V35.7092H29.4169V34.9875Z" fill="white"/>
<path d="M34.2699 36.542C34.2802 36.5419 34.2904 36.544 34.2998 36.5481C34.3093 36.5523 34.3177 36.5584 34.3246 36.566C34.3319 36.5735 34.3376 36.5824 34.3414 36.5921C34.3452 36.6019 34.3469 36.6123 34.3464 36.6227V37.183C34.3469 37.1935 34.3452 37.2039 34.3414 37.2136C34.3376 37.2234 34.3319 37.2322 34.3246 37.2397C34.3176 37.2471 34.3091 37.2528 34.2996 37.2566C34.2902 37.2604 34.28 37.262 34.2699 37.2615H32.4339C32.4231 37.2633 32.4119 37.2626 32.4014 37.2593C32.3909 37.256 32.3814 37.2504 32.3735 37.2427C32.3656 37.2351 32.3596 37.2257 32.3561 37.2153C32.3525 37.2049 32.3514 37.1939 32.353 37.183V34.3793C32.351 34.3683 32.3518 34.357 32.3552 34.3463C32.3586 34.3356 32.3645 34.3259 32.3724 34.318C32.3804 34.3101 32.3901 34.3042 32.4008 34.3009C32.4115 34.2975 32.4229 34.2967 32.4339 34.2986H33.0204C33.0313 34.2972 33.0425 34.2983 33.053 34.3019C33.0635 34.3054 33.073 34.3113 33.0808 34.3191C33.0886 34.3269 33.0945 34.3364 33.0981 34.3468C33.1017 34.3573 33.1028 34.3684 33.1013 34.3793V36.4657C33.1008 36.4762 33.1024 36.4866 33.1062 36.4964C33.11 36.5062 33.1158 36.515 33.1232 36.5224C33.14 36.5356 33.1609 36.5426 33.1823 36.542H34.2699Z" fill="white"/>
<path d="M37.0062 34.3226C37.0136 34.33 37.0194 34.3389 37.0232 34.3486C37.027 34.3584 37.0286 34.3689 37.028 34.3793V34.9113C37.0286 34.9217 37.027 34.9322 37.0232 34.942C37.0194 34.9517 37.0136 34.9606 37.0062 34.968C36.9894 34.9812 36.9685 34.9881 36.9471 34.9876H35.5247C35.5218 34.9872 35.5188 34.9876 35.5159 34.9885C35.5131 34.9895 35.5106 34.9911 35.5085 34.9932C35.5064 34.9953 35.5048 34.9978 35.5038 35.0006C35.5028 35.0035 35.5025 35.0064 35.5028 35.0094V35.4716C35.5028 35.4825 35.5028 35.489 35.5247 35.489H36.7392C36.7494 35.4882 36.7596 35.4897 36.7691 35.4935C36.7786 35.4973 36.7871 35.5032 36.7939 35.5108C36.8014 35.5186 36.8072 35.5279 36.811 35.538C36.8148 35.5481 36.8164 35.5589 36.8158 35.5697V35.9927C36.8162 36.0031 36.8145 36.0135 36.8107 36.0233C36.807 36.033 36.8012 36.0419 36.7939 36.0493C36.7872 36.0572 36.7788 36.0635 36.7693 36.0677C36.7599 36.0718 36.7495 36.0738 36.7392 36.0733H35.5247C35.5094 36.0733 35.5028 36.0733 35.5028 36.0929V36.311V36.5573C35.5028 36.5726 35.5028 36.5791 35.5247 36.5791H36.9471C36.958 36.5781 36.9689 36.5795 36.9792 36.5832C36.9895 36.5869 36.9988 36.5928 37.0066 36.6005C37.0143 36.6082 37.0202 36.6175 37.0239 36.6278C37.0277 36.638 37.0291 36.6489 37.028 36.6598V37.1896C37.0285 37.2 37.0268 37.2104 37.023 37.2202C37.0192 37.2299 37.0135 37.2388 37.0062 37.2463C36.9901 37.261 36.9689 37.2688 36.9471 37.2681H34.8354C34.8246 37.2699 34.8134 37.2691 34.8029 37.2659C34.7924 37.2626 34.7829 37.2569 34.775 37.2493C34.7671 37.2416 34.7611 37.2322 34.7576 37.2219C34.754 37.2115 34.7529 37.2004 34.7545 37.1896V34.3793C34.7543 34.3687 34.7564 34.3582 34.7605 34.3485C34.7647 34.3387 34.7708 34.3299 34.7785 34.3226C34.7856 34.3147 34.7944 34.3084 34.8043 34.3043C34.8141 34.3001 34.8248 34.2982 34.8354 34.2987H36.9471C36.9581 34.2982 36.969 34.3001 36.9792 34.3042C36.9894 34.3084 36.9986 34.3146 37.0062 34.3226Z" fill="white"/>
<path d="M39.7096 34.2987C39.7758 34.2985 39.8414 34.3118 39.9022 34.338C40.0208 34.3892 40.1155 34.4835 40.167 34.6018C40.1932 34.6623 40.2066 34.7276 40.2064 34.7936V37.1918C40.2068 37.2022 40.2051 37.2127 40.2013 37.2224C40.1976 37.2322 40.1918 37.241 40.1845 37.2485C40.1684 37.2632 40.1472 37.271 40.1254 37.2703H39.5346C39.5241 37.2707 39.5136 37.269 39.5038 37.2653C39.4941 37.2615 39.4852 37.2558 39.4777 37.2485C39.47 37.2412 39.464 37.2323 39.4598 37.2226C39.4557 37.2129 39.4536 37.2024 39.4536 37.1918V36.4331C39.4542 36.4125 39.4472 36.3923 39.4339 36.3764C39.4269 36.3689 39.4185 36.3628 39.4091 36.3587C39.3997 36.3546 39.3895 36.3525 39.3792 36.3524H38.5367C38.5154 36.353 38.4952 36.3617 38.4801 36.3767C38.465 36.3917 38.4563 36.4119 38.4558 36.4331V37.1918C38.4573 37.2027 38.4562 37.2137 38.4527 37.2241C38.4491 37.2345 38.4431 37.2439 38.4352 37.2515C38.4274 37.2591 38.4178 37.2648 38.4073 37.2681C38.3968 37.2714 38.3856 37.2721 38.3748 37.2703H37.7883C37.7776 37.2717 37.7666 37.2706 37.7563 37.2672C37.746 37.2637 37.7367 37.258 37.7289 37.2505C37.7211 37.243 37.7151 37.2338 37.7114 37.2236C37.7077 37.2134 37.7063 37.2026 37.7074 37.1918V34.7936C37.7071 34.7276 37.7205 34.6623 37.7468 34.6018C37.7699 34.5424 37.8057 34.4888 37.8518 34.4448C37.8988 34.4006 37.9527 34.3645 38.0116 34.338C38.0723 34.3118 38.1379 34.2985 38.2041 34.2987H39.7096ZM39.4536 35.7093V34.9637H38.4558V35.7093H39.4536Z" fill="white"/>
<path d="M43.3516 35.6678C43.359 35.6752 43.3647 35.6841 43.3684 35.6938C43.3722 35.7036 43.3739 35.714 43.3735 35.7245V36.7666C43.3737 36.8333 43.3603 36.8993 43.3341 36.9606C43.3074 37.0185 43.2712 37.0716 43.2269 37.1176C43.1823 37.1636 43.1286 37.1999 43.0693 37.2244C43.0084 37.2499 42.9428 37.2625 42.8768 37.2615H41.3712C41.3052 37.2625 41.2396 37.2499 41.1787 37.2244C41.119 37.1994 41.0648 37.1631 41.0189 37.1176C40.9732 37.0732 40.9374 37.0197 40.9139 36.9606C40.8877 36.8993 40.8743 36.8333 40.8745 36.7666V34.8044C40.8743 34.7384 40.8877 34.6731 40.9139 34.6126C40.937 34.5532 40.9729 34.4996 41.0189 34.4556C41.0659 34.4114 41.1199 34.3753 41.1787 34.3488C41.2395 34.3226 41.305 34.3093 41.3712 34.3095H43.1218C43.1325 34.3091 43.1432 34.311 43.153 34.3151C43.1628 34.3193 43.1716 34.3256 43.1787 34.3335C43.1865 34.3408 43.1926 34.3496 43.1968 34.3593C43.2009 34.3691 43.203 34.3796 43.2028 34.3902V34.9483C43.2023 34.9695 43.1935 34.9897 43.1785 35.0047C43.1634 35.0197 43.1431 35.0284 43.1218 35.029H41.6973C41.6868 35.0285 41.6764 35.0302 41.6666 35.034C41.6568 35.0377 41.6479 35.0435 41.6404 35.0508C41.6327 35.0576 41.6266 35.066 41.6224 35.0754C41.6183 35.0848 41.6162 35.095 41.6163 35.1053V36.4766C41.6162 36.4872 41.6182 36.4977 41.6224 36.5075C41.6265 36.5172 41.6327 36.526 41.6404 36.5333C41.6563 36.5465 41.6766 36.5535 41.6973 36.5529H42.5398C42.5598 36.5534 42.5793 36.5464 42.5945 36.5333C42.6081 36.5176 42.6152 36.4973 42.6142 36.4766V35.7354C42.6147 35.7141 42.6234 35.6939 42.6385 35.6789C42.6536 35.6639 42.6738 35.6552 42.6951 35.6547H43.286C43.2972 35.6523 43.3088 35.6523 43.3201 35.6545C43.3314 35.6568 43.3421 35.6613 43.3516 35.6678Z" fill="white"/>
<path d="M46.4836 34.3226C46.4913 34.3299 46.4974 34.3387 46.5016 34.3484C46.5057 34.3582 46.5078 34.3687 46.5076 34.3793V36.7666C46.5071 36.8334 46.493 36.8994 46.4661 36.9606C46.4409 37.0189 46.4053 37.0721 46.361 37.1176C46.3153 37.1643 46.2604 37.2012 46.1998 37.2259C46.1392 37.2507 46.0742 37.2628 46.0087 37.2615H44.5054C44.4399 37.2624 44.3749 37.2502 44.3143 37.2256C44.2536 37.2011 44.1985 37.1646 44.1522 37.1185C44.1059 37.0724 44.0693 37.0175 44.0447 36.957C44.02 36.8966 44.0078 36.8318 44.0087 36.7666V34.3793C44.0068 34.3685 44.0076 34.3574 44.0109 34.3469C44.0141 34.3365 44.0199 34.3269 44.0275 34.3191C44.0352 34.3112 44.0446 34.3053 44.055 34.3017C44.0654 34.2982 44.0765 34.2971 44.0874 34.2986H44.6651C44.6762 34.2967 44.6876 34.2975 44.6983 34.3009C44.709 34.3042 44.7187 34.3101 44.7266 34.318C44.7346 34.3259 44.7405 34.3356 44.7439 34.3463C44.7473 34.357 44.748 34.3683 44.7461 34.3793V36.4657C44.7459 36.4763 44.748 36.4868 44.7521 36.4966C44.7563 36.5064 44.7624 36.5152 44.7702 36.5224C44.7861 36.5356 44.8063 36.5426 44.8271 36.542H45.6695C45.6897 36.5429 45.7093 36.5359 45.7242 36.5224C45.7317 36.515 45.7375 36.5062 45.7413 36.4964C45.745 36.4866 45.7467 36.4762 45.7461 36.4657V34.3793C45.7467 34.3581 45.7554 34.3379 45.7705 34.3229C45.7855 34.3079 45.8058 34.2992 45.8271 34.2986H46.4179C46.43 34.2968 46.4424 34.298 46.4538 34.3022C46.4653 34.3064 46.4756 34.3134 46.4836 34.3226Z" fill="white"/>
<path d="M49.4277 34.3227C49.4354 34.33 49.4416 34.3388 49.4457 34.3486C49.4498 34.3583 49.4519 34.3688 49.4518 34.3794V34.9114C49.4519 34.922 49.4498 34.9325 49.4457 34.9423C49.4416 34.952 49.4354 34.9608 49.4277 34.9681C49.4117 34.9813 49.3915 34.9883 49.3708 34.9877H47.9462C47.9433 34.9873 47.9403 34.9877 47.9375 34.9886C47.9347 34.9896 47.9321 34.9912 47.93 34.9933C47.9279 34.9954 47.9263 34.998 47.9253 35.0008C47.9243 35.0036 47.924 35.0066 47.9244 35.0095V35.4717C47.9244 35.4826 47.9244 35.4891 47.9462 35.4891H49.1629C49.173 35.4887 49.1832 35.4905 49.1926 35.4942C49.202 35.498 49.2105 35.5037 49.2176 35.5109C49.2318 35.5273 49.2396 35.5482 49.2395 35.5698V35.9928C49.2392 36.0137 49.2315 36.0338 49.2176 36.0495C49.2106 36.057 49.2022 36.063 49.1928 36.0672C49.1834 36.0713 49.1732 36.0734 49.1629 36.0734H47.9462C47.9331 36.0734 47.9244 36.0734 47.9244 36.0931V36.3111V36.5574C47.924 36.5604 47.9243 36.5634 47.9253 36.5662C47.9263 36.569 47.9279 36.5715 47.93 36.5736C47.9321 36.5757 47.9347 36.5773 47.9375 36.5783C47.9403 36.5793 47.9433 36.5796 47.9462 36.5792H49.3708C49.3813 36.5788 49.3917 36.5805 49.4015 36.5843C49.4113 36.588 49.4202 36.5937 49.4277 36.601C49.443 36.6168 49.4517 36.6379 49.4518 36.6599V37.1897C49.4518 37.2003 49.4497 37.2107 49.4455 37.2205C49.4414 37.2302 49.4353 37.239 49.4277 37.2464C49.4202 37.2537 49.4113 37.2594 49.4015 37.2632C49.3917 37.2669 49.3813 37.2686 49.3708 37.2682H47.2591C47.2483 37.27 47.2372 37.2692 47.2267 37.266C47.2161 37.2627 47.2066 37.257 47.1987 37.2494C47.1908 37.2417 47.1848 37.2323 47.1813 37.222C47.1777 37.2116 47.1766 37.2005 47.1782 37.1897V34.3794C47.1776 34.369 47.1792 34.3585 47.183 34.3488C47.1868 34.339 47.1926 34.3301 47.2 34.3227C47.2074 34.3145 47.2165 34.3081 47.2268 34.3039C47.237 34.2997 47.2481 34.298 47.2591 34.2988H49.3708C49.3815 34.2983 49.3921 34.3002 49.4019 34.3044C49.4118 34.3085 49.4206 34.3148 49.4277 34.3227Z" fill="white"/>
<path d="M53.9902 34.2986C54.0009 34.2982 54.0115 34.3001 54.0214 34.3043C54.0312 34.3084 54.04 34.3147 54.0471 34.3226C54.0548 34.3299 54.061 34.3387 54.0651 34.3484C54.0693 34.3582 54.0713 34.3687 54.0712 34.3793V37.183C54.0712 37.1936 54.0691 37.2041 54.0649 37.2138C54.0608 37.2236 54.0547 37.2324 54.0471 37.2397C54.0396 37.247 54.0307 37.2527 54.0209 37.2565C54.0111 37.2602 54.0007 37.2619 53.9902 37.2615H53.3994C53.3889 37.2619 53.3784 37.2602 53.3687 37.2565C53.3589 37.2527 53.35 37.247 53.3425 37.2397C53.3348 37.2324 53.3288 37.2236 53.3246 37.2138C53.3205 37.2041 53.3184 37.1936 53.3184 37.183V36.2041C53.3187 36.194 53.3169 36.184 53.3132 36.1746C53.3095 36.1652 53.3038 36.1566 53.2967 36.1495C53.2895 36.1423 53.2809 36.1367 53.2715 36.133C53.2621 36.1293 53.252 36.1275 53.2418 36.1278H52.3994C52.3889 36.1274 52.3784 36.1291 52.3686 36.1328C52.3588 36.1366 52.3499 36.1423 52.3425 36.1496C52.3351 36.1566 52.3293 36.165 52.3255 36.1745C52.3217 36.1839 52.32 36.194 52.3206 36.2041V37.183C52.3216 37.1938 52.3203 37.2046 52.3165 37.2148C52.3128 37.225 52.3069 37.2342 52.2991 37.2417C52.2913 37.2492 52.2819 37.2549 52.2716 37.2584C52.2613 37.2618 52.2504 37.2629 52.2396 37.2615H51.6532C51.6423 37.2633 51.6312 37.2626 51.6207 37.2593C51.6102 37.256 51.6006 37.2504 51.5927 37.2427C51.5848 37.2351 51.5789 37.2257 51.5753 37.2153C51.5717 37.2049 51.5707 37.1939 51.5722 37.183V34.3793C51.5703 34.3683 51.571 34.357 51.5744 34.3463C51.5778 34.3356 51.5837 34.326 51.5917 34.318C51.5996 34.3101 51.6093 34.3042 51.62 34.3009C51.6307 34.2975 51.6421 34.2967 51.6532 34.2986H52.2396C52.2506 34.2972 52.2617 34.2983 52.2722 34.3019C52.2827 34.3054 52.2922 34.3113 52.3 34.3191C52.3079 34.3269 52.3138 34.3364 52.3173 34.3468C52.3209 34.3573 52.322 34.3684 52.3206 34.3793V35.319C52.3192 35.3297 52.3203 35.3406 52.3237 35.3508C52.3272 35.3611 52.3329 35.3705 52.3405 35.3782C52.348 35.386 52.3573 35.3919 52.3674 35.3956C52.3776 35.3993 52.3886 35.4007 52.3994 35.3996H53.2418C53.2521 35.3998 53.2623 35.3977 53.2718 35.3935C53.2812 35.3894 53.2897 35.3833 53.2965 35.3756C53.3039 35.3682 53.3096 35.3593 53.3134 35.3496C53.3171 35.3398 53.3189 35.3294 53.3184 35.319V34.3706C53.3183 34.36 53.3203 34.3495 53.3245 34.3397C53.3286 34.33 53.3347 34.3212 53.3425 34.3139C53.3496 34.306 53.3584 34.2997 53.3682 34.2955C53.3781 34.2914 53.3887 34.2895 53.3994 34.2899L53.9902 34.2986Z" fill="white"/>
<path d="M56.7432 34.2987C56.8101 34.2982 56.8764 34.3116 56.9379 34.338C56.9963 34.364 57.0497 34.4002 57.0955 34.4448C57.1403 34.4899 57.1759 34.5432 57.2005 34.6018C57.2285 34.6619 57.2427 34.7274 57.2421 34.7936V37.1918C57.2421 37.2024 57.24 37.2129 57.2359 37.2226C57.2317 37.2324 57.2256 37.2412 57.218 37.2485C57.2105 37.2558 57.2016 37.2615 57.1918 37.2653C57.182 37.269 57.1716 37.2707 57.1611 37.2703H56.5703C56.5598 37.2709 56.5493 37.2692 56.5395 37.2655C56.5297 37.2617 56.5208 37.2559 56.5134 37.2485C56.5058 37.2412 56.4997 37.2324 56.4956 37.2226C56.4914 37.2129 56.4893 37.2024 56.4893 37.1918V36.4331C56.4898 36.4227 56.488 36.4123 56.4843 36.4025C56.4805 36.3928 56.4748 36.3839 56.4674 36.3764C56.4606 36.3688 56.4521 36.3627 56.4427 36.3585C56.4333 36.3544 56.423 36.3523 56.4127 36.3525H55.5703C55.549 36.353 55.5287 36.3617 55.5136 36.3767C55.4986 36.3917 55.4899 36.4119 55.4893 36.4331V37.1918C55.4907 37.2025 55.4897 37.2133 55.4863 37.2235C55.4828 37.2337 55.477 37.2429 55.4694 37.2505C55.4618 37.2581 55.4525 37.2638 55.4423 37.2673C55.4321 37.2707 55.4212 37.2717 55.4105 37.2703H54.8241C54.8132 37.2721 54.8021 37.2714 54.7916 37.2681C54.7811 37.2648 54.7715 37.2592 54.7636 37.2515C54.7557 37.2439 54.7498 37.2345 54.7462 37.2241C54.7426 37.2137 54.7416 37.2027 54.7431 37.1918V34.7936C54.7432 34.7279 54.7558 34.6628 54.7803 34.6018C54.8049 34.5427 54.8414 34.4892 54.8875 34.4448C54.9337 34.4007 54.987 34.3646 55.0451 34.338C55.1067 34.3118 55.1729 34.2985 55.2398 34.2987H56.7432ZM56.4806 35.7093V34.9637H55.4805V35.7093H56.4806Z" fill="white"/>
<path d="M58.6685 35.0399C58.661 35.0468 58.6553 35.0553 58.6515 35.0647C58.6477 35.0741 58.646 35.0843 58.6466 35.0944V36.4657C58.646 36.4762 58.6476 36.4866 58.6514 36.4964C58.6552 36.5062 58.661 36.515 58.6685 36.5224C58.6851 36.5359 58.7061 36.5429 58.7275 36.542H60.0908C60.1121 36.5426 60.1324 36.5512 60.1474 36.5663C60.1625 36.5813 60.1712 36.6015 60.1718 36.6227V37.183C60.1718 37.1936 60.1697 37.204 60.1655 37.2138C60.1614 37.2235 60.1553 37.2323 60.1477 37.2397C60.1402 37.247 60.1313 37.2527 60.1215 37.2565C60.1117 37.2602 60.1013 37.2619 60.0908 37.2615H58.3949C58.3289 37.2625 58.2633 37.2499 58.2024 37.2244C58.1427 37.1994 58.0884 37.1631 58.0426 37.1176C57.9969 37.0728 57.9605 37.0194 57.9354 36.9606C57.9109 36.8988 57.8983 36.833 57.8982 36.7666V34.8044C57.8983 34.7387 57.9109 34.6736 57.9354 34.6126C57.96 34.5535 57.9965 34.5 58.0426 34.4556C58.0896 34.4114 58.1435 34.3753 58.2024 34.3488C58.2632 34.3226 58.3287 34.3093 58.3949 34.3095H60.0908C60.1015 34.3091 60.1121 34.311 60.122 34.3151C60.1318 34.3193 60.1406 34.3256 60.1477 34.3335C60.1554 34.3408 60.1616 34.3496 60.1657 34.3593C60.1699 34.3691 60.1719 34.3796 60.1718 34.3902V34.9483C60.1712 34.9695 60.1625 34.9897 60.1474 35.0047C60.1324 35.0197 60.1121 35.0284 60.0908 35.029H58.7275C58.7072 35.0247 58.6859 35.0286 58.6685 35.0399Z" fill="white"/>
<path d="M62.5419 35.5479C62.54 35.5497 62.5385 35.5519 62.5374 35.5543C62.5364 35.5568 62.5358 35.5594 62.5358 35.5621C62.5358 35.5647 62.5364 35.5673 62.5374 35.5698C62.5385 35.5722 62.54 35.5744 62.5419 35.5762L63.5354 37.1939C63.54 37.2015 63.5425 37.2101 63.5425 37.219C63.5425 37.2278 63.54 37.2365 63.5354 37.2441C63.5298 37.2506 63.5227 37.2557 63.5147 37.2588C63.5066 37.2618 63.4979 37.2628 63.4894 37.2615H62.7848C62.7605 37.2622 62.7364 37.2563 62.7152 37.2444C62.6939 37.2325 62.6764 37.215 62.6644 37.1939L62.0233 36.0384C62.0233 36.0253 62.008 36.0232 62.0014 36.0384L61.6491 36.4243C61.6323 36.4416 61.6196 36.4625 61.6119 36.4854C61.6037 36.5092 61.5992 36.5342 61.5988 36.5595V37.1874C61.5999 37.1981 61.5985 37.209 61.5948 37.2192C61.591 37.2293 61.5851 37.2385 61.5773 37.2461C61.5695 37.2536 61.5601 37.2593 61.5498 37.2627C61.5395 37.2662 61.5286 37.2672 61.5178 37.2659H60.9314C60.9205 37.2677 60.9094 37.2669 60.8989 37.2637C60.8884 37.2604 60.8788 37.2547 60.8709 37.2471C60.863 37.2394 60.8571 37.23 60.8535 37.2197C60.8499 37.2093 60.8489 37.1982 60.8504 37.1874V34.3793C60.8485 34.3683 60.8492 34.357 60.8526 34.3463C60.856 34.3356 60.8619 34.3259 60.8699 34.318C60.8778 34.3101 60.8875 34.3042 60.8982 34.3009C60.9089 34.2975 60.9203 34.2967 60.9314 34.2986H61.5134C61.5244 34.2972 61.5356 34.2983 61.546 34.3019C61.5565 34.3054 61.566 34.3113 61.5739 34.3191C61.5817 34.3269 61.5876 34.3364 61.5912 34.3468C61.5947 34.3573 61.5958 34.3684 61.5944 34.3793V35.6373L62.6885 34.3575C62.7041 34.3386 62.7245 34.3243 62.7476 34.3161C62.7699 34.3046 62.7947 34.2986 62.8198 34.2986H63.5244C63.5485 34.2986 63.5616 34.2986 63.566 34.3161C63.5704 34.3335 63.566 34.3401 63.5507 34.3575L62.5419 35.5479Z" fill="white"/>
<path d="M64.8329 37.183C64.834 37.1938 64.8326 37.2046 64.8289 37.2148C64.8252 37.225 64.8192 37.2342 64.8114 37.2417C64.8036 37.2492 64.7942 37.2549 64.7839 37.2584C64.7737 37.2618 64.7627 37.2629 64.7519 37.2615H64.1655C64.1546 37.2633 64.1435 37.2626 64.133 37.2593C64.1225 37.256 64.1129 37.2504 64.105 37.2427C64.0972 37.2351 64.0912 37.2257 64.0876 37.2153C64.0841 37.2049 64.083 37.1939 64.0845 37.183V34.3793C64.0826 34.3683 64.0834 34.357 64.0868 34.3463C64.0902 34.3356 64.0961 34.3259 64.104 34.318C64.1119 34.3101 64.1217 34.3042 64.1324 34.3009C64.1431 34.2975 64.1544 34.2967 64.1655 34.2986H64.7519C64.7629 34.2972 64.7741 34.2983 64.7845 34.3019C64.795 34.3054 64.8045 34.3113 64.8124 34.3191C64.8202 34.3269 64.8261 34.3364 64.8297 34.3468C64.8332 34.3573 64.8343 34.3684 64.8329 34.3793V37.183Z" fill="white"/>
<path d="M67.6952 34.3379C67.7537 34.3639 67.807 34.4001 67.8528 34.4447C67.8976 34.4898 67.9332 34.5431 67.9578 34.6017C67.9847 34.6621 67.9989 34.7274 67.9994 34.7935V37.1917C67.9994 37.2023 67.9973 37.2128 67.9932 37.2225C67.989 37.2323 67.983 37.2411 67.9753 37.2484C67.9678 37.2557 67.9589 37.2615 67.9491 37.2652C67.9394 37.269 67.9289 37.2707 67.9184 37.2702H67.3276C67.3174 37.2711 67.3072 37.2696 67.2977 37.2658C67.2882 37.262 67.2797 37.2561 67.2729 37.2484C67.2655 37.241 67.2598 37.2321 67.256 37.2223C67.2523 37.2126 67.2506 37.2022 67.251 37.1917V35.1009C67.2511 35.0907 67.2491 35.0805 67.2449 35.0711C67.2408 35.0617 67.2346 35.0533 67.2269 35.0464C67.2195 35.0391 67.2106 35.0334 67.2008 35.0297C67.191 35.0259 67.1805 35.0242 67.17 35.0246H66.3276C66.3171 35.0242 66.3066 35.0259 66.2969 35.0297C66.2871 35.0334 66.2782 35.0391 66.2707 35.0464C66.2633 35.0534 66.2575 35.0619 66.2537 35.0713C66.2499 35.0807 66.2483 35.0908 66.2488 35.1009V37.1896C66.2499 37.2003 66.2485 37.2112 66.2448 37.2213C66.2411 37.2315 66.2351 37.2407 66.2273 37.2482C66.2195 37.2558 66.2101 37.2615 66.1998 37.2649C66.1895 37.2683 66.1786 37.2694 66.1678 37.268H65.5814C65.5705 37.2699 65.5594 37.2691 65.5489 37.2658C65.5384 37.2626 65.5288 37.2569 65.5209 37.2492C65.5131 37.2416 65.5071 37.2322 65.5035 37.2218C65.5 37.2115 65.4989 37.2004 65.5004 37.1896V34.3793C65.4985 34.3683 65.4993 34.357 65.5027 34.3463C65.506 34.3356 65.512 34.3259 65.5199 34.318C65.5278 34.3101 65.5376 34.3042 65.5483 34.3009C65.559 34.2975 65.5703 34.2967 65.5814 34.2986H67.5005C67.5674 34.2984 67.6337 34.3117 67.6952 34.3379Z" fill="white"/>
<path d="M71.1414 35.6678C71.149 35.6751 71.1551 35.6839 71.1592 35.6937C71.1634 35.7034 71.1655 35.7139 71.1655 35.7245V36.7666C71.165 36.8334 71.1508 36.8994 71.1239 36.9606C71.0988 37.0189 71.0632 37.0721 71.0189 37.1176C70.9742 37.1636 70.9206 37.1999 70.8613 37.2244C70.7996 37.2499 70.7333 37.2625 70.6665 37.2615H69.1632C69.0977 37.2621 69.0328 37.2497 68.9721 37.225C68.9115 37.2004 68.8563 37.164 68.8099 37.118C68.7635 37.0719 68.7267 37.0171 68.7017 36.9568C68.6767 36.8965 68.664 36.8318 68.6643 36.7666V34.8044C68.6641 34.7384 68.6775 34.6731 68.7037 34.6126C68.7283 34.5535 68.7648 34.5 68.8109 34.4556C68.8571 34.4115 68.9103 34.3754 68.9685 34.3488C69.03 34.3226 69.0963 34.3093 69.1632 34.3095H70.9138C70.9245 34.3091 70.9351 34.311 70.945 34.3151C70.9548 34.3193 70.9636 34.3256 70.9707 34.3335C70.9785 34.3408 70.9846 34.3496 70.9887 34.3593C70.9929 34.3691 70.9949 34.3796 70.9948 34.3902V34.9483C70.9942 34.9695 70.9855 34.9897 70.9705 35.0047C70.9554 35.0197 70.9351 35.0284 70.9138 35.029H69.4893C69.4788 35.0285 69.4684 35.0302 69.4586 35.034C69.4488 35.0377 69.4399 35.0435 69.4324 35.0508C69.4247 35.0576 69.4186 35.066 69.4144 35.0754C69.4103 35.0848 69.4082 35.095 69.4083 35.1053V36.4766C69.4082 36.4872 69.4102 36.4977 69.4144 36.5075C69.4185 36.5172 69.4246 36.526 69.4324 36.5333C69.4483 36.5465 69.4686 36.5535 69.4893 36.5529H70.3317C70.3519 36.5538 70.3715 36.5468 70.3865 36.5333C70.3939 36.5259 70.3997 36.5171 70.4035 36.5073C70.4073 36.4975 70.4089 36.4871 70.4083 36.4766V35.7354C70.4079 35.7249 70.4096 35.7145 70.4134 35.7047C70.4171 35.695 70.4229 35.6861 70.4302 35.6787C70.4461 35.6634 70.4672 35.6548 70.4893 35.6547H71.0801C71.0907 35.6526 71.1016 35.6526 71.1121 35.6549C71.1227 35.6571 71.1326 35.6615 71.1414 35.6678Z" fill="white"/>
<path d="M32.7625 13.8922C33.1325 14.0519 33.4693 14.2789 33.7559 14.5615C34.04 14.8458 34.2679 15.1808 34.4277 15.5491C34.5984 15.9312 34.6857 16.3452 34.6837 16.7635V32.3147C34.6853 32.3817 34.6728 32.4482 34.6472 32.5101C34.6216 32.572 34.5834 32.628 34.5349 32.6744C34.4881 32.7224 34.4319 32.7603 34.3698 32.7858C34.3077 32.8113 34.241 32.8238 34.1739 32.8227H30.4407C30.3754 32.8246 30.3105 32.8123 30.2504 32.7867C30.1903 32.7611 30.1366 32.7228 30.0928 32.6744C30.0026 32.5766 29.9547 32.4474 29.9593 32.3147V18.1784H26.9396V32.3147C26.9434 32.4477 26.8946 32.5769 26.8039 32.6744C26.7601 32.7228 26.7064 32.7611 26.6463 32.7867C26.5862 32.8123 26.5213 32.8246 26.456 32.8227H23.0795C23.012 32.8239 22.945 32.8113 22.8826 32.7858C22.8201 32.7603 22.7635 32.7224 22.7163 32.6744C22.6681 32.6279 22.6302 32.5719 22.605 32.5099C22.5797 32.448 22.5677 32.3815 22.5696 32.3147V18.1784H19.5608V32.3147C19.5703 32.3827 19.564 32.4519 19.5425 32.5171C19.5209 32.5823 19.4847 32.6417 19.4365 32.6907C19.3883 32.7398 19.3295 32.7772 19.2646 32.8001C19.1996 32.8229 19.1303 32.8307 19.0619 32.8227H15.3419C15.2726 32.8325 15.202 32.8262 15.1357 32.8041C15.0693 32.7821 15.009 32.7449 14.9595 32.6956C14.9101 32.6464 14.8728 32.5863 14.8507 32.5202C14.8285 32.4541 14.8222 32.3837 14.832 32.3147V14.1472C14.8222 14.0782 14.8285 14.0079 14.8507 13.9418C14.8728 13.8757 14.9101 13.8156 14.9595 13.7663C15.009 13.717 15.0693 13.6799 15.1357 13.6578C15.202 13.6358 15.2726 13.6294 15.3419 13.6393H31.5349C31.9573 13.6369 32.3756 13.723 32.7625 13.8922Z" fill="white"/>
<path d="M32.7628 13.8922C33.1328 14.0519 33.4697 14.2788 33.7562 14.5615C34.0404 14.8458 34.2683 15.1808 34.428 15.5491C34.5988 15.9312 34.686 16.3452 34.6841 16.7635V18.1501L29.9575 18.1784H19.5611L14.8345 18.1501V14.1472C14.8248 14.0784 14.8311 14.0083 14.8531 13.9424C14.8751 13.8765 14.9122 13.8165 14.9614 13.7673C15.0106 13.7181 15.0706 13.6809 15.1367 13.6587C15.2028 13.6364 15.2731 13.6298 15.3422 13.6393H31.5352C31.9577 13.6369 32.3759 13.723 32.7628 13.8922Z" fill="white"/>
<path d="M50.9627 28.1658C51.0316 28.163 51.1002 28.175 51.164 28.201C51.2278 28.2269 51.2853 28.2662 51.3325 28.3162C51.3797 28.3655 51.4165 28.4237 51.4409 28.4873C51.4653 28.5509 51.4768 28.6188 51.4747 28.6869V32.3038C51.4768 32.3719 51.4653 32.4397 51.4409 32.5033C51.4165 32.5669 51.3797 32.6251 51.3325 32.6744C51.2853 32.7244 51.2278 32.7637 51.164 32.7896C51.1002 32.8156 51.0316 32.8276 50.9627 32.8248H38.1768C38.1048 32.8362 38.0311 32.8307 37.9615 32.8089C37.8919 32.787 37.8284 32.7493 37.776 32.6987C37.7236 32.6482 37.6837 32.5862 37.6594 32.5177C37.6352 32.4491 37.6273 32.3759 37.6363 32.3038V14.1712C37.6273 14.0991 37.6352 14.0258 37.6594 13.9573C37.6837 13.8888 37.7236 13.8268 37.776 13.7762C37.8284 13.7257 37.8919 13.688 37.9615 13.6661C38.0311 13.6442 38.1048 13.6387 38.1768 13.6501H42.1025C42.1746 13.6387 42.2483 13.6442 42.3178 13.6661C42.3874 13.688 42.4509 13.7257 42.5033 13.7762C42.5557 13.8268 42.5957 13.8888 42.6199 13.9573C42.6441 14.0258 42.6521 14.0991 42.643 14.1712V27.6883C42.6407 27.7559 42.6537 27.8231 42.681 27.885C42.7082 27.9468 42.7491 28.0018 42.8006 28.0459C42.9062 28.1383 43.043 28.1873 43.1835 28.1832L50.9627 28.1658Z" fill="white"/>
<path d="M42.6014 32.8248H38.1746C38.1027 32.8358 38.0292 32.8301 37.96 32.808C37.8907 32.786 37.8275 32.7482 37.7753 32.6977C37.7232 32.6472 37.6835 32.5854 37.6593 32.517C37.6352 32.4487 37.6273 32.3757 37.6363 32.3038V14.1712C37.6273 14.0993 37.6352 14.0263 37.6593 13.9579C37.6835 13.8896 37.7232 13.8277 37.7753 13.7772C37.8275 13.7267 37.8907 13.689 37.96 13.6669C38.0292 13.6449 38.1027 13.6391 38.1746 13.6501H42.0915C42.1636 13.6387 42.2373 13.6442 42.3069 13.6661C42.3764 13.688 42.4399 13.7257 42.4923 13.7762C42.5448 13.8268 42.5847 13.8888 42.6089 13.9573C42.6332 14.0258 42.6411 14.0991 42.632 14.1712V27.6883C42.632 27.8191 42.6014 32.8248 42.6014 32.8248Z" fill="white"/>
<path d="M70.6179 13.6392C70.6893 13.6374 70.7603 13.6498 70.8267 13.6757C70.8932 13.7015 70.9539 13.7402 71.0052 13.7896C71.0562 13.8374 71.0965 13.8952 71.1236 13.9594C71.1508 14.0236 71.1641 14.0928 71.1628 14.1624V32.3561C71.1643 32.4254 71.1511 32.4943 71.1239 32.5582C71.0968 32.6221 71.0563 32.6795 71.0052 32.7267C70.9543 32.7768 70.8938 32.8161 70.8272 32.8424C70.7607 32.8686 70.6895 32.8812 70.6179 32.8793H66.6419C66.5703 32.8812 66.4992 32.8686 66.4326 32.8424C66.3661 32.8161 66.3055 32.7768 66.2546 32.7267C66.2035 32.6795 66.163 32.6221 66.1359 32.5582C66.1087 32.4943 66.0955 32.4254 66.097 32.3561V26.0074C66.0994 25.9412 66.0879 25.8753 66.0635 25.8138C66.039 25.7522 66.002 25.6964 65.9548 25.6498C65.854 25.5567 65.7202 25.5073 65.5828 25.5125H60.0028C59.8616 25.508 59.7239 25.5571 59.6176 25.6498C59.5663 25.694 59.5255 25.749 59.4983 25.8108C59.471 25.8727 59.458 25.9399 59.4601 26.0074V32.3561C59.4601 32.7049 59.2785 32.8793 58.9152 32.8793H54.9764C54.6131 32.8793 54.4315 32.7049 54.4315 32.3561V14.1712C54.4315 13.8223 54.6131 13.6479 54.9764 13.6479H58.9152C59.2785 13.6479 59.4601 13.8223 59.4601 14.1712V20.3171C59.4506 20.3896 59.4582 20.4633 59.4824 20.5323C59.5066 20.6014 59.5467 20.6638 59.5994 20.7146C59.6522 20.7655 59.7161 20.8033 59.7861 20.8252C59.8562 20.847 59.9304 20.8522 60.0028 20.8403H65.5828C65.6519 20.8427 65.7208 20.8305 65.7849 20.8046C65.849 20.7787 65.9069 20.7396 65.9548 20.6899C66.0495 20.5891 66.1006 20.4552 66.097 20.3171V14.1712C66.0957 14.1015 66.1091 14.0324 66.1362 13.9682C66.1633 13.9039 66.2037 13.8461 66.2546 13.7984C66.3059 13.749 66.3666 13.7102 66.4331 13.6844C66.4996 13.6586 66.5705 13.6462 66.6419 13.6479L70.6179 13.6392Z" fill="white"/>
<path d="M59.4601 26.0075V32.3562C59.4601 32.7051 59.2785 32.8795 58.9152 32.8795H54.9764C54.6131 32.8795 54.4315 32.7051 54.4315 32.3562V14.1713C54.4315 13.8225 54.6131 13.6481 54.9764 13.6481H58.9152C59.2785 13.6481 59.4601 13.8225 59.4601 14.1713V26.0163V26.0075Z" fill="white"/>
<path d="M70.6164 13.6392C70.6877 13.6374 70.7587 13.6498 70.8252 13.6757C70.8917 13.7015 70.9524 13.7402 71.0037 13.7896C71.0546 13.8374 71.0949 13.8952 71.1221 13.9594C71.1492 14.0236 71.1625 14.0928 71.1612 14.1624V32.3561C71.1628 32.4254 71.1495 32.4943 71.1224 32.5582C71.0952 32.6221 71.0548 32.6795 71.0037 32.7267C70.9527 32.7768 70.8922 32.8161 70.8256 32.8424C70.7591 32.8686 70.6879 32.8812 70.6164 32.8793H66.6403C66.5688 32.8812 66.4976 32.8686 66.431 32.8424C66.3645 32.8161 66.3039 32.7768 66.253 32.7267C66.2019 32.6795 66.1615 32.6221 66.1343 32.5582C66.1072 32.4943 66.0939 32.4254 66.0955 32.3561V14.1712C66.0942 14.1015 66.1075 14.0324 66.1346 13.9682C66.1618 13.9039 66.2021 13.8461 66.253 13.7984C66.3043 13.749 66.365 13.7102 66.4315 13.6844C66.498 13.6586 66.569 13.6462 66.6403 13.6479L70.6164 13.6392Z" fill="white"/>
<path d="M18.2517 106.356V108.573C18.2622 108.68 18.3137 108.778 18.3953 108.847C18.4768 108.917 18.5822 108.952 18.6893 108.946H27.0725C27.1332 108.944 27.1937 108.955 27.2496 108.979C27.3056 109.003 27.3556 109.038 27.3963 109.083C27.4797 109.175 27.5243 109.295 27.5211 109.419V112.426C27.5243 112.549 27.4797 112.669 27.3963 112.761C27.3556 112.806 27.3056 112.842 27.2496 112.866C27.1937 112.889 27.1332 112.901 27.0725 112.899H14.8096C14.7451 112.908 14.6794 112.902 14.6176 112.881C14.5558 112.861 14.4997 112.826 14.4537 112.78C14.4076 112.734 14.3729 112.678 14.3522 112.617C14.3316 112.555 14.3256 112.49 14.3347 112.426V105.303C14.3293 104.919 14.4038 104.538 14.5536 104.184C14.6996 103.84 14.9114 103.528 15.1772 103.264C15.4441 102.997 15.7618 102.786 16.1116 102.643C16.4719 102.496 16.8579 102.422 17.2473 102.425H23.1555C23.218 102.426 23.2801 102.415 23.338 102.392C23.3959 102.369 23.4485 102.334 23.4925 102.29C23.5366 102.246 23.5714 102.193 23.5947 102.136C23.618 102.078 23.6294 102.016 23.6282 101.954V99.9396C23.6291 99.8775 23.6175 99.8159 23.594 99.7583C23.5706 99.7008 23.5358 99.6485 23.4917 99.6046C23.4477 99.5607 23.3952 99.5261 23.3375 99.5027C23.2797 99.4794 23.2178 99.4678 23.1555 99.4687H15.3413C15.2829 99.4687 15.2251 99.4571 15.1713 99.4345C15.1175 99.4119 15.0687 99.3788 15.0279 99.3371C14.9871 99.2955 14.9551 99.2461 14.9338 99.1919C14.9125 99.1378 14.9022 99.0799 14.9037 99.0217V95.9695C14.9007 95.8458 14.9453 95.7256 15.0284 95.6337C15.0676 95.5895 15.1157 95.554 15.1697 95.5295C15.2236 95.5051 15.2821 95.4923 15.3413 95.492H24.6457C25.0326 95.4892 25.4155 95.5695 25.7683 95.7275C26.1101 95.8793 26.4227 96.0896 26.6917 96.3488C26.9608 96.6096 27.1731 96.9228 27.3154 97.2689C27.4643 97.6274 27.5388 98.0124 27.5342 98.4004V99.0959C27.5515 99.1166 27.5601 99.1431 27.5583 99.17V105.521C27.5604 105.581 27.5491 105.642 27.5253 105.697C27.5015 105.753 27.4657 105.803 27.4204 105.844C27.3292 105.927 27.2092 105.971 27.0856 105.968H18.7003C18.5902 105.964 18.4829 106.002 18.3998 106.074C18.3166 106.146 18.2637 106.247 18.2517 106.356Z" fill="white"/>
<path d="M42.0381 95.492C42.429 95.4904 42.8159 95.5707 43.1738 95.7274C43.8688 96.0238 44.4222 96.5759 44.7187 97.2688C44.8772 97.6251 44.9585 98.0106 44.9572 98.4003V109.981C44.958 110.371 44.8767 110.757 44.7187 111.113C44.5685 111.458 44.3573 111.773 44.095 112.044C43.8341 112.312 43.5205 112.523 43.1738 112.665C42.8138 112.813 42.4275 112.887 42.0381 112.883H34.5281C33.753 112.885 33.0088 112.581 32.458 112.037C32.1873 111.766 31.9731 111.444 31.8278 111.09C31.6824 110.736 31.6088 110.357 31.6111 109.975V98.4025C31.6076 98.0146 31.682 97.6299 31.83 97.271C31.9739 96.9258 32.1859 96.6129 32.4536 96.351C32.7259 96.0896 33.0432 95.8792 33.3902 95.7296C33.7472 95.5726 34.1334 95.4924 34.5237 95.4941H42.0381V95.492ZM40.7252 99.7172H35.8519V108.656H40.7252V99.7172Z" fill="white"/>
<path d="M52.8762 106.356V108.573C52.8868 108.682 52.9398 108.781 53.0237 108.851C53.1077 108.921 53.2159 108.955 53.3248 108.946H61.708C61.7687 108.944 61.8292 108.955 61.8851 108.979C61.9411 109.003 61.9911 109.038 62.0318 109.083C62.1151 109.175 62.1598 109.295 62.1566 109.419V112.425C62.1598 112.549 62.1151 112.669 62.0318 112.761C61.9911 112.806 61.9411 112.842 61.8851 112.866C61.8292 112.889 61.7687 112.901 61.708 112.899H49.4341C49.3696 112.908 49.3039 112.902 49.2421 112.881C49.1804 112.861 49.1242 112.826 49.0782 112.78C49.0321 112.734 48.9974 112.678 48.9768 112.617C48.9562 112.555 48.9502 112.49 48.9593 112.425V105.303C48.9549 104.919 49.0294 104.538 49.1781 104.184C49.3242 103.84 49.536 103.528 49.8018 103.264C50.0687 102.997 50.3863 102.786 50.7361 102.643C51.0964 102.496 51.4825 102.422 51.8718 102.425H57.7801C57.8426 102.426 57.9047 102.415 57.9627 102.392C58.0207 102.368 58.0734 102.334 58.1177 102.29C58.162 102.246 58.197 102.194 58.2205 102.136C58.2441 102.078 58.2558 102.016 58.2549 101.954V99.9396C58.2562 99.8775 58.2446 99.8159 58.2209 99.7585C58.1972 99.7011 58.1618 99.6492 58.1171 99.606C58.0733 99.5613 58.0208 99.5261 57.9629 99.5025C57.9049 99.4788 57.8427 99.4673 57.7801 99.4687H49.9462C49.8869 99.4701 49.8279 99.4596 49.7727 99.4377C49.7176 99.4157 49.6676 99.3829 49.6256 99.3411C49.5837 99.2993 49.5507 99.2494 49.5287 99.1945C49.5067 99.1396 49.4961 99.0808 49.4976 99.0217V95.9695C49.4946 95.8458 49.5392 95.7256 49.6223 95.6337C49.6633 95.5892 49.7135 95.5541 49.7694 95.5308C49.8253 95.5075 49.8856 95.4965 49.9462 95.4985H59.2528C59.6395 95.4961 60.0223 95.5764 60.3753 95.734C60.7165 95.8859 61.0283 96.0962 61.2966 96.3553C61.5657 96.6161 61.778 96.9293 61.9202 97.2754C62.0692 97.634 62.1436 98.0189 62.139 98.4069V99.1024C62.1563 99.1231 62.165 99.1496 62.1631 99.1765V105.521C62.1652 105.581 62.1542 105.641 62.1307 105.697C62.1073 105.753 62.0721 105.803 62.0275 105.844C61.9352 105.926 61.8146 105.971 61.6905 105.968H53.3248C53.2148 105.964 53.1075 106.002 53.0243 106.074C52.9412 106.146 52.8883 106.247 52.8762 106.356Z" fill="white"/>
<path d="M71.6738 95.9651V112.419C71.6829 112.483 71.6769 112.549 71.6563 112.61C71.6357 112.672 71.6009 112.728 71.5549 112.774C71.5088 112.819 71.4527 112.854 71.3909 112.875C71.3292 112.895 71.2634 112.901 71.199 112.892H67.7569C67.6924 112.901 67.6268 112.895 67.5651 112.875C67.5034 112.854 67.4473 112.82 67.4014 112.774C67.3555 112.728 67.321 112.672 67.3007 112.61C67.2803 112.549 67.2747 112.483 67.2842 112.419V100.142C67.2842 100.075 67.247 100.046 67.1704 100.055C67.0724 100.074 66.9821 100.121 66.91 100.19L65.6868 101.136C65.5883 101.219 65.5008 101.239 65.4242 101.198C65.3834 101.168 65.3515 101.128 65.3318 101.082C65.3121 101.036 65.3055 100.986 65.3126 100.936V97.4542C65.3159 97.3105 65.3542 97.1699 65.4242 97.0443C65.4903 96.9173 65.5793 96.8035 65.6868 96.7085L66.91 95.7645C67.028 95.6723 67.1634 95.6048 67.3083 95.5661C67.4499 95.5207 67.5972 95.4958 67.7459 95.492H71.188C71.2534 95.4805 71.3206 95.4847 71.384 95.5042C71.4475 95.5237 71.5053 95.558 71.5528 95.6043C71.6003 95.6505 71.636 95.7074 71.6571 95.7701C71.6781 95.8329 71.6839 95.8997 71.6738 95.9651Z" fill="white"/>
<path d="M20.27 122.225C20.4742 122.306 20.6591 122.429 20.8126 122.585C20.9633 122.74 21.0855 122.92 21.1737 123.117C21.2654 123.323 21.3116 123.546 21.3094 123.771V126.477C21.3098 126.702 21.2636 126.924 21.1737 127.131C21.0859 127.328 20.9637 127.508 20.8126 127.663C20.661 127.819 20.4784 127.941 20.2765 128.023C20.0689 128.11 19.8455 128.155 19.62 128.153H13.8518C13.8144 128.159 13.7761 128.156 13.7401 128.144C13.7042 128.132 13.6715 128.112 13.6447 128.085C13.6179 128.058 13.5977 128.026 13.5858 127.99C13.5739 127.954 13.5706 127.916 13.5761 127.879V126.134C13.5753 126.098 13.5821 126.062 13.596 126.029C13.61 125.996 13.6308 125.965 13.6571 125.94C13.6823 125.914 13.7126 125.894 13.7461 125.88C13.7796 125.866 13.8156 125.859 13.8518 125.86H18.7623C18.8341 125.862 18.9039 125.836 18.957 125.788C18.9828 125.764 19.0033 125.736 19.0169 125.704C19.0305 125.672 19.0369 125.637 19.0358 125.603V124.408C19.0361 124.372 19.0292 124.336 19.0156 124.303C19.002 124.27 18.9819 124.239 18.9565 124.214C18.931 124.188 18.9008 124.168 18.8674 124.154C18.8341 124.14 18.7984 124.133 18.7623 124.133H15.2611C15.0387 124.135 14.8183 124.092 14.6124 124.008C14.4066 123.925 14.2195 123.801 14.0619 123.645C13.9075 123.493 13.7848 123.312 13.7009 123.113C13.6121 122.906 13.5674 122.683 13.5696 122.459V119.764C13.5683 119.539 13.6129 119.317 13.7009 119.11C13.7826 118.909 13.9056 118.727 14.0619 118.576C14.2191 118.425 14.4021 118.303 14.6024 118.216C14.8096 118.127 15.0331 118.081 15.2589 118.081H20.712C20.7491 118.076 20.7869 118.079 20.8224 118.091C20.8579 118.103 20.8901 118.123 20.9166 118.15C20.9431 118.176 20.9631 118.208 20.975 118.243C20.987 118.279 20.9906 118.316 20.9855 118.353V120.128C20.9867 120.163 20.9802 120.198 20.9666 120.23C20.953 120.263 20.9326 120.292 20.9067 120.316C20.8536 120.364 20.7838 120.39 20.712 120.388H16.1035C16.0684 120.386 16.0333 120.393 16.0009 120.406C15.9684 120.42 15.9392 120.44 15.9154 120.466C15.867 120.519 15.8411 120.589 15.8431 120.66V121.826C15.8411 121.898 15.867 121.968 15.9154 122.02C15.9392 122.046 15.9684 122.067 16.0009 122.08C16.0333 122.094 16.0684 122.1 16.1035 122.099H19.6047C19.8328 122.095 20.0593 122.138 20.27 122.225Z" fill="white"/>
<path d="M30.9567 118.166C30.9827 118.191 31.0033 118.221 31.0173 118.255C31.0312 118.288 31.0381 118.324 31.0377 118.36V120.174C31.0384 120.209 31.0316 120.244 31.0176 120.276C31.0037 120.309 30.9829 120.338 30.9567 120.361C30.9036 120.41 30.8338 120.435 30.762 120.433H25.9238C25.914 120.432 25.9039 120.433 25.8945 120.436C25.885 120.439 25.8765 120.444 25.8694 120.451C25.8624 120.458 25.8571 120.467 25.854 120.476C25.8509 120.486 25.8501 120.496 25.8516 120.505V122.073C25.8516 122.112 25.8756 122.13 25.9238 122.13H30.0552C30.0905 122.129 30.1256 122.136 30.1581 122.15C30.1905 122.163 30.2196 122.184 30.2434 122.21C30.2917 122.263 30.3176 122.333 30.3156 122.404V123.834C30.3176 123.906 30.2917 123.976 30.2434 124.029C30.2195 124.054 30.1903 124.075 30.1579 124.088C30.1254 124.102 30.0904 124.108 30.0552 124.107H25.9238C25.914 124.106 25.9039 124.106 25.8945 124.109C25.885 124.113 25.8765 124.118 25.8694 124.125C25.8624 124.132 25.8571 124.14 25.854 124.15C25.8509 124.159 25.8501 124.169 25.8516 124.179V125.733C25.8501 125.743 25.8509 125.753 25.854 125.763C25.8571 125.772 25.8624 125.781 25.8694 125.788C25.8765 125.795 25.885 125.8 25.8945 125.803C25.9039 125.806 25.914 125.807 25.9238 125.805H30.762C30.7981 125.805 30.834 125.811 30.8675 125.825C30.901 125.838 30.9314 125.858 30.9567 125.884C30.9825 125.909 31.003 125.939 31.0169 125.973C31.0308 126.006 31.0379 126.042 31.0377 126.078V127.877C31.0383 127.913 31.0314 127.949 31.0174 127.982C31.0035 128.015 30.9829 128.045 30.9567 128.071C30.9317 128.097 30.9015 128.118 30.8679 128.131C30.8344 128.145 30.7983 128.152 30.762 128.151H23.5846C23.5472 128.156 23.5092 128.153 23.4735 128.141C23.4379 128.129 23.4055 128.109 23.3789 128.082C23.3524 128.055 23.3325 128.023 23.3207 127.987C23.3089 127.952 23.3056 127.914 23.311 127.877V118.353C23.3104 118.318 23.3171 118.282 23.3306 118.249C23.3442 118.215 23.3643 118.185 23.3898 118.159C23.4153 118.134 23.4457 118.114 23.4792 118.101C23.5126 118.087 23.5485 118.08 23.5846 118.081H30.762C30.7986 118.081 30.8348 118.089 30.8683 118.103C30.9018 118.118 30.9319 118.139 30.9567 118.166Z" fill="white"/>
<path d="M39.9334 118.081C40.1592 118.08 40.3828 118.126 40.5898 118.216C40.9942 118.386 41.3161 118.707 41.487 119.11C41.5773 119.316 41.6236 119.539 41.6227 119.764V127.879C41.6237 127.915 41.6172 127.951 41.6036 127.984C41.5901 128.017 41.5697 128.048 41.5439 128.073C41.5189 128.099 41.4886 128.12 41.4551 128.134C41.4216 128.147 41.3855 128.154 41.3492 128.153H39.3425C39.3062 128.154 39.2703 128.147 39.2367 128.133C39.2031 128.119 39.1726 128.099 39.1469 128.074C39.1213 128.048 39.101 128.018 39.0872 127.984C39.0735 127.951 39.0665 127.915 39.0668 127.879V125.304C39.0688 125.232 39.0429 125.163 38.9946 125.11C38.9707 125.084 38.9416 125.064 38.9091 125.05C38.8766 125.037 38.8416 125.03 38.8064 125.031H35.9486C35.9121 125.031 35.8759 125.037 35.8421 125.051C35.8083 125.064 35.7775 125.084 35.7516 125.11C35.7259 125.135 35.7057 125.165 35.6921 125.199C35.6786 125.232 35.672 125.268 35.6729 125.304V127.879C35.6783 127.916 35.675 127.954 35.6632 127.989C35.6514 128.025 35.6315 128.057 35.6049 128.084C35.5784 128.111 35.546 128.131 35.5103 128.143C35.4747 128.155 35.4366 128.159 35.3993 128.153H33.4058C33.3685 128.159 33.3305 128.155 33.2948 128.143C33.2591 128.131 33.2268 128.111 33.2002 128.084C33.1737 128.057 33.1537 128.025 33.142 127.989C33.1302 127.954 33.1269 127.916 33.1323 127.879V119.764C33.1302 119.54 33.1742 119.317 33.2614 119.11C33.344 118.909 33.4668 118.728 33.6225 118.576C33.78 118.425 33.963 118.303 34.163 118.216C34.3701 118.127 34.5936 118.081 34.8194 118.081H39.9334ZM39.0581 122.877V120.346H35.6729V122.88L39.0581 122.877Z" fill="white"/>
<path d="M50.3684 122.225C50.5696 122.307 50.7514 122.429 50.9023 122.585C51.0529 122.74 51.1751 122.92 51.2634 123.117C51.3561 123.323 51.4024 123.546 51.399 123.771V126.477C51.4006 126.702 51.3543 126.925 51.2634 127.131C51.1763 127.33 51.054 127.513 50.9023 127.669C50.7514 127.825 50.5696 127.948 50.3684 128.029C50.1606 128.116 49.9373 128.161 49.7119 128.16H43.9481C43.9108 128.165 43.8728 128.161 43.8371 128.149C43.8014 128.137 43.769 128.117 43.7425 128.091C43.7159 128.064 43.696 128.032 43.6842 127.996C43.6724 127.96 43.6691 127.922 43.6746 127.885V126.141C43.6743 126.105 43.6811 126.069 43.6947 126.036C43.7084 126.003 43.7285 125.972 43.7539 125.947C43.7793 125.921 43.8096 125.901 43.8429 125.887C43.8762 125.873 43.912 125.866 43.9481 125.866H48.8585C48.9303 125.868 49.0001 125.843 49.0532 125.794C49.0791 125.771 49.0995 125.742 49.1131 125.71C49.1267 125.678 49.1332 125.644 49.132 125.609V124.414C49.1323 124.378 49.1255 124.343 49.1118 124.309C49.0982 124.276 49.0781 124.246 49.0527 124.22C49.0273 124.195 48.997 124.174 48.9637 124.161C48.9304 124.147 48.8946 124.14 48.8585 124.14H45.3573C45.132 124.141 44.9088 124.097 44.7008 124.011C44.4991 123.927 44.3155 123.805 44.1603 123.651C44.006 123.499 43.8833 123.319 43.7993 123.119C43.7112 122.913 43.6672 122.69 43.6702 122.465V119.764C43.6681 119.54 43.712 119.317 43.7993 119.11C43.8811 118.909 44.004 118.727 44.1603 118.576C44.3179 118.425 44.5008 118.303 44.7008 118.216C44.908 118.127 45.1315 118.081 45.3573 118.081H50.8017C50.8388 118.076 50.8765 118.079 50.912 118.091C50.9475 118.103 50.9798 118.123 51.0063 118.15C51.0328 118.176 51.0528 118.208 51.0647 118.243C51.0767 118.279 51.0803 118.316 51.0752 118.353V120.128C51.0763 120.163 51.0699 120.198 51.0563 120.23C51.0427 120.263 51.0223 120.292 50.9964 120.316C50.9433 120.364 50.8735 120.39 50.8017 120.388H46.1954C46.1602 120.386 46.1251 120.392 46.0926 120.406C46.06 120.419 46.0309 120.44 46.0072 120.466C45.9589 120.519 45.933 120.589 45.935 120.66V121.826C45.933 121.898 45.9589 121.968 46.0072 122.02C46.0309 122.047 46.06 122.067 46.0926 122.081C46.1251 122.094 46.1602 122.1 46.1954 122.099H49.6966C49.9269 122.095 50.1555 122.138 50.3684 122.225Z" fill="white"/>
<path d="M60.1812 118.081C60.407 118.081 60.6305 118.127 60.8377 118.216C61.2409 118.387 61.5617 118.708 61.7327 119.11C61.8247 119.316 61.8717 119.539 61.8705 119.764V126.47C61.8713 126.696 61.8243 126.918 61.7327 127.124C61.6456 127.324 61.5233 127.506 61.3716 127.663C61.2207 127.819 61.0389 127.941 60.8377 128.023C60.6299 128.11 60.4066 128.154 60.1812 128.153H55.0695C54.844 128.155 54.6206 128.11 54.413 128.023C54.2097 127.94 54.0252 127.818 53.8703 127.663C53.7158 127.509 53.5931 127.326 53.5092 127.124C53.4235 126.917 53.3796 126.695 53.3801 126.47V119.764C53.3792 119.54 53.423 119.317 53.5092 119.11C53.5926 118.91 53.7154 118.728 53.8703 118.576C54.0286 118.425 54.2123 118.303 54.413 118.216C54.62 118.126 54.8436 118.08 55.0695 118.081H60.1812ZM59.3059 120.527H55.9207V125.707H59.3256L59.3059 120.527Z" fill="white"/>
<path d="M72.3625 118.166C72.3888 118.191 72.4096 118.221 72.4236 118.254C72.4375 118.288 72.4443 118.324 72.4435 118.36V127.885C72.4446 127.921 72.4379 127.957 72.424 127.991C72.41 128.024 72.3891 128.054 72.3625 128.079C72.3375 128.105 72.3072 128.126 72.2737 128.14C72.2402 128.154 72.2041 128.161 72.1678 128.16H70.0889C70.0072 128.158 69.9273 128.136 69.857 128.094C69.7854 128.056 69.7257 127.999 69.6841 127.929L66.4936 122.058V127.885C66.4992 127.923 66.4958 127.961 66.4839 127.996C66.472 128.032 66.4519 128.065 66.4251 128.092C66.3983 128.118 66.3656 128.138 66.3296 128.15C66.2937 128.162 66.2554 128.165 66.2179 128.16H64.2244C64.1871 128.165 64.1491 128.161 64.1134 128.149C64.0777 128.137 64.0454 128.117 64.0188 128.091C63.9923 128.064 63.9723 128.032 63.9606 127.996C63.9488 127.96 63.9455 127.922 63.9509 127.885V118.353C63.9458 118.316 63.9494 118.279 63.9614 118.243C63.9733 118.208 63.9933 118.176 64.0198 118.15C64.0463 118.123 64.0786 118.103 64.1141 118.091C64.1495 118.079 64.1873 118.076 64.2244 118.081H66.277C66.3577 118.082 66.4368 118.104 66.5068 118.144C66.5783 118.183 66.638 118.24 66.6796 118.31L69.8876 124.196V118.353C69.887 118.317 69.8937 118.282 69.9072 118.248C69.9208 118.215 69.9409 118.185 69.9664 118.159C69.9919 118.134 70.0223 118.114 70.0558 118.1C70.0892 118.087 70.125 118.08 70.1611 118.081H72.1678C72.2043 118.081 72.2406 118.088 72.2741 118.103C72.3076 118.118 72.3377 118.139 72.3625 118.166Z" fill="white"/>
</svg>
