<svg id="Layer_1" data-name="Layer 1" xmlns="http://www.w3.org/2000/svg" viewBox="0 0 1875.52 838.47"><defs><style>.cls-1{fill:#003046;}</style></defs><title>peacock-logo</title><path class="cls-1" d="M446.39,71.93c4.78,1.85,10,3,14.28,5.69C471.3,84.18,476.2,94.84,479,106.47c4.36,17.92,3.91,36.07,2.48,54.32-2.25,28.68-8.87,56.33-18.57,83.31-8.86,24.62-20.44,47.84-36.16,69.25,2.29,3,4.37,6.26,7,9,10.21,10.55,18.2,9,27.67.48,10.88-9.77,17.75-22.47,24.72-35,7.53-13.53,14.58-27.33,22.14-40.85,5-9,6-12.2,19.05-9.84,14.38,2.61,27.48,7.91,38.26,18.26a54.63,54.63,0,0,1,16.79,34.16c1.68,14.81-.5,29.1-9.19,41.69-11.26,16.32-27.09,24.46-46.78,25-8,.22-16.07.55-23.51-3.77-7.17-4.16-8.48-12.37-4.26-17.93,1.71-2.24,5.69-3.32,8.81-3.77,3.64-.52,7.48.1,11.21.44,14,1.25,28.24-3.69,34.6-17.56,3.4-7.42,3.61-15.08,1.6-23.15-3.71-14.89-14.25-22-28.08-26.43-.88,1.75-1.75,3.4-2.55,5.1-10.61,22.3-21.61,44.42-37.35,63.65-8.8,10.76-18.95,20-33.75,22-13.05,1.77-25,0-34.91-9.47A108.53,108.53,0,0,1,410,336.6c-1.8-2.17-3-1.28-4.78-.08-7.11,4.76-13.93,10.25-21.62,13.79-13.86,6.38-28.33,7.36-42.88,1.34-8.33-3.45-14.06-9.42-18.13-17.21a67.59,67.59,0,0,1-7.46-28.53c-.56-12.36-.81-24.73-1.16-37.1,0-1.86.22-3.59-2.6-3.73-8.92-.44-17.83-1.09-27-1.68-1.05,6.68-1.9,13.18-3.11,19.62-3.31,17.56-8.55,34.44-18.92,49.27-8.66,12.39-19.89,20.88-35.43,22.88-16,2.07-29.29-5.23-35.79-20.06-4.31-9.82-5.62-20.17-5.57-30.77a54.63,54.63,0,0,0-.79-11.21c-1.28,1.91-2.66,3.75-3.8,5.73-15,26-33,50-50.72,74.11a12.89,12.89,0,0,0-2.36,6.95c-.33,16.86-.31,33.73-.51,50.6-.19,16.07-.29,32.15-.82,48.22-.5,15.05-2.24,30-7.35,44.29-4.13,11.53-10.17,21.64-21.29,27.73-9,4.94-18.78,6.31-28.95,5.51s-19.21-4.47-26.07-12a46,46,0,0,1-11.43-24.9c-.69-4.88-1.93-9.81-1.69-14.65a152,152,0,0,1,2.89-22.47c3.78-18.69,12.33-35.47,22.4-51.39,7.43-11.74,15.69-22.95,23.82-34.22,6.4-8.87,12.86-17.72,19.9-26.07,2.91-3.45,3.32-6.88,3.29-10.84s0-8,0-12.54c-4,1.74-7.4,3.59-11.06,4.82-15.51,5.23-30.78,5.16-45.53-2.71-12.26-6.54-20-16.77-24.24-29.85-2.78-8.45-3.44-17.1-3.06-25.91.71-16.73,7-31,19.1-42.55C48.83,239.88,63,235.61,78.79,236.77a45.21,45.21,0,0,1,23.64,8.38c3.34-2.87,5.93-6.62,9.39-7.78,9.33-3.13,17.25,3.43,17.33,13.75s-.14,20.5-.2,30.75c0,1.28.19,2.56.29,3.84q-.24,10-.49,19.91v27.84c4.95-6.8,9.55-13,14-19.27a688.86,688.86,0,0,0,42-67.39c2.1-3.82,3.86-8.23,8.59-9.55,8.34-2.33,15.63,1,16,12.9s0,23.88.25,35.81c.22,9.43.86,18.85,1.57,28.25a24,24,0,0,0,2.06,7.29c3.88,9.16,11.7,10.9,19.25,4.42,7.88-6.77,12.73-15.59,15.82-25.2,3.39-10.54,6.09-21.32,8.51-32.12a85.21,85.21,0,0,0,1.76-17.25c.15-9.46,5.75-15.36,15.31-14.87q26.14,1.32,52.28,3.09c8.52.58,13.09,5.76,13.46,14.8.58,14.23.66,28.49,1.75,42.68A69.16,69.16,0,0,0,346,317.17c4.57,11.42,15.78,15.52,27.07,10.76a64.29,64.29,0,0,0,22.5-16.36,4.77,4.77,0,0,0,.67-3.75c-2.64-11.57-5.8-23-8-34.69-1.46-7.6-1.82-15.43-2.36-23.17-.74-10.45-1.35-20.92-1.71-31.39-.44-12.61-.8-25.23-.73-37.84A162.94,162.94,0,0,1,385,160.17c1.62-12.25,3-24.58,5.61-36.64,2.79-12.91,7.85-25.21,16.23-35.58,6.13-7.6,13.86-13.46,24-15.08a10.21,10.21,0,0,0,2.26-.94Zm-30,210.88,1.46.25c3.85-7.41,8-14.69,11.49-22.24,19.91-42.71,29.86-87.39,25.43-134.65a64.19,64.19,0,0,0-5.29-20.1C444.88,95.82,434.09,94.8,427,103.5a40.45,40.45,0,0,0-6.18,10.67c-6.61,16.6-8.28,34.2-9.37,51.79a555.09,555.09,0,0,0,.79,83.57C413.18,260.66,415,271.72,416.42,282.81Zm-315.15,124c-12.92,18.08-25,35.43-33.8,54.69a158.53,158.53,0,0,0-10,29.66c-2.35,10.06-1.75,20.47,3.29,29.93,6.6,12.37,23,13.17,30.66,1.44a34.27,34.27,0,0,0,5-11.68c1.75-8.86,3.44-17.86,3.78-26.86.79-20.73.77-41.48,1.06-62.23C101.33,417.1,101.27,412.48,101.27,406.76Zm1.17-109.06h.44c0-5.32-.24-10.65.09-15.95a9.83,9.83,0,0,0-2.74-7.67c-11.67-13.25-32.1-15.62-44.4-5.06-14,12-14.9,39.22-2,52.5,12.36,12.7,36.42,9.38,47.53-2.39a5,5,0,0,0,1-3.15C102.49,309.89,102.44,303.79,102.44,297.7Z" transform="translate(-18.06 -71.93)"/><path class="cls-1" d="M940.29,71.93c2.25.66,4.49,1.3,6.74,2,15,4.42,22.9,15.23,25.89,29.8,4.89,23.79-.43,46.15-11,67.5s-25.49,39.23-43.53,54.63a34.53,34.53,0,0,1-4.76,3.92c-3.07,1.8-2.69,4.83-2.91,7.52-.28,3.48-.07,7-.07,11.52,3-1.87,5.28-3.48,7.72-4.85,12.34-7,25.18-10.25,38.92-4.48,10,4.19,14.35,12.9,16.31,22.72a146.32,146.32,0,0,1,2.39,23c.41,10.7.43,21.39,3.92,31.68,4.81,14.17,17.53,17.2,28.41,6.85,2.62-2.48,4.7-4.37,3.2-8.94a46.09,46.09,0,0,1-1.81-16.15c.9-18.88,6.46-36.07,20.8-49.27,10.78-9.92,23.89-13.69,38.36-12.59,28.7,2.17,42.44,24.89,44.37,48.19,1.46,17.66-2,34-12.57,48.42-11.39,15.51-26.83,22.88-46.15,22-11.53-.52-21.21-5.14-29.53-12.93-.46-.43-1-.81-1.58-1.32-7.32,6.87-15.37,12.36-25.36,13.81-15.65,2.26-29.61-2.47-37.74-16.81a71.67,71.67,0,0,1-8.94-29.71c-.79-9.53-.75-19.14-1.79-28.64a32.8,32.8,0,0,0-4.22-12.87c-3.16-5.32-8.65-5.31-14.09-3.63-7.84,2.41-13.94,7.65-20,12.87-.9.78-1,2.81-1,4.27-.23,17.12-.29,34.25-.62,51.36a76.22,76.22,0,0,1-1.46,14.55c-2.14,9.89-14.07,11.55-20.17,6.53a13.21,13.21,0,0,1-4.24-8.8c-.4-13.61,0-27.24-.06-40.86,0-8.16-.41-16.32-.32-24.48.09-8.37.56-16.75.85-25.12,0-1,0-2,0-3.36l-33.19,12.36c-3,14.1-5.4,28.66-9.19,42.85-4,15-10.91,28.9-23.05,39.28-12.3,10.53-26.53,13.88-41.79,8-7.9-3-13-10-16.73-17.6-.76-1.56-1.59-3.09-2.51-4.87-2.89,3.72-5.54,7.16-8.21,10.57-13.65,17.4-36.71,18.87-53.14,7C689.8,343,685.18,336,681.68,328.27a100.43,100.43,0,0,1-8.32-30.73c-.94-8.34-1.61-16.71-2.44-25.53-.72.59-1.54,1.21-2.31,1.88-6.23,5.43-12.27,11.11-18.76,16.2-2.38,1.86-5.76,2.81-8.83,3.35-4.1.71-7.93-.57-10.33-4.29a11.64,11.64,0,0,1-.5-12.41c4.55-8.15,11.25-14.46,18.51-20.22,4.6-3.66,8.72-8,13.64-11.16a69.85,69.85,0,0,1,16.95-8.21c8-2.42,14.17,1.67,15.48,9.9s1.67,16.68,2.47,25c1.38,14.59,2.9,29.17,8.59,42.87,2.57,6.2,5.94,11.85,13,14.15,4.71,1.53,8.47,0,11.95-2.88,6.37-5.17,9.71-12.28,11.35-20,2.07-9.73,3.71-19.58,4.87-29.46,1.08-9.26,1.26-18.62,1.91-27.94.55-7.83,5.15-12.29,12.61-12.37a12.64,12.64,0,0,1,12.75,12.39c.53,12,.31,24.12.94,36.15.6,11.55,1.07,23.17,5.29,34.22,4.39,11.51,14.15,13.71,23,5.3,7.54-7.15,11-16.44,13.63-25.95a216,216,0,0,0,5.44-27.82c1.1-7.92,1.19-16,1.68-24,.39-6.34,4-10.23,10.86-10.21a75.55,75.55,0,0,0,30.52-6.7,121,121,0,0,0,17.75-9.33c1.46-.95,1.5-4.71,1.52-7.18.11-18.93-.35-37.86.19-56.77.44-15.17.63-30.47,4.78-45.25,2.81-10,6.64-19.62,13.91-27.45a36.5,36.5,0,0,1,20.2-11,12.41,12.41,0,0,0,2.27-.95Zm96.55,225.93-1.07.32c1.67,6.3,2.45,13,5.18,18.82a22.14,22.14,0,0,0,37.89,3.91c10-13.49,10.81-28.76,4.89-44.21-3.13-8.17-9.37-13.31-18.34-14.18-9.18-.9-16.38,2.85-21.61,10.34S1036.93,288.92,1036.84,297.86Zm-124.6-99c4-4.7,8.21-9.13,11.94-13.91,12.77-16.37,22.4-34.18,24.14-55.35.63-7.65.34-15.27-2.63-22.52-2.19-5.32-6-8.74-11.89-9.26-6.08-.54-10.57,2.35-13.47,7.43-1.78,3.1-3.56,6.51-4.08,10-1.65,11.1-3.42,22.26-3.85,33.45C911.76,165.2,912.24,181.76,912.24,198.86Z" transform="translate(-18.06 -71.93)"/><path class="cls-1" d="M1154.69,75.1h53.43c.09,1.68.28,3.35.28,5q0,321,0,641.91c0,1.42-.1,2.85-.15,4.27H893.94v-4.7q0-158.31,0-316.61c0-1.53-.2-3.07-.31-4.61a41.17,41.17,0,0,1,4.93-.59q125.54,0,251.08,0h4.78v-5.11q0-157.28,0-314.54C1154.41,78.45,1154.59,76.78,1154.69,75.1Zm.1,378.36H947.63V672.38h207.16Z" transform="translate(-18.06 -71.93)"/><path class="cls-1" d="M1571.25,400.39c-.11,1.54-.31,3.08-.31,4.61q0,85.49,0,171v4.52h-248v91.89H1574v53.69h-305V399.93c.78-.05,1.55-.15,2.32-.15q148.07,0,296.13,0A24.35,24.35,0,0,1,1571.25,400.39Zm-54,53.08H1323v73.37h194.28Z" transform="translate(-18.06 -71.93)"/><path class="cls-1" d="M517.54,726V400H833.19V726Zm53.71-272.69v219H779.61v-219Z" transform="translate(-18.06 -71.93)"/><path class="cls-1" d="M457.58,453.6a28.39,28.39,0,0,0-3.05-.31q-106.09,0-212.18,0h-2.24v219.3H458v53.74H186.2V399.93c.9-.05,1.8-.15,2.71-.15H458.1c0,.8.09,1.29.09,1.78q0,24.53,0,49.06A14.83,14.83,0,0,1,457.58,453.6Z" transform="translate(-18.06 -71.93)"/><path class="cls-1" d="M1673.53,885.21c-2.63,15-10.49,22.46-27.26,24.67-10.23,1.35-20.3.13-29.64-4.81l3.46-13.55c4.51,1.19,8.88,2.7,13.39,3.45,6,1,12,1,17-3.51,4.43-3.92,3.22-8.92,3.4-14.62a41.53,41.53,0,0,1-4.38,3.46c-13.17,7.52-30.89,3.48-36.92-13.77a56.25,56.25,0,0,1,1-40.65c7.41-18.42,30.6-20.18,40.05-7.55a7.13,7.13,0,0,0,1.56,1.06c.53-2.52,1-4.68,1.55-7.37h16.57c.05,1.42.15,2.85.15,4.27Q1673.51,850.75,1673.53,885.21Zm-19.22-37.43c0-4.4.08-8.81,0-13.21a7.82,7.82,0,0,0-1-4c-4.36-6.44-17.06-8.17-21.17,1.43a39.39,39.39,0,0,0-.85,29.53c3.65,10.25,17.83,8.38,21.87,2.6a7.75,7.75,0,0,0,1.16-3.93C1654.41,856.07,1654.32,851.92,1654.31,847.78Z" transform="translate(-18.06 -71.93)"/><path class="cls-1" d="M671.51,851c-1.15,15.29,14.55,21.3,27,16.13,8.34-3.45,10.24-10.74,10.32-18.64.19-18.94.06-37.89.06-56.84v-4.38h19.14c.07,1.13.2,2.25.2,3.37,0,19.34.25,38.68-.14,58a48.34,48.34,0,0,1-3.31,16.79c-3.46,8.57-10.71,13.85-19.45,16.17-12.75,3.4-25.58,3.63-37.72-2.66-9.86-5.12-15.28-13.52-15.44-24.53-.32-22.3-.1-44.6-.1-67.35h18.74c.09,1.41.24,2.82.24,4.24q0,27.75,0,55.51C671.12,848.23,671.37,849.62,671.51,851Z" transform="translate(-18.06 -71.93)"/><path class="cls-1" d="M1438.73,787.18h20.74c3.54,12.24,7,24.51,10.62,36.75,3.54,12.07,7.18,24.12,11,36.94,5.16-17.83,10.09-34.88,15-51.92,2-6.78,3.93-13.58,6.08-20.31.23-.73,1.74-1.46,2.67-1.49,6-.13,11.92-.06,18.3-.06-3,9-5.89,17.73-8.84,26.4-7.4,21.83-14.89,43.62-22.18,65.48-.8,2.39-1.72,3.33-4.26,3.21-4.53-.2-9.09-.18-13.63,0-2.33.09-3.33-.68-4.09-3q-12.32-36.9-24.87-73.71C1443.26,799.5,1441,793.55,1438.73,787.18Z" transform="translate(-18.06 -71.93)"/><path class="cls-1" d="M1893.58,882h-19c-.72-2.81-1.43-5.57-2.25-8.79-2.41,2.27-4.68,4.37-6.91,6.53-6.46,6.24-23.6,5.13-29.82-1.74-6.88-7.6-8.34-20.19-.62-29.26,4-4.71,9.81-6.39,15.67-7,7-.76,14.1-.87,21.76-1.3a80.88,80.88,0,0,0-1.19-8.6c-1-3.88-3.92-5.86-7.88-5.8-1.55,0-3.26-.49-4.63,0-2.08.73-5.38,1.87-5.6,3.25-.74,4.57-3.7,3.79-6.58,3.79H1833c.1-7.95,3.32-14,9.79-17.64a38.37,38.37,0,0,1,35.11-1.85c9.23,3.93,13.2,11.44,13.39,21.09.2,10.51-.09,21,.25,31.53C1891.75,871.39,1892.86,876.57,1893.58,882Zm-21.8-29.81c-5.24.37-10.29.37-15.2,1.19a8.59,8.59,0,0,0-7.11,9.25c.49,3.85,3.86,6.15,9,6.12C1868.54,868.69,1873,863.43,1871.78,852.2Z" transform="translate(-18.06 -71.93)"/><path class="cls-1" d="M1186.79,908.75c.79-4.63,1.53-8.92,2.31-13.47,8,1.1,12.36-2.87,15.36-9.5,1.94-4.3.16-7.82-1.16-11.55q-5-14.1-10.08-28.14c-3.6-10-7.23-20-10.82-29.93-.42-1.17-.72-2.39-1.17-3.89h20.64c4.07,13.85,8.2,27.88,12.62,42.9,1.26-3.52,2.35-6.21,3.19-9,3.22-10.46,6.42-20.92,9.49-31.43.61-2.09,1.53-2.87,3.76-2.81,5.82.16,11.66,0,17.84,0-4.85,13.63-9.61,27-14.34,40.31-4.58,12.89-9,25.85-13.76,38.66-2.62,7-5.87,13.92-13.29,17.18C1200.69,911.1,1193.77,911,1186.79,908.75Z" transform="translate(-18.06 -71.93)"/><path class="cls-1" d="M1318.35,883.68c-17,1-29-12.1-31.43-28.08-1.87-12.57-.22-24.07,7.37-34.42,4.63-6.32,11.26-9.35,18.8-10.29,11.44-1.42,22.14,0,30.52,9.07,8.71,9.44,10.34,20.85,9.21,33a35.73,35.73,0,0,1-6.51,18.22c-5.94,8.07-14.06,12.17-24.07,12.49C1320.94,883.72,1319.64,883.68,1318.35,883.68Zm16.39-36.84c-1.27-4.94-2.09-10.07-3.94-14.79s-6.16-6.77-11.31-6.67-8.83,2.24-10.84,6.85a36.39,36.39,0,0,0-.21,29.45c2.07,5,6.18,7.08,11.47,7.08s9.52-2.29,11.31-7.29C1332.85,856.92,1333.53,852,1334.74,846.84Z" transform="translate(-18.06 -71.93)"/><path class="cls-1" d="M972.8,863.13c2,4.45,3.7,8.47,5.43,12.42-9.28,7-19.48,8.44-30.3,8.19-14.95-.34-27.09-11.82-29.32-26.19-2-12.53-1.31-24.57,6.25-35.46A26.23,26.23,0,0,1,944,810.73c10.7-1.27,20.88.28,28.55,9,5.15,5.89,6.8,13.1,7.29,20.62.26,3.85,0,7.74,0,12H938.28c-.91,8.09,5.27,15.85,12.93,16.45S965.73,867.57,972.8,863.13Zm-11.92-22.49c.72-9.16-3.35-15-10.45-15.26s-12.52,6.36-12.26,15.26Z" transform="translate(-18.06 -71.93)"/><path class="cls-1" d="M742.45,812h17.67c.16,2.72.29,5.09.48,8.25,3.06-2.58,5.32-5,8-6.67,8-5.11,23.18-4.7,29.47,4.13a27.41,27.41,0,0,1,4.9,13c.87,10.94.69,22,.85,33,.09,6,0,11.9,0,18.11H784.49v-3.53c0-13,.07-26-.07-38.93a28.53,28.53,0,0,0-1.45-7.71c-1.16-3.87-4-5.63-7.93-5.69-4.44-.08-8.83-.21-12.19,3.39a7.8,7.8,0,0,0-1,2c-.13,1.53-.36,3.06-.37,4.59q-.16,23.1-.27,46.2H742.45Z" transform="translate(-18.06 -71.93)"/><path class="cls-1" d="M1723.25,812h17.67c.16,2.72.3,5.1.48,8.25,3.06-2.58,5.32-4.95,8-6.67,8-5.11,23.18-4.7,29.48,4.13a27.46,27.46,0,0,1,4.89,13c.87,10.94.69,22,.85,33,.09,6,0,11.9,0,18.11h-19.35V878c0-12.85.08-25.71-.07-38.55a28.53,28.53,0,0,0-1.45-7.71c-1.16-3.87-4-5.63-7.93-5.69-4.43-.08-8.83-.21-12.19,3.39a8.15,8.15,0,0,0-1,2c-.13,1.53-.36,3.06-.37,4.59q-.16,23.1-.27,46.2h-18.76Z" transform="translate(-18.06 -71.93)"/><path class="cls-1" d="M1075.48,833.82a29.72,29.72,0,0,0-1.15-4.76c-1.38-3.17-3.53-5.91-7.21-6-4.07-.16-8.69-1.47-11.24,3.65-2.26,4.52-.85,9.33,4,11,5.41,1.89,11.17,2.83,16.53,4.84,4.39,1.64,9,3.57,12.47,6.57,8.47,7.31,7.2,21.38-1.77,28.09-8.42,6.31-18,7.12-27.92,6.32-11.38-.93-20-5.9-23.84-17.29-.62-1.86-.61-3.94-.94-6.27h17.85c.39,5.41,2.32,9.67,8,11.32,5.07,1.46,9.63,1,13.45-2.94,2.63-2.73,2.55-6.24-.1-9.07-3.33-3.56-7.82-4.37-12.28-5.38-6.34-1.44-12.58-3-18.06-6.94-6.6-4.68-9-15-5.52-22.53,4-8.46,11-12.29,19.7-13.42,11.31-1.49,22.42-.85,30.91,8,2.58,2.71,3.87,6.81,5.22,10.46,1,2.65-.39,4.38-3.48,4.36C1085.36,833.79,1080.57,833.82,1075.48,833.82Z" transform="translate(-18.06 -71.93)"/><path class="cls-1" d="M1389,882.12h-18.75c-.09-1.41-.25-2.82-.25-4.24,0-15.67,0-31.35,0-47a32,32,0,0,0-.42-3.76l-9.79-.5V812.18h9.76c-.08-10.27-.6-20.67,8-27.59,8.28-6.7,18.29-6,28.82-4.08-.35,4.18-.61,8.36-1.14,12.51-.08.64-1.3,1.5-2.1,1.63a36.32,36.32,0,0,1-5.43.22c-5.58,0-8.26,2.44-8.56,8-.15,2.84,0,5.69,0,8.91h13.75V827h-13a25.44,25.44,0,0,0-.63,3.94C1389.07,848,1389,865.07,1389,882.12Z" transform="translate(-18.06 -71.93)"/><path class="cls-1" d="M913.13,812c-8,23.47-15.9,46.56-23.87,69.89H870.5c-7.83-23-15.67-46.13-23.74-69.89,6.58,0,12.72-.09,18.86.12.74,0,1.81,1.58,2.08,2.6,3.81,14.31,7.5,28.66,11.24,43a27,27,0,0,0,1.13,2.84c2-7.49,4-14.61,5.86-21.76,2.11-8.11,4.06-16.25,6.28-24.32a3.91,3.91,0,0,1,2.75-2.37C900.88,811.9,906.82,812,913.13,812Z" transform="translate(-18.06 -71.93)"/><path class="cls-1" d="M1801.82,674.1a19.33,19.33,0,0,1,24.52-2.14c5.21,3.81,6.57,9.55,7.46,15.49.11.76.17,1.53.26,2.3q-.12,17.89-.25,35.78h-14.74c0-10.21-.07-20.43-.18-30.64,0-2-.38-4.08-.58-6.11,0-3.55-1.69-6.67-5-7.29-4.19-.78-9-1.69-12.22,2.78a27.28,27.28,0,0,0-.63,4.07c-.1,12.4-.13,24.8-.19,37.19h-14.74c0-3.09-.15-6.19-.15-9.29q.06-35.46.15-70.93h14.74v30l1,.08Z" transform="translate(-18.06 -71.93)"/><path class="cls-1" d="M1165.44,811.72h11.34v14.86l-11.34.53c-.15,3.07-.43,6.14-.41,9.21.06,9.06.25,18.11.39,27.16.73,5.13,2.6,6,10.65,4.78.57,3.9,1.23,7.8,1.65,11.72a2.7,2.7,0,0,1-1.26,2.24c-7.7,2-15.43,2.85-22.71-1.32-5.79-3.32-7.47-9-7.79-15.19,0-.52-.13-1-.19-1.54,0-11.59,0-23.18,0-34.77a9.54,9.54,0,0,0-.63-2.38h-9.87V811.81h9.88c.33-5.56.66-11.12,1-16.83h19.25Z" transform="translate(-18.06 -71.93)"/><path class="cls-1" d="M1675.67,714.72c.39,3.41.78,6.81,1.2,10.5h-14.46l-2.86-6.47c-5,7.21-11.88,8.33-19.6,7.35-10.87-1.38-14.93-12.39-12.69-20.38,2.86-10.25,11.36-12.11,20.9-12.85,3.84-.3,7.73,0,11.55,0,.88-6.32-1.31-11.08-5.23-11.79-6.41-1.14-9,.17-10.52,5.43H1629.3c0-8.11,5.1-15.7,17.75-17.49,12.14-1.71,25.34,1.79,28.06,15.32.05,3.73.09,7.46.16,11.19C1675.39,701.9,1675.54,708.31,1675.67,714.72Zm-15.73-13c-4.63.48-9,.53-13.24,1.52a5.67,5.67,0,0,0-4.4,6.85c.57,3.18,3.14,4.2,6.08,4.37C1656.32,715,1660.41,710.79,1659.94,701.76Z" transform="translate(-18.06 -71.93)"/><path class="cls-1" d="M1892.15,702.24H1859c0,10.23,9.88,17.18,27.49,8.41l4.25,8.93c-3.9,4.3-9.17,5.64-14.46,6.3-7.62,1-15.38,1.45-22.1-3.53-6.49-4.8-10.45-11.15-10.81-19.32s-.53-16.12,4.16-23.65c6.68-10.73,17.71-11.73,25.59-10.35,14.57,2.55,18.1,12.43,19,24.21C1892.33,696.05,1892.15,698.89,1892.15,702.24ZM1859,692.35h18.32c-.71-8.25-3.25-11.7-8.48-11.87C1863.35,680.3,1860.23,684,1859,692.35Z" transform="translate(-18.06 -71.93)"/><path class="cls-1" d="M1566.17,881.94V812.31h17.33c.38,2.61.76,5.24,1,6.83,3.34-2.51,6.85-5.67,10.86-7.95,1.9-1.08,4.77-.77,7.14-.54a3.59,3.59,0,0,1,2.2,2.74,102.61,102.61,0,0,1-1.59,13c-.16.84-2,1.75-3.13,1.93a39.07,39.07,0,0,1-6.22.08,8.22,8.22,0,0,0-8.54,8.35q0,20.63,0,41.26v4Z" transform="translate(-18.06 -71.93)"/><path class="cls-1" d="M991.32,812.2h17.23c.41,2.8.8,5.39,1.26,8.47,4-6.56,8.75-11.1,16.77-10.26,2.39.25,3.65,1,3.31,3.54-.56,4.19-.93,8.42-1.72,12.56-.15.78-1.83,1.64-2.9,1.77a50.08,50.08,0,0,1-6.6.06,8.15,8.15,0,0,0-8.38,8.14c0,15,0,30.06,0,45.37h-19Z" transform="translate(-18.06 -71.93)"/><path class="cls-1" d="M1705.27,710.83c.81,3.86,1.85,4.3,8.34,3.28.42,3.54.84,7.06,1.31,11-6.16,1.24-11.85,2.35-17.79-.18-5-2.11-6.9-6.14-7.12-10.82-.44-9.19-.23-18.42-.29-27.63,0-1.4,0-2.79,0-4.42h-8.29V670.36h8.29V656.89h14.93c0,1.6-.07,3.11,0,4.6.16,2.85.42,5.69.64,8.53h8.32v11.71l-8.33.39a12.76,12.76,0,0,0-.62,2.78C1704.84,693.55,1705.07,702.19,1705.27,710.83Z" transform="translate(-18.06 -71.93)"/><path class="cls-1" d="M1767.6,710.83c.8,3.86,1.84,4.3,8.34,3.28.42,3.54.84,7.06,1.3,11-6.16,1.24-11.85,2.35-17.78-.18-5-2.11-6.91-6.14-7.13-10.82-.43-9.19-.23-18.42-.28-27.63,0-1.4,0-2.79,0-4.42h-8.28V670.36H1752V656.89H1767c0,1.6-.07,3.11,0,4.6.16,2.85.42,5.69.64,8.53H1776v11.71l-8.32.39a12.23,12.23,0,0,0-.63,2.78C1767.16,693.55,1767.39,702.19,1767.6,710.83Z" transform="translate(-18.06 -71.93)"/><path class="cls-1" d="M1531.48,812H1550v70.13h-18.51c-.08-12.65-.23-25.31-.23-38C1531.24,833.44,1531.4,822.72,1531.48,812Z" transform="translate(-18.06 -71.93)"/><path class="cls-1" d="M1107.69,812h18.51v70.13h-18.51c-.08-12.65-.23-25.31-.24-38C1107.45,833.44,1107.6,822.72,1107.69,812Z" transform="translate(-18.06 -71.93)"/><path class="cls-1" d="M1688.85,812h18.5v70.13h-18.5c-.09-12.65-.23-25.31-.24-38C1688.61,833.44,1688.76,822.72,1688.85,812Z" transform="translate(-18.06 -71.93)"/><path class="cls-1" d="M819.45,812H838v70.13h-18.5c-.09-12.65-.23-25.31-.24-38C819.21,833.44,819.36,822.72,819.45,812Z" transform="translate(-18.06 -71.93)"/><path class="cls-1" d="M1800.25,812h18.51v70.13h-18.51c-.09-12.65-.23-25.31-.24-38C1800,833.44,1800.16,822.72,1800.25,812Z" transform="translate(-18.06 -71.93)"/><path class="cls-1" d="M180.08,187.91c-.37-10,7.49-16.55,18.59-17.1,10.71-.54,17.52,6.63,17.73,15.61.22,9.3-8.91,18.25-18.07,18.81C186.9,205.93,180.09,198.12,180.08,187.91Z" transform="translate(-18.06 -71.93)"/><path class="cls-1" d="M1208.25,726.31c0-1.42.15-2.85.15-4.27q0-321,0-641.91c0-1.68-.19-3.35-.28-5a21.35,21.35,0,0,1,.9,4.31q.09,44.58,0,89.17,0,276.27,0,552.55A34.31,34.31,0,0,1,1208.25,726.31Z" transform="translate(-18.06 -71.93)"/><path class="cls-1" d="M1154.69,75.1c-.1,1.68-.28,3.35-.28,5q0,157.26,0,314.54v5.11h-4.78q-125.53,0-251.08,0a41.17,41.17,0,0,0-4.93.59c1.48-.42,3-1.21,4.46-1.21q58.39-.1,116.79-.06H1148c6.46,0,5.72.67,5.73-5.92q0-156.51,0-313A28.35,28.35,0,0,1,1154.69,75.1Z" transform="translate(-18.06 -71.93)"/><path class="cls-1" d="M1688.81,781h18.63v13.71h-18.63Z" transform="translate(-18.06 -71.93)"/><path class="cls-1" d="M1550,794.72h-18.89V781.14H1550Z" transform="translate(-18.06 -71.93)"/><path class="cls-1" d="M1818.89,781.13v13.54h-18.78V781.13Z" transform="translate(-18.06 -71.93)"/><path class="cls-1" d="M1126.37,781.09v13.55h-19.12V781.09Z" transform="translate(-18.06 -71.93)"/><path class="cls-1" d="M838.06,781.16V794.7H818.94V781.16Z" transform="translate(-18.06 -71.93)"/><path class="cls-1" d="M457.58,453.6a14.83,14.83,0,0,0,.59-3q.06-24.53,0-49.06c0-.49,0-1-.09-1.78H188.91c-.91,0-1.81.1-2.71.15a21,21,0,0,1,4-.77q132.1-.06,264.21-.12c3.63,0,4.55,1,4.51,4.58-.18,15.3-.05,30.61-.13,45.91C458.79,450.89,458,452.25,457.58,453.6Z" transform="translate(-18.06 -71.93)"/><path class="cls-1" d="M1571.25,400.39a24.35,24.35,0,0,0-3.75-.59q-148.07,0-296.13,0c-.77,0-1.54.1-2.32.15a21.11,21.11,0,0,1,4-.77q147.06-.06,294.11,0C1568.54,399.18,1569.9,400,1571.25,400.39Z" transform="translate(-18.06 -71.93)"/><path class="cls-1" d="M1785.57,645.31q-.08,35.46-.15,70.93c0,3.1.1,6.2.15,9.29a20.91,20.91,0,0,1-.77-4q-.08-36.1,0-72.22A20.91,20.91,0,0,1,1785.57,645.31Z" transform="translate(-18.06 -71.93)"/><path class="cls-1" d="M1673.53,885.21q0-34.46,0-68.92c0-1.42-.1-2.85-.15-4.27a14.69,14.69,0,0,1,.78,3.24q.06,33.5,0,67A16.23,16.23,0,0,1,1673.53,885.21Z" transform="translate(-18.06 -71.93)"/><path class="cls-1" d="M1688.85,812c-.09,10.72-.24,21.44-.24,32.16,0,12.66.15,25.32.24,38a16.68,16.68,0,0,1-.66-3.29q-.06-31.77,0-63.54A17.54,17.54,0,0,1,1688.85,812Z" transform="translate(-18.06 -71.93)"/><path class="cls-1" d="M1107.69,812c-.09,10.72-.24,21.44-.24,32.16,0,12.66.16,25.32.24,38a20.46,20.46,0,0,1-.66-3.68q-.06-31.38,0-62.76A20.73,20.73,0,0,1,1107.69,812Z" transform="translate(-18.06 -71.93)"/><path class="cls-1" d="M1531.48,812c-.08,10.72-.24,21.44-.23,32.16,0,12.66.15,25.32.23,38a20.44,20.44,0,0,1-.65-3.68q-.07-31.38,0-62.76A21.67,21.67,0,0,1,1531.48,812Z" transform="translate(-18.06 -71.93)"/><path class="cls-1" d="M819.45,812c-.09,10.72-.24,21.44-.24,32.16,0,12.66.15,25.32.24,38a20.46,20.46,0,0,1-.66-3.68q-.06-31.38,0-62.76A20.73,20.73,0,0,1,819.45,812Z" transform="translate(-18.06 -71.93)"/><path class="cls-1" d="M1723.25,812v70.1a17.34,17.34,0,0,1-.77-3.62q-.07-31.43,0-62.86A17.2,17.2,0,0,1,1723.25,812Z" transform="translate(-18.06 -71.93)"/><path class="cls-1" d="M1800.25,812c-.09,10.72-.24,21.44-.24,32.16,0,12.66.15,25.32.24,38a17.44,17.44,0,0,1-.66-3.29q0-31.77,0-63.54A17.54,17.54,0,0,1,1800.25,812Z" transform="translate(-18.06 -71.93)"/><path class="cls-1" d="M742.45,812v70.1a17.37,17.37,0,0,1-.78-3.62q-.07-31.43,0-62.87A17.28,17.28,0,0,1,742.45,812Z" transform="translate(-18.06 -71.93)"/><path class="cls-1" d="M671.51,851c-.14-1.39-.39-2.78-.4-4.18q0-27.75,0-55.51c0-1.42-.15-2.83-.24-4.24a20.73,20.73,0,0,1,.66,3.69Q671.55,820.89,671.51,851Z" transform="translate(-18.06 -71.93)"/><path class="cls-1" d="M1369.53,827.11a32,32,0,0,1,.42,3.76c0,15.67,0,31.35,0,47,0,1.42.16,2.83.25,4.24a25.12,25.12,0,0,1-.66-4.08Q1369.5,852.58,1369.53,827.11Z" transform="translate(-18.06 -71.93)"/><path class="cls-1" d="M1389,882.12c.06-17,.09-34.11.19-51.16a25.44,25.44,0,0,1,.63-3.94c0,16.9,0,33.81,0,50.72A25.82,25.82,0,0,1,1389,882.12Z" transform="translate(-18.06 -71.93)"/><path class="cls-1" d="M1165.44,811.72V795h-19.25c-.35,5.71-.68,11.27-1,16.83,0-4.93.07-9.86,0-14.79-.05-2.16.7-3,2.91-3,4.8.11,9.6.14,14.4,0,2.51-.08,3.06,1.05,3,3.27C1165.36,802.12,1165.44,806.92,1165.44,811.72Z" transform="translate(-18.06 -71.93)"/><path class="cls-1" d="M458,726.31V672.57a14.61,14.61,0,0,1,.78,3.23q.07,23.64,0,47.29A14.52,14.52,0,0,1,458,726.31Z" transform="translate(-18.06 -71.93)"/><path class="cls-1" d="M761.21,882.13q.12-23.1.27-46.2c0-1.53.24-3.06.37-4.59q0,23.74,0,47.48A17.48,17.48,0,0,1,761.21,882.13Z" transform="translate(-18.06 -71.93)"/><path class="cls-1" d="M1742,882.13q.13-23.1.27-46.2c0-1.53.24-3.06.37-4.59q0,23.74,0,47.48A17.48,17.48,0,0,1,1742,882.13Z" transform="translate(-18.06 -71.93)"/><path class="cls-1" d="M1800.31,725.53c.06-12.39.09-24.79.19-37.19a27.28,27.28,0,0,1,.63-4.07c0,12.42,0,24.84,0,37.26A21.74,21.74,0,0,1,1800.31,725.53Z" transform="translate(-18.06 -71.93)"/><path class="cls-1" d="M1145.17,827a9.54,9.54,0,0,1,.63,2.38c0,11.59,0,23.18,0,34.77a30.67,30.67,0,0,1-.57-4.12C1145.16,849,1145.18,838,1145.17,827Z" transform="translate(-18.06 -71.93)"/><path class="cls-1" d="M1818.31,688.78c.2,2,.56,4.07.58,6.11.11,10.21.13,20.43.18,30.64a13.8,13.8,0,0,1-.77-3.2C1818.26,711.14,1818.29,700,1818.31,688.78Z" transform="translate(-18.06 -71.93)"/><path class="cls-1" d="M1165.42,863.48c-.14-9.05-.33-18.1-.39-27.16,0-3.07.26-6.14.41-9.21Q1165.43,845.29,1165.42,863.48Z" transform="translate(-18.06 -71.93)"/><path class="cls-1" d="M1833.81,725.53q.12-17.88.25-35.78a45.67,45.67,0,0,1,.54,4.92q.08,13.43,0,26.85A21.68,21.68,0,0,1,1833.81,725.53Z" transform="translate(-18.06 -71.93)"/><path class="cls-1" d="M1801.82,674.1l-.56,1.26-1-.08v-30a22.11,22.11,0,0,1,.78,4c.07,7.06,0,14.11.06,21.17A22.07,22.07,0,0,0,1801.82,674.1Z" transform="translate(-18.06 -71.93)"/><path class="cls-1" d="M1675.67,714.72c-.13-6.41-.28-12.82-.4-19.24-.07-3.73-.11-7.46-.16-11.19.2,2.53.54,5.06.56,7.59C1675.74,699.49,1675.68,707.11,1675.67,714.72Z" transform="translate(-18.06 -71.93)"/><path class="cls-1" d="M1767.6,710.83c-.21-8.64-.44-17.28-.6-25.93a12.23,12.23,0,0,1,.63-2.78Z" transform="translate(-18.06 -71.93)"/><path class="cls-1" d="M1705.27,710.83c-.2-8.64-.43-17.28-.59-25.93a12.76,12.76,0,0,1,.62-2.78Z" transform="translate(-18.06 -71.93)"/><path class="cls-1" d="M1767.63,670c-.22-2.84-.48-5.68-.64-8.53-.09-1.49,0-3,0-4.6H1752c4.68-.21,9.36-.5,14-.51.51,0,1.43,1.6,1.47,2.5C1767.72,662.59,1767.63,666.31,1767.63,670Z" transform="translate(-18.06 -71.93)"/><path class="cls-1" d="M1705.3,670c-.21-2.84-.47-5.68-.63-8.53-.09-1.49,0-3,0-4.6h-14.93c4.67-.21,9.35-.5,14-.51.52,0,1.44,1.6,1.48,2.5C1705.4,662.59,1705.3,666.31,1705.3,670Z" transform="translate(-18.06 -71.93)"/></svg>