<svg width="75" height="150" viewBox="0 0 75 150" fill="none" xmlns="http://www.w3.org/2000/svg">
<rect width="74.9656" height="136" fill="#0D38D3"/>
<path d="M37.5 150L75 136.025H0L37.5 150Z" fill="#0D38D3"/>
<path d="M21.9759 102.552C21.9759 102.806 21.9238 103.041 21.8197 103.255C21.7155 103.464 21.5658 103.643 21.3705 103.792C21.1752 103.942 20.9343 104.059 20.6478 104.144C20.3679 104.229 20.0456 104.271 19.681 104.271C19.2709 104.271 18.8933 104.225 18.5482 104.134C18.2097 104.043 17.9199 103.9 17.6791 103.705C17.4317 103.509 17.2396 103.259 17.1029 102.953C16.9662 102.647 16.8913 102.279 16.8783 101.849H14.183C14.183 102.585 14.3229 103.226 14.6029 103.773C14.8893 104.32 15.2767 104.795 15.765 105.199C16.2793 105.609 16.8815 105.921 17.5716 106.136C18.2683 106.345 18.9714 106.449 19.681 106.449C20.4037 106.449 21.071 106.364 21.683 106.195C22.2949 106.019 22.8223 105.762 23.265 105.423C23.7077 105.091 24.0528 104.684 24.3002 104.203C24.5541 103.714 24.681 103.158 24.681 102.533C24.681 101.81 24.515 101.172 24.183 100.619C23.8509 100.065 23.405 99.5802 22.8451 99.1636C22.474 98.9097 22.0671 98.6851 21.6244 98.4897C21.1817 98.2944 20.7162 98.1284 20.2279 97.9917C19.7722 97.868 19.362 97.7345 18.9974 97.5913C18.6393 97.4481 18.3334 97.2886 18.0794 97.1128C17.8255 96.9435 17.6302 96.7515 17.4935 96.5366C17.3633 96.3218 17.2982 96.0809 17.2982 95.814C17.2982 95.5601 17.347 95.3257 17.4447 95.1108C17.5488 94.8895 17.6986 94.6974 17.8939 94.5347C18.0892 94.3784 18.3268 94.258 18.6068 94.1733C18.8933 94.0822 19.2188 94.0366 19.5834 94.0366C19.9805 94.0366 20.3255 94.092 20.6185 94.2026C20.918 94.3068 21.1686 94.4533 21.3705 94.6421C21.5658 94.8374 21.7123 95.0685 21.8099 95.3354C21.9141 95.6024 21.9727 95.8953 21.9857 96.2144H24.6615C24.6615 95.5763 24.5378 94.9904 24.2904 94.4565C24.043 93.9227 23.6979 93.4604 23.2552 93.0698C22.8125 92.6857 22.2819 92.3862 21.6634 92.1714C21.0515 91.9565 20.3744 91.8491 19.6322 91.8491C18.916 91.8491 18.252 91.9435 17.64 92.1323C17.028 92.3146 16.4974 92.5783 16.0482 92.9233C15.599 93.2684 15.2474 93.6851 14.9935 94.1733C14.7396 94.6616 14.6127 95.2052 14.6127 95.8042C14.6127 96.325 14.7071 96.8068 14.8959 97.2495C15.0912 97.6922 15.3776 98.0959 15.7552 98.4604C16.1328 98.825 16.6179 99.1603 17.2103 99.4663C17.8093 99.7723 18.5026 100.033 19.2904 100.248C19.7982 100.384 20.2214 100.534 20.5599 100.697C20.905 100.853 21.1849 101.026 21.3998 101.214C21.6081 101.41 21.7546 101.618 21.8392 101.839C21.9304 102.061 21.9759 102.298 21.9759 102.552ZM27.2103 92.0444V94.2612H29.9154V104.056H27.2103V106.263H35.433V104.056H32.6595V94.2612H35.433V92.0444H27.2103ZM48.3919 104.603L48.3822 98.9976H43.2943V101.048H45.6478L45.638 103.626C45.5664 103.711 45.459 103.792 45.3158 103.871C45.1791 103.942 45.0196 104.007 44.8373 104.066C44.655 104.125 44.4597 104.17 44.2513 104.203C44.043 104.235 43.8314 104.251 43.6166 104.251C43.265 104.245 42.9492 104.19 42.6693 104.085C42.3959 103.975 42.155 103.815 41.9466 103.607C41.8229 103.483 41.709 103.343 41.6048 103.187C41.5072 103.024 41.4193 102.848 41.3412 102.66C41.2175 102.334 41.1198 101.96 41.0482 101.537C40.9831 101.113 40.9505 100.645 40.9505 100.13V98.1772C40.9505 97.7671 40.9733 97.3862 41.0189 97.0347C41.071 96.6831 41.1426 96.3641 41.2337 96.0776C41.3509 95.7065 41.4974 95.3843 41.6732 95.1108C41.8555 94.8374 42.0573 94.616 42.2787 94.4468C42.4479 94.3231 42.6302 94.2287 42.8255 94.1636C43.0209 94.0985 43.2227 94.0659 43.431 94.0659C43.8151 94.0659 44.1439 94.118 44.4173 94.2222C44.6973 94.3198 44.9284 94.4696 45.1107 94.6714C45.2735 94.8537 45.4004 95.0783 45.4916 95.3452C45.5892 95.6121 45.6608 95.9181 45.7064 96.2632H48.3822C48.3106 95.5796 48.1576 94.9644 47.9232 94.4175C47.6953 93.8706 47.3763 93.4051 46.9662 93.021C46.556 92.6434 46.0515 92.3537 45.4525 92.1519C44.86 91.95 44.1634 91.8491 43.3627 91.8491C42.8418 91.8491 42.347 91.9207 41.8783 92.064C41.4095 92.2072 40.9766 92.4188 40.5794 92.6987C40.2409 92.9461 39.9284 93.2391 39.6419 93.5776C39.362 93.9162 39.1146 94.297 38.8998 94.7202C38.6719 95.1955 38.4961 95.7261 38.3724 96.312C38.2487 96.8914 38.1869 97.5197 38.1869 98.1968V100.13C38.1869 100.84 38.2487 101.498 38.3724 102.103C38.5026 102.708 38.6914 103.252 38.9388 103.734C39.1537 104.17 39.4141 104.557 39.7201 104.896C40.0326 105.235 40.3776 105.521 40.7552 105.755C41.1393 105.983 41.5593 106.156 42.015 106.273C42.4772 106.397 42.9688 106.458 43.4896 106.458C44.0886 106.458 44.6485 106.403 45.1693 106.292C45.6901 106.182 46.1621 106.035 46.5853 105.853C47.002 105.677 47.3633 105.479 47.6693 105.257C47.9753 105.036 48.2162 104.818 48.3919 104.603ZM60.0033 106.263V92.0444H57.2494L57.2396 101.175L53.3138 92.0444H50.5502V106.263H53.3138V97.0933L57.2689 106.263H60.0033ZM36.0775 118.044H33.3529L33.3431 127.468C33.3366 127.931 33.2878 128.337 33.1966 128.689C33.1055 129.041 32.9688 129.333 32.7865 129.568C32.6172 129.796 32.4024 129.968 32.1419 130.085C31.888 130.196 31.5951 130.251 31.263 130.251C30.9571 130.251 30.6869 130.199 30.4525 130.095C30.2181 129.985 30.0196 129.822 29.8568 129.607C29.681 129.373 29.5475 129.076 29.4564 128.718C29.3718 128.36 29.3262 127.944 29.3197 127.468L29.3099 118.044H26.5658L26.556 127.468C26.556 128.263 26.6667 128.972 26.888 129.597C27.1159 130.216 27.4349 130.736 27.8451 131.16C28.2552 131.583 28.7468 131.905 29.3197 132.126C29.8991 132.348 30.5469 132.458 31.263 132.458C32.0248 132.458 32.7018 132.348 33.2943 132.126C33.8933 131.905 34.4011 131.58 34.8177 131.15C35.2279 130.727 35.5404 130.206 35.7552 129.587C35.9766 128.969 36.0873 128.263 36.0873 127.468L36.0775 118.044ZM41.5365 127.048H43.6556C44.4304 127.048 45.1302 126.938 45.7552 126.716C46.3802 126.495 46.9141 126.186 47.3568 125.789C47.793 125.398 48.1283 124.932 48.3627 124.392C48.6035 123.852 48.724 123.263 48.724 122.625C48.724 121.941 48.6035 121.319 48.3627 120.759C48.1283 120.199 47.793 119.718 47.3568 119.314C46.9141 118.917 46.3802 118.608 45.7552 118.386C45.1302 118.158 44.4304 118.044 43.6556 118.044H38.7923V132.263H41.5365V127.048ZM41.5365 124.822V120.271H43.6556C44.0462 120.271 44.3848 120.333 44.6712 120.457C44.9577 120.58 45.1986 120.75 45.3939 120.964C45.5827 121.179 45.7227 121.43 45.8138 121.716C45.9115 122.003 45.9603 122.312 45.9603 122.644C45.9603 122.931 45.9115 123.207 45.8138 123.474C45.7227 123.735 45.5827 123.966 45.3939 124.167C45.1986 124.369 44.9577 124.529 44.6712 124.646C44.3848 124.763 44.0462 124.822 43.6556 124.822H41.5365Z" fill="white"/>
</svg>
