<svg width="82" height="73" viewBox="0 0 82 73" fill="none" xmlns="http://www.w3.org/2000/svg">
<path d="M14.3274 19.3069C14.3274 19.7522 14.2361 20.1632 14.0534 20.54C13.8707 20.9053 13.6081 21.2193 13.2656 21.4819C12.9231 21.7445 12.5007 21.95 11.9983 22.0984C11.5074 22.2468 10.9422 22.321 10.3029 22.321C9.58358 22.321 8.92139 22.2411 8.31628 22.0813C7.72258 21.9214 7.21452 21.6703 6.79208 21.3278C6.35823 20.9852 6.02143 20.5457 5.78167 20.0091C5.5419 19.4725 5.41061 18.8274 5.38777 18.0739H0.661067C0.661067 19.364 0.906536 20.4886 1.39747 21.4476C1.89983 22.4067 2.57915 23.2401 3.43544 23.948C4.33739 24.6673 5.39348 25.2153 6.6037 25.5921C7.82534 25.9574 9.05839 26.1401 10.3029 26.1401C11.5702 26.1401 12.7404 25.9917 13.8136 25.6948C14.8869 25.3866 15.8116 24.9356 16.588 24.3419C17.3644 23.7596 17.9695 23.046 18.4033 22.2012C18.8486 21.3449 19.0712 20.3687 19.0712 19.2727C19.0712 18.0054 18.7801 16.8865 18.1978 15.916C17.6156 14.9456 16.8335 14.095 15.8516 13.3643C15.2008 12.919 14.4873 12.5251 13.7109 12.1826C12.9345 11.8401 12.1182 11.5489 11.2619 11.3092C10.4627 11.0923 9.74342 10.8582 9.10406 10.607C8.47612 10.3559 7.93951 10.0761 7.49424 9.76787C7.04897 9.47102 6.70646 9.13422 6.4667 8.75745C6.23835 8.38069 6.12418 7.95825 6.12418 7.49015C6.12418 7.04488 6.20981 6.63386 6.38107 6.25709C6.56374 5.86891 6.82634 5.5321 7.16885 5.24667C7.51137 4.97266 7.92809 4.76144 8.41903 4.61302C8.92139 4.45318 9.49224 4.37326 10.1316 4.37326C10.8281 4.37326 11.4332 4.47031 11.9469 4.6644C12.4721 4.84707 12.9117 5.10396 13.2656 5.43506C13.6081 5.77757 13.865 6.18288 14.0363 6.65099C14.219 7.11909 14.3217 7.63286 14.3445 8.1923H19.037C19.037 7.07342 18.8201 6.04588 18.3862 5.10967C17.9524 4.17346 17.3473 3.36284 16.5709 2.67781C15.7945 2.0042 14.864 1.47901 13.7794 1.10224C12.7062 0.725476 11.5188 0.537093 10.2172 0.537093C8.96135 0.537093 7.7968 0.702642 6.72358 1.03374C5.65037 1.35342 4.71987 1.81582 3.93208 2.42093C3.1443 3.02604 2.52777 3.75673 2.0825 4.61302C1.63723 5.46931 1.4146 6.42264 1.4146 7.47302C1.4146 8.38639 1.58015 9.23126 1.91125 10.0076C2.25376 10.784 2.75612 11.4919 3.41831 12.1312C4.08051 12.7706 4.93109 13.3586 5.97005 13.8952C7.02043 14.4318 8.23636 14.8885 9.61783 15.2652C10.5084 15.505 11.2505 15.7676 11.8442 16.053C12.4493 16.327 12.9402 16.6296 13.317 16.9607C13.6823 17.3032 13.9392 17.6685 14.0877 18.0567C14.2475 18.4449 14.3274 18.8616 14.3274 19.3069ZM23.5068 0.879608V4.76715H28.2506V21.9443H23.5068V25.8147H37.9267V21.9443H33.063V4.76715H37.9267V0.879608H23.5068ZM60.6526 22.9033L60.6354 13.0731H51.7129V16.6695H55.8402L55.8231 21.1907C55.6975 21.3392 55.5091 21.4819 55.258 21.6189C55.0182 21.7445 54.7385 21.8586 54.4188 21.9614C54.0991 22.0642 53.7566 22.1441 53.3912 22.2012C53.0259 22.2583 52.6548 22.2868 52.2781 22.2868C51.6615 22.2754 51.1078 22.1783 50.6169 21.9957C50.1374 21.8016 49.7149 21.5218 49.3496 21.1565C49.1326 20.9396 48.9328 20.6941 48.7502 20.4201C48.5789 20.1347 48.4248 19.8264 48.2878 19.4953C48.0708 18.9244 47.8996 18.268 47.774 17.5258C47.6598 16.7837 47.6027 15.9617 47.6027 15.0597V11.6346C47.6027 10.9153 47.6427 10.2474 47.7226 9.63087C47.814 9.01434 47.9395 8.4549 48.0994 7.95254C48.3049 7.30176 48.5618 6.73661 48.87 6.25709C49.1897 5.77757 49.5437 5.38939 49.9318 5.09254C50.2287 4.87562 50.5484 4.71007 50.8909 4.5959C51.2334 4.48172 51.5873 4.42464 51.9527 4.42464C52.6263 4.42464 53.2029 4.51598 53.6824 4.69865C54.1733 4.86991 54.5786 5.1325 54.8983 5.48643C55.1837 5.80611 55.4064 6.20001 55.5662 6.66811C55.7375 7.13621 55.8631 7.67282 55.943 8.27793H60.6354C60.5098 7.07913 60.2415 6.00021 59.8305 5.04116C59.4309 4.08212 58.8715 3.2658 58.1522 2.59218C57.4329 1.92999 56.5481 1.42192 55.4977 1.06799C54.4588 0.714059 53.2371 0.537093 51.8328 0.537093C50.9194 0.537093 50.0517 0.662682 49.2297 0.91386C48.4077 1.16504 47.6484 1.5361 46.952 2.02703C46.3583 2.46089 45.8102 2.97466 45.3079 3.56835C44.817 4.16204 44.3831 4.82995 44.0063 5.57206C43.6067 6.40552 43.2985 7.33602 43.0815 8.36356C42.8646 9.37969 42.7562 10.4814 42.7562 11.6688V15.0597C42.7562 16.3042 42.8646 17.4573 43.0815 18.5191C43.3099 19.5809 43.641 20.5343 44.0748 21.3791C44.4516 22.1441 44.9083 22.8234 45.4449 23.4171C45.9929 24.0108 46.598 24.5131 47.2602 24.9242C47.9338 25.3238 48.6702 25.6263 49.4694 25.8318C50.2801 26.0487 51.1421 26.1572 52.0554 26.1572C53.1058 26.1572 54.0877 26.0602 55.0011 25.8661C55.9144 25.672 56.7422 25.4151 57.4843 25.0954C58.215 24.7872 58.8487 24.4389 59.3853 24.0507C59.9219 23.6626 60.3443 23.2801 60.6526 22.9033ZM81.0151 25.8147V0.879608H76.1856L76.1685 16.8922L69.2839 0.879608H64.4374V25.8147H69.2839V9.73362L76.2199 25.8147H81.0151ZM39.057 46.8796H34.2789L34.2618 63.406C34.2504 64.2166 34.1647 64.9301 34.0049 65.5467C33.8451 66.1632 33.6053 66.677 33.2856 67.088C32.9888 67.4876 32.612 67.7901 32.1553 67.9957C31.71 68.1897 31.1963 68.2868 30.614 68.2868C30.0774 68.2868 29.6036 68.1955 29.1926 68.0128C28.7815 67.8187 28.4333 67.5333 28.1479 67.1565C27.8396 66.7455 27.6056 66.226 27.4457 65.5981C27.2973 64.9701 27.2174 64.2394 27.206 63.406L27.1889 46.8796H22.3765L22.3594 63.406C22.3594 64.7988 22.5535 66.0433 22.9417 67.1394C23.3413 68.224 23.9007 69.1374 24.62 69.8795C25.3393 70.6216 26.2013 71.1868 27.206 71.5749C28.2221 71.9631 29.3581 72.1572 30.614 72.1572C31.9498 72.1572 33.1372 71.9631 34.1762 71.5749C35.2265 71.1868 36.1171 70.6159 36.8478 69.8624C37.5671 69.1202 38.1151 68.2069 38.4918 67.1222C38.88 66.0376 39.0741 64.7988 39.0741 63.406L39.057 46.8796ZM48.6303 62.6695H52.3466C53.7052 62.6695 54.9326 62.4755 56.0286 62.0873C57.1247 61.6991 58.0609 61.1568 58.8372 60.4603C59.6022 59.7753 60.1902 58.959 60.6012 58.0113C61.0236 57.0637 61.2348 56.0305 61.2348 54.9116C61.2348 53.7128 61.0236 52.6224 60.6012 51.6406C60.1902 50.6587 59.6022 49.8138 58.8372 49.106C58.0609 48.4095 57.1247 47.8672 56.0286 47.479C54.9326 47.0794 53.7052 46.8796 52.3466 46.8796H43.818V71.8147H48.6303V62.6695ZM48.6303 58.7649V50.7843H52.3466C53.0316 50.7843 53.6253 50.8927 54.1277 51.1097C54.63 51.3266 55.0524 51.6234 55.395 52.0002C55.7261 52.377 55.9715 52.8165 56.1314 53.3189C56.3026 53.8212 56.3883 54.3636 56.3883 54.9458C56.3883 55.4482 56.3026 55.9334 56.1314 56.4015C55.9715 56.8582 55.7261 57.2635 55.395 57.6175C55.0524 57.9714 54.63 58.2511 54.1277 58.4566C53.6253 58.6621 53.0316 58.7649 52.3466 58.7649H48.6303Z" fill="white"/>
</svg>
