<svg width="173" height="155" viewBox="0 0 173 155" fill="none" xmlns="http://www.w3.org/2000/svg">
<path d="M29.895 41.084C29.895 42.0361 29.6997 42.915 29.3091 43.7207C28.9185 44.502 28.3569 45.1733 27.6245 45.7349C26.8921 46.2964 25.9888 46.7358 24.9146 47.0532C23.8647 47.3706 22.6562 47.5293 21.2891 47.5293C19.751 47.5293 18.335 47.3584 17.041 47.0166C15.7715 46.6748 14.6851 46.1377 13.7817 45.4053C12.854 44.6729 12.1338 43.7329 11.6211 42.5854C11.1084 41.438 10.8276 40.0586 10.7788 38.4473H0.671387C0.671387 41.2061 1.19629 43.6108 2.24609 45.6616C3.32031 47.7124 4.77295 49.4946 6.604 51.0083C8.53271 52.5464 10.791 53.7183 13.3789 54.5239C15.9912 55.3052 18.6279 55.6958 21.2891 55.6958C23.999 55.6958 26.5015 55.3784 28.7964 54.7437C31.0913 54.0845 33.0688 53.1201 34.729 51.8506C36.3892 50.6055 37.6831 49.0796 38.6108 47.2729C39.563 45.4419 40.0391 43.3545 40.0391 41.0107C40.0391 38.3008 39.4165 35.9082 38.1714 33.833C36.9263 31.7578 35.2539 29.939 33.1543 28.3765C31.7627 27.4243 30.2368 26.582 28.5767 25.8496C26.9165 25.1172 25.1709 24.4946 23.3398 23.9819C21.6309 23.5181 20.0928 23.0176 18.7256 22.4805C17.3828 21.9434 16.2354 21.3452 15.2832 20.686C14.3311 20.0513 13.5986 19.3311 13.0859 18.5254C12.5977 17.7197 12.3535 16.8164 12.3535 15.8154C12.3535 14.8633 12.5366 13.9844 12.9028 13.1787C13.2935 12.3486 13.855 11.6284 14.5874 11.0181C15.3198 10.4321 16.2109 9.98047 17.2607 9.66309C18.335 9.32129 19.5557 9.15039 20.9229 9.15039C22.4121 9.15039 23.7061 9.35791 24.8047 9.77295C25.9277 10.1636 26.8677 10.7129 27.6245 11.4209C28.3569 12.1533 28.9062 13.02 29.2725 14.021C29.6631 15.022 29.8828 16.1206 29.9316 17.3169H39.9658C39.9658 14.9243 39.502 12.7271 38.5742 10.7251C37.6465 8.72314 36.3525 6.98975 34.6924 5.5249C33.0322 4.08447 31.0425 2.96143 28.7231 2.15576C26.4282 1.3501 23.8892 0.947266 21.106 0.947266C18.4204 0.947266 15.9302 1.30127 13.6353 2.00928C11.3403 2.69287 9.35059 3.68164 7.66602 4.97559C5.98145 6.26953 4.66309 7.83203 3.71094 9.66309C2.75879 11.4941 2.28271 13.5327 2.28271 15.7788C2.28271 17.7319 2.63672 19.5386 3.34473 21.1987C4.07715 22.8589 5.15137 24.3726 6.56738 25.7397C7.9834 27.1069 9.80225 28.3643 12.0239 29.5117C14.27 30.6592 16.8701 31.6357 19.8242 32.4414C21.7285 32.9541 23.3154 33.5156 24.585 34.126C25.8789 34.7119 26.9287 35.3589 27.7344 36.0669C28.5156 36.7993 29.0649 37.5806 29.3823 38.4106C29.7241 39.2407 29.895 40.1318 29.895 41.084ZM49.5239 1.67969V9.99268H59.668V46.7236H49.5239V55H80.3589V46.7236H69.9585V9.99268H80.3589V1.67969H49.5239ZM128.955 48.7744L128.918 27.7539H109.839V35.4443H118.665L118.628 45.1123C118.359 45.4297 117.957 45.7349 117.419 46.0278C116.907 46.2964 116.309 46.5405 115.625 46.7603C114.941 46.98 114.209 47.1509 113.428 47.2729C112.646 47.395 111.853 47.4561 111.047 47.4561C109.729 47.4316 108.545 47.2241 107.495 46.8335C106.47 46.4185 105.566 45.8203 104.785 45.0391C104.321 44.5752 103.894 44.0503 103.503 43.4644C103.137 42.854 102.808 42.1948 102.515 41.4868C102.051 40.2661 101.685 38.8623 101.416 37.2754C101.172 35.6885 101.05 33.9307 101.05 32.002V24.6777C101.05 23.1396 101.135 21.7114 101.306 20.3931C101.501 19.0747 101.77 17.8784 102.112 16.8042C102.551 15.4126 103.101 14.2041 103.76 13.1787C104.443 12.1533 105.2 11.3232 106.03 10.6885C106.665 10.2246 107.349 9.87061 108.081 9.62646C108.813 9.38232 109.57 9.26025 110.352 9.26025C111.792 9.26025 113.025 9.45557 114.05 9.84619C115.1 10.2124 115.967 10.7739 116.65 11.5308C117.261 12.2144 117.737 13.0566 118.079 14.0576C118.445 15.0586 118.713 16.2061 118.884 17.5H128.918C128.65 14.9365 128.076 12.6294 127.197 10.5786C126.343 8.52783 125.146 6.78223 123.608 5.3418C122.07 3.92578 120.178 2.83936 117.932 2.08252C115.71 1.32568 113.098 0.947266 110.095 0.947266C108.142 0.947266 106.287 1.21582 104.529 1.75293C102.771 2.29004 101.147 3.0835 99.6582 4.1333C98.3887 5.06104 97.2168 6.15967 96.1426 7.4292C95.0928 8.69873 94.165 10.127 93.3594 11.7139C92.5049 13.4961 91.8457 15.4858 91.3818 17.6831C90.918 19.856 90.686 22.2119 90.686 24.751V32.002C90.686 34.6631 90.918 37.1289 91.3818 39.3994C91.8701 41.6699 92.5781 43.7085 93.5059 45.5151C94.3115 47.1509 95.2881 48.6035 96.4355 49.873C97.6074 51.1426 98.9014 52.2168 100.317 53.0957C101.758 53.9502 103.333 54.5972 105.042 55.0366C106.775 55.5005 108.618 55.7324 110.571 55.7324C112.817 55.7324 114.917 55.5249 116.87 55.1099C118.823 54.6948 120.593 54.1455 122.18 53.4619C123.743 52.8027 125.098 52.0581 126.245 51.228C127.393 50.3979 128.296 49.5801 128.955 48.7744ZM172.498 55V1.67969H162.17L162.134 35.9204L147.412 1.67969H137.048V55H147.412V20.6128L162.244 55H172.498ZM82.7759 100.68H72.5586L72.522 136.019C72.4976 137.752 72.3145 139.278 71.9727 140.597C71.6309 141.915 71.1182 143.014 70.4346 143.893C69.7998 144.747 68.9941 145.394 68.0176 145.833C67.0654 146.249 65.9668 146.456 64.7217 146.456C63.5742 146.456 62.561 146.261 61.6821 145.87C60.8032 145.455 60.0586 144.845 59.4482 144.039C58.7891 143.16 58.2886 142.049 57.9468 140.707C57.6294 139.364 57.4585 137.801 57.4341 136.019L57.3975 100.68H47.1069L47.0703 136.019C47.0703 138.998 47.4854 141.659 48.3154 144.002C49.1699 146.322 50.3662 148.275 51.9043 149.862C53.4424 151.449 55.2856 152.657 57.4341 153.487C59.6069 154.317 62.0361 154.732 64.7217 154.732C67.5781 154.732 70.1172 154.317 72.3389 153.487C74.585 152.657 76.4893 151.437 78.0518 149.825C79.5898 148.238 80.7617 146.285 81.5674 143.966C82.3975 141.646 82.8125 138.998 82.8125 136.019L82.7759 100.68ZM103.247 134.444H111.194C114.099 134.444 116.724 134.029 119.067 133.199C121.411 132.369 123.413 131.209 125.073 129.72C126.709 128.255 127.966 126.51 128.845 124.483C129.749 122.457 130.2 120.248 130.2 117.855C130.2 115.292 129.749 112.96 128.845 110.86C127.966 108.761 126.709 106.954 125.073 105.44C123.413 103.951 121.411 102.792 119.067 101.961C116.724 101.107 114.099 100.68 111.194 100.68H92.9565V154H103.247V134.444ZM103.247 126.095V109.029H111.194C112.659 109.029 113.928 109.261 115.002 109.725C116.077 110.189 116.98 110.824 117.712 111.629C118.42 112.435 118.945 113.375 119.287 114.449C119.653 115.523 119.836 116.683 119.836 117.928C119.836 119.002 119.653 120.04 119.287 121.041C118.945 122.018 118.42 122.884 117.712 123.641C116.98 124.398 116.077 124.996 115.002 125.436C113.928 125.875 112.659 126.095 111.194 126.095H103.247Z" fill="white"/>
</svg>
