<svg width="29" height="29" viewBox="0 0 29 29" fill="none" xmlns="http://www.w3.org/2000/svg">
<path d="M14.3805 0.410156C6.61442 0.410156 0.297073 6.77881 0.297073 14.608C0.297073 22.4372 6.61442 28.8058 14.3805 28.8058C22.1466 28.8058 28.464 22.4372 28.464 14.608C28.464 6.77881 22.1466 0.410156 14.3805 0.410156ZM21.2612 11.845C21.2673 11.9906 21.271 12.1388 21.271 12.2876C21.271 16.8049 17.8585 22.0155 11.6196 22.0155C9.7042 22.0155 7.92051 21.4495 6.42031 20.4791C6.68545 20.5112 6.95426 20.5266 7.22919 20.5266C8.81878 20.5266 10.2816 19.9809 11.4414 19.0636C9.95709 19.0365 8.7055 18.0457 8.27259 16.6889C8.48017 16.729 8.69265 16.7506 8.91186 16.7506C9.22108 16.7506 9.52112 16.7093 9.80463 16.6302C8.25422 16.3148 7.0853 14.9345 7.0853 13.2771C7.0853 13.2623 7.0853 13.2481 7.0853 13.2339C7.5427 13.4901 8.06501 13.6444 8.62162 13.6623C7.71048 13.0481 7.11285 12.0024 7.11285 10.8159C7.11285 10.1894 7.2794 9.60232 7.57148 9.09614C9.24496 11.1647 11.7445 12.5258 14.563 12.6691C14.5048 12.4184 14.4742 12.1579 14.4742 11.89C14.4742 10.0017 15.9928 8.47082 17.8665 8.47082C18.8419 8.47082 19.723 8.88564 20.3415 9.55047C21.1136 9.39738 21.8405 9.11281 22.4956 8.72144C22.2428 9.51899 21.7045 10.1894 21.0034 10.6128C21.6904 10.5289 22.3432 10.3462 22.9524 10.0739C22.4981 10.7598 21.9231 11.3629 21.2612 11.845Z" fill="#0D38D3"/>
</svg>
