<svg width="200" height="56" viewBox="0 0 200 56" fill="none" xmlns="http://www.w3.org/2000/svg">
<path d="M12.3594 2.17969V0.9375H0.101562V2.17969H5.55078L5.53906 18H6.91016V2.17969H12.3594ZM17.0938 7.79297V0H15.6875V18H17.0938V9.28125C17.2266 8.88281 17.4141 8.50781 17.6562 8.15625C17.9062 7.80469 18.1953 7.5 18.5234 7.24219C18.875 6.95312 19.2656 6.72656 19.6953 6.5625C20.1328 6.39844 20.5938 6.31641 21.0781 6.31641C21.6328 6.30859 22.1133 6.39062 22.5195 6.5625C22.9336 6.72656 23.2773 6.96875 23.5508 7.28906C23.8086 7.59375 24 7.96875 24.125 8.41406C24.25 8.85156 24.3164 9.34375 24.3242 9.89062V18H25.7305V9.90234C25.7227 9.13672 25.625 8.45703 25.4375 7.86328C25.25 7.26172 24.9766 6.75391 24.6172 6.33984C24.25 5.92578 23.7969 5.61328 23.2578 5.40234C22.7266 5.19141 22.1133 5.08594 21.418 5.08594C20.8867 5.08594 20.3867 5.16406 19.918 5.32031C19.4492 5.47656 19.0234 5.69531 18.6406 5.97656C18.3203 6.20312 18.0273 6.47266 17.7617 6.78516C17.5039 7.08984 17.2812 7.42578 17.0938 7.79297ZM35.5039 18.2344C36.5586 18.2344 37.4844 18.0273 38.2812 17.6133C39.0781 17.1992 39.7188 16.6562 40.2031 15.9844L39.3125 15.3047C38.8594 15.8672 38.3164 16.2969 37.6836 16.5938C37.0508 16.8906 36.3438 17.0391 35.5625 17.0391C34.8828 17.0312 34.2656 16.8945 33.7109 16.6289C33.1562 16.3633 32.6797 16 32.2812 15.5391C31.8906 15.1016 31.582 14.5938 31.3555 14.0156C31.1367 13.4375 31.0117 12.8125 30.9805 12.1406V11.7539H40.4727V10.8984C40.4727 10.0938 40.3555 9.33984 40.1211 8.63672C39.8945 7.92578 39.5625 7.30469 39.125 6.77344C38.6797 6.25 38.1289 5.83984 37.4727 5.54297C36.8242 5.23828 36.082 5.08594 35.2461 5.08594C34.4492 5.08594 33.707 5.25 33.0195 5.57812C32.3398 5.90625 31.7461 6.35938 31.2383 6.9375C30.7227 7.51562 30.3164 8.19531 30.0195 8.97656C29.7305 9.75781 29.5859 10.6016 29.5859 11.5078V12.0117C29.5859 12.8633 29.7305 13.668 30.0195 14.4258C30.3086 15.1758 30.7148 15.8359 31.2383 16.4062C31.7539 16.9688 32.375 17.4141 33.1016 17.7422C33.8281 18.0703 34.6289 18.2344 35.5039 18.2344ZM35.2461 6.29297C35.8477 6.29297 36.3828 6.41016 36.8516 6.64453C37.3203 6.87109 37.7188 7.17578 38.0469 7.55859C38.3672 7.94141 38.6172 8.38672 38.7969 8.89453C38.9844 9.40234 39.0781 9.91016 39.0781 10.418V10.5469H31.0508C31.1289 9.9375 31.2852 9.375 31.5195 8.85938C31.7539 8.33594 32.0547 7.88281 32.4219 7.5C32.7812 7.125 33.1992 6.83203 33.6758 6.62109C34.1523 6.40234 34.6758 6.29297 35.2461 6.29297ZM69.207 0.9375H67.8594L67.8359 12.4922C67.8203 13.0781 67.7227 13.6406 67.543 14.1797C67.3711 14.7188 67.1172 15.1953 66.7812 15.6094C66.4453 16.0312 66.0312 16.3672 65.5391 16.6172C65.0547 16.8672 64.4961 16.9922 63.8633 16.9922C63.2305 16.9922 62.668 16.8672 62.1758 16.6172C61.6836 16.3672 61.2734 16.0352 60.9453 15.6211C60.6016 15.207 60.3398 14.7305 60.1602 14.1914C59.9805 13.6445 59.8867 13.0781 59.8789 12.4922L59.8555 0.9375H58.5195L58.5078 12.4922C58.5156 13.2734 58.6445 14.0117 58.8945 14.707C59.1523 15.4023 59.5117 16.0078 59.9727 16.5234C60.4336 17.0547 60.9922 17.4727 61.6484 17.7773C62.3047 18.082 63.043 18.2344 63.8633 18.2344C64.6758 18.2344 65.4102 18.082 66.0664 17.7773C66.7227 17.4648 67.2852 17.0469 67.7539 16.5234C68.2148 16 68.5742 15.3945 68.832 14.707C69.0898 14.0117 69.2188 13.2734 69.2188 12.4922L69.207 0.9375ZM73.332 18H74.7383V9.33984C74.8711 8.92578 75.0586 8.53906 75.3008 8.17969C75.5508 7.82031 75.8359 7.50781 76.1562 7.24219C76.5078 6.96094 76.8984 6.73828 77.3281 6.57422C77.7578 6.40234 78.2148 6.31641 78.6992 6.31641C79.2539 6.30859 79.7305 6.38281 80.1289 6.53906C80.5352 6.69531 80.875 6.92578 81.1484 7.23047C81.4141 7.53516 81.6094 7.91016 81.7344 8.35547C81.8672 8.80078 81.9375 9.3125 81.9453 9.89062V18H83.3516L83.3398 9.86719C83.3398 9.10938 83.2461 8.43359 83.0586 7.83984C82.8711 7.23828 82.5977 6.73438 82.2383 6.32812C81.8711 5.92188 81.418 5.61328 80.8789 5.40234C80.3477 5.19141 79.7344 5.08594 79.0391 5.08594C78.5156 5.08594 78.0234 5.16406 77.5625 5.32031C77.1016 5.46875 76.6758 5.67969 76.2852 5.95312C75.957 6.17969 75.6602 6.44922 75.3945 6.76172C75.1289 7.07422 74.8984 7.41406 74.7031 7.78125L74.6328 5.32031H73.332V18ZM88.0742 5.32031V6.57422H92.5625V16.7461H88.0742V18H98.2812V16.7461H93.957V5.32031H88.0742ZM92.1523 1.85156C92.1523 2.13281 92.2344 2.375 92.3984 2.57812C92.5625 2.78125 92.832 2.88281 93.207 2.88281C93.582 2.88281 93.8516 2.78125 94.0156 2.57812C94.1875 2.375 94.2734 2.13281 94.2734 1.85156C94.2734 1.69531 94.25 1.55078 94.2031 1.41797C94.1641 1.28516 94.0977 1.16797 94.0039 1.06641C93.918 0.980469 93.8086 0.910156 93.6758 0.855469C93.543 0.800781 93.3867 0.773438 93.207 0.773438C93.0273 0.773438 92.8711 0.800781 92.7383 0.855469C92.6055 0.910156 92.4961 0.980469 92.4102 1.06641C92.3164 1.16797 92.25 1.28906 92.2109 1.42969C92.1719 1.5625 92.1523 1.70312 92.1523 1.85156ZM106.508 18H107.656L112.988 5.32031H111.523L107.363 15.5977L107.094 16.3711L106.824 15.5859L102.629 5.32031H101.152L106.508 18ZM121.988 18.2344C123.043 18.2344 123.969 18.0273 124.766 17.6133C125.562 17.1992 126.203 16.6562 126.688 15.9844L125.797 15.3047C125.344 15.8672 124.801 16.2969 124.168 16.5938C123.535 16.8906 122.828 17.0391 122.047 17.0391C121.367 17.0312 120.75 16.8945 120.195 16.6289C119.641 16.3633 119.164 16 118.766 15.5391C118.375 15.1016 118.066 14.5938 117.84 14.0156C117.621 13.4375 117.496 12.8125 117.465 12.1406V11.7539H126.957V10.8984C126.957 10.0938 126.84 9.33984 126.605 8.63672C126.379 7.92578 126.047 7.30469 125.609 6.77344C125.164 6.25 124.613 5.83984 123.957 5.54297C123.309 5.23828 122.566 5.08594 121.73 5.08594C120.934 5.08594 120.191 5.25 119.504 5.57812C118.824 5.90625 118.23 6.35938 117.723 6.9375C117.207 7.51562 116.801 8.19531 116.504 8.97656C116.215 9.75781 116.07 10.6016 116.07 11.5078V12.0117C116.07 12.8633 116.215 13.668 116.504 14.4258C116.793 15.1758 117.199 15.8359 117.723 16.4062C118.238 16.9688 118.859 17.4141 119.586 17.7422C120.312 18.0703 121.113 18.2344 121.988 18.2344ZM121.73 6.29297C122.332 6.29297 122.867 6.41016 123.336 6.64453C123.805 6.87109 124.203 7.17578 124.531 7.55859C124.852 7.94141 125.102 8.38672 125.281 8.89453C125.469 9.40234 125.562 9.91016 125.562 10.418V10.5469H117.535C117.613 9.9375 117.77 9.375 118.004 8.85938C118.238 8.33594 118.539 7.88281 118.906 7.5C119.266 7.125 119.684 6.83203 120.16 6.62109C120.637 6.40234 121.16 6.29297 121.73 6.29297ZM139.379 5.08594C138.23 5.07812 137.23 5.31641 136.379 5.80078C135.535 6.28516 134.867 6.96094 134.375 7.82812L134.363 7.26562L134.281 5.32031H132.945V18H134.398L134.375 9.87891C134.531 9.30078 134.754 8.80078 135.043 8.37891C135.34 7.94922 135.688 7.59375 136.086 7.3125C136.5 7.02344 136.965 6.8125 137.48 6.67969C138.004 6.53906 138.562 6.46875 139.156 6.46875C139.5 6.46875 139.836 6.48828 140.164 6.52734C140.492 6.56641 140.816 6.62109 141.137 6.69141L141.324 5.33203C141.082 5.25391 140.781 5.19531 140.422 5.15625C140.07 5.10938 139.723 5.08594 139.379 5.08594ZM154.25 14.7656C154.25 15.0625 154.184 15.332 154.051 15.5742C153.926 15.8164 153.746 16.0312 153.512 16.2188C153.152 16.4922 152.727 16.6992 152.234 16.8398C151.742 16.9727 151.219 17.0391 150.664 17.0391C150.242 17.0391 149.809 17 149.363 16.9219C148.926 16.8359 148.523 16.6914 148.156 16.4883C147.789 16.2852 147.477 16.0195 147.219 15.6914C146.969 15.3555 146.82 14.9375 146.773 14.4375H145.367C145.391 15.0156 145.539 15.5391 145.812 16.0078C146.094 16.4766 146.477 16.875 146.961 17.2031C147.43 17.5234 147.984 17.7773 148.625 17.9648C149.266 18.1445 149.945 18.2344 150.664 18.2344C151.328 18.2344 151.98 18.1523 152.621 17.9883C153.262 17.8242 153.824 17.5703 154.309 17.2266C154.707 16.9375 155.031 16.582 155.281 16.1602C155.531 15.7305 155.656 15.2422 155.656 14.6953C155.656 14.1172 155.523 13.625 155.258 13.2188C155 12.8047 154.652 12.4531 154.215 12.1641C153.77 11.875 153.254 11.6367 152.668 11.4492C152.082 11.2617 151.469 11.0977 150.828 10.957C150.328 10.8555 149.848 10.7422 149.387 10.6172C148.934 10.4844 148.543 10.3203 148.215 10.125C147.887 9.94531 147.637 9.72266 147.465 9.45703C147.293 9.18359 147.207 8.86328 147.207 8.49609C147.207 8.12891 147.305 7.80859 147.5 7.53516C147.695 7.25391 147.949 7.02344 148.262 6.84375C148.574 6.65625 148.93 6.51953 149.328 6.43359C149.734 6.33984 150.152 6.29297 150.582 6.29297C151.035 6.29297 151.473 6.35156 151.895 6.46875C152.324 6.58594 152.707 6.75391 153.043 6.97266C153.371 7.19141 153.637 7.46094 153.84 7.78125C154.051 8.10156 154.16 8.46484 154.168 8.87109H155.586C155.562 8.26953 155.414 7.73438 155.141 7.26562C154.875 6.79688 154.52 6.39844 154.074 6.07031C153.629 5.75 153.105 5.50781 152.504 5.34375C151.91 5.17188 151.27 5.08594 150.582 5.08594C149.973 5.08594 149.379 5.16406 148.801 5.32031C148.23 5.47656 147.73 5.69531 147.301 5.97656C146.848 6.28125 146.484 6.64844 146.211 7.07812C145.945 7.50781 145.812 7.99609 145.812 8.54297C145.812 9.12109 145.945 9.61328 146.211 10.0195C146.484 10.418 146.84 10.7461 147.277 11.0039C147.746 11.2773 148.25 11.5 148.789 11.6719C149.328 11.8438 149.922 11.9961 150.57 12.1289C151.086 12.2383 151.582 12.3711 152.059 12.5273C152.535 12.6836 152.941 12.8711 153.277 13.0898C153.582 13.2852 153.82 13.5234 153.992 13.8047C154.164 14.0781 154.25 14.3984 154.25 14.7656ZM160.145 5.32031V6.57422H164.633V16.7461H160.145V18H170.352V16.7461H166.027V5.32031H160.145ZM164.223 1.85156C164.223 2.13281 164.305 2.375 164.469 2.57812C164.633 2.78125 164.902 2.88281 165.277 2.88281C165.652 2.88281 165.922 2.78125 166.086 2.57812C166.258 2.375 166.344 2.13281 166.344 1.85156C166.344 1.69531 166.32 1.55078 166.273 1.41797C166.234 1.28516 166.168 1.16797 166.074 1.06641C165.988 0.980469 165.879 0.910156 165.746 0.855469C165.613 0.800781 165.457 0.773438 165.277 0.773438C165.098 0.773438 164.941 0.800781 164.809 0.855469C164.676 0.910156 164.566 0.980469 164.48 1.06641C164.387 1.16797 164.32 1.28906 164.281 1.42969C164.242 1.5625 164.223 1.70312 164.223 1.85156ZM178.918 2.07422H177.488V5.32031H173.961V6.48047H177.488V14.4258C177.496 15.1211 177.598 15.7109 177.793 16.1953C177.996 16.6719 178.273 17.0625 178.625 17.3672C178.977 17.6719 179.391 17.8906 179.867 18.0234C180.352 18.1641 180.875 18.2344 181.438 18.2344C181.711 18.2344 181.984 18.2227 182.258 18.1992C182.539 18.1836 182.809 18.1562 183.066 18.1172C183.27 18.0859 183.461 18.0469 183.641 18C183.828 17.9453 183.996 17.8867 184.145 17.8242L183.922 16.7578C183.805 16.7734 183.668 16.7969 183.512 16.8281C183.355 16.8516 183.191 16.875 183.02 16.8984C182.801 16.9297 182.578 16.9531 182.352 16.9688C182.125 16.9844 181.898 16.9922 181.672 16.9922C181.289 16.9922 180.93 16.9492 180.594 16.8633C180.266 16.7773 179.977 16.6328 179.727 16.4297C179.477 16.2344 179.277 15.9766 179.129 15.6562C178.988 15.3281 178.914 14.918 178.906 14.4258V6.48047H183.605V5.32031H178.906L178.918 2.07422ZM189.312 23.1211C189.859 23.1211 190.34 23.0273 190.754 22.8398C191.176 22.6602 191.547 22.4258 191.867 22.1367C192.18 21.8477 192.453 21.5195 192.688 21.1523C192.922 20.7852 193.125 20.4102 193.297 20.0273L199.848 5.32031H198.254L194.129 14.9766L193.672 16.0781L193.215 14.9414L188.855 5.32031H187.273L192.98 17.6836L192.113 19.5352C191.988 19.8008 191.84 20.0703 191.668 20.3438C191.496 20.6172 191.293 20.8672 191.059 21.0938C190.824 21.3203 190.559 21.5039 190.262 21.6445C189.973 21.7852 189.648 21.8555 189.289 21.8555C189.148 21.8555 188.988 21.8477 188.809 21.832C188.637 21.8164 188.461 21.7969 188.281 21.7734L188.117 22.957C188.281 22.9961 188.473 23.0312 188.691 23.0625C188.918 23.1016 189.125 23.1211 189.312 23.1211ZM0.546875 43.4727V43.8477C0.546875 44.7148 0.675781 45.5352 0.933594 46.3086C1.19141 47.082 1.56641 47.7578 2.05859 48.3359C2.53516 48.9219 3.125 49.3867 3.82812 49.7305C4.53125 50.0664 5.32812 50.2344 6.21875 50.2344C7.10156 50.2344 7.89062 50.0625 8.58594 49.7188C9.28906 49.375 9.88281 48.9141 10.3672 48.3359C10.8438 47.75 11.2109 47.0742 11.4688 46.3086C11.7266 45.5352 11.8555 44.7148 11.8555 43.8477V43.4727C11.8555 42.6055 11.7266 41.7852 11.4688 41.0117C11.2109 40.2383 10.8398 39.5625 10.3555 38.9844C9.87109 38.3984 9.27734 37.9375 8.57422 37.6016C7.87891 37.2578 7.08594 37.0859 6.19531 37.0859C5.30469 37.0859 4.51172 37.2578 3.81641 37.6016C3.12109 37.9453 2.53125 38.4062 2.04688 38.9844C1.5625 39.5703 1.19141 40.25 0.933594 41.0234C0.675781 41.7969 0.546875 42.6133 0.546875 43.4727ZM1.94141 43.8477V43.4727C1.94922 42.8086 2.04297 42.1641 2.22266 41.5391C2.41016 40.9141 2.6875 40.3633 3.05469 39.8867C3.40625 39.4023 3.84375 39.0156 4.36719 38.7266C4.89844 38.4375 5.50781 38.293 6.19531 38.293C6.88281 38.293 7.48828 38.4375 8.01172 38.7266C8.54297 39.0156 8.99219 39.4023 9.35938 39.8867C9.71094 40.3633 9.98047 40.9141 10.168 41.5391C10.3555 42.1641 10.4531 42.8086 10.4609 43.4727V43.8477C10.4531 44.5195 10.3555 45.168 10.168 45.793C9.98828 46.418 9.72266 46.9688 9.37109 47.4453C9.00391 47.9297 8.55859 48.3164 8.03516 48.6055C7.51172 48.8945 6.90625 49.0391 6.21875 49.0391C5.52344 49.0391 4.91016 48.8945 4.37891 48.6055C3.84766 48.3164 3.40625 47.9336 3.05469 47.457C2.6875 46.9727 2.41016 46.418 2.22266 45.793C2.04297 45.168 1.94922 44.5195 1.94141 43.8477ZM18.9805 50H20.4453L20.4219 38.4805H25.4727V37.3203H20.4219V36.3125C20.4219 35.6875 20.5156 35.1445 20.7031 34.6836C20.8984 34.2227 21.1602 33.8555 21.4883 33.582C21.8164 33.3242 22.1953 33.1406 22.625 33.0312C23.0625 32.9141 23.5586 32.8555 24.1133 32.8555C24.5273 32.8555 24.9258 32.8828 25.3086 32.9375C25.6914 32.9922 26.0508 33.0625 26.3867 33.1484L26.5625 31.9531C26.3594 31.8984 26.1562 31.8555 25.9531 31.8242C25.7578 31.7852 25.5586 31.7539 25.3555 31.7305C25.1289 31.6992 24.8984 31.6758 24.6641 31.6602C24.4375 31.6367 24.2031 31.625 23.9609 31.625C23.2812 31.625 22.6406 31.707 22.0391 31.8711C21.4453 32.0352 20.9258 32.3008 20.4805 32.668C20.0352 33.043 19.6797 33.5273 19.4141 34.1211C19.1484 34.7148 19.0117 35.4453 19.0039 36.3125V37.3203H15.5352V38.4805H19.0039L18.9805 50ZM48.7461 50H50.0586L55.5195 32.9375H54.0312L49.6484 46.9883L49.3906 47.8789L49.1445 47L44.7734 32.9375H43.2852L48.7461 50ZM59.2461 37.3203V38.5742H63.7344V48.7461H59.2461V50H69.4531V48.7461H65.1289V37.3203H59.2461ZM63.3242 33.8516C63.3242 34.1328 63.4062 34.375 63.5703 34.5781C63.7344 34.7812 64.0039 34.8828 64.3789 34.8828C64.7539 34.8828 65.0234 34.7812 65.1875 34.5781C65.3594 34.375 65.4453 34.1328 65.4453 33.8516C65.4453 33.6953 65.4219 33.5508 65.375 33.418C65.3359 33.2852 65.2695 33.168 65.1758 33.0664C65.0898 32.9805 64.9805 32.9102 64.8477 32.8555C64.7148 32.8008 64.5586 32.7734 64.3789 32.7734C64.1992 32.7734 64.043 32.8008 63.9102 32.8555C63.7773 32.9102 63.668 32.9805 63.582 33.0664C63.4883 33.168 63.4219 33.2891 63.3828 33.4297C63.3438 33.5625 63.3242 33.7031 63.3242 33.8516ZM81.7227 37.0859C80.5742 37.0781 79.5742 37.3164 78.7227 37.8008C77.8789 38.2852 77.2109 38.9609 76.7188 39.8281L76.707 39.2656L76.625 37.3203H75.2891V50H76.7422L76.7188 41.8789C76.875 41.3008 77.0977 40.8008 77.3867 40.3789C77.6836 39.9492 78.0312 39.5938 78.4297 39.3125C78.8438 39.0234 79.3086 38.8125 79.8242 38.6797C80.3477 38.5391 80.9062 38.4688 81.5 38.4688C81.8438 38.4688 82.1797 38.4883 82.5078 38.5273C82.8359 38.5664 83.1602 38.6211 83.4805 38.6914L83.668 37.332C83.4258 37.2539 83.125 37.1953 82.7656 37.1562C82.4141 37.1094 82.0664 37.0859 81.7227 37.0859ZM87.3477 43.543V43.7891C87.3477 44.6172 87.4531 45.4297 87.6641 46.2266C87.875 47.0156 88.1992 47.707 88.6367 48.3008C89.0508 48.8867 89.5664 49.3555 90.1836 49.707C90.8008 50.0586 91.5273 50.2344 92.3633 50.2344C92.7852 50.2344 93.1914 50.1836 93.582 50.082C93.9805 49.9883 94.3516 49.8516 94.6953 49.6719C94.9844 49.5234 95.25 49.3477 95.4922 49.1445C95.7422 48.9336 95.9609 48.6953 96.1484 48.4297V49.8242C96.1484 50.4258 96.0625 50.9727 95.8906 51.4648C95.7266 51.957 95.4883 52.3789 95.1758 52.7305C94.8477 53.0898 94.4492 53.3672 93.9805 53.5625C93.5195 53.7578 92.9883 53.8555 92.3867 53.8555C92.0039 53.8555 91.6367 53.8047 91.2852 53.7031C90.9414 53.6094 90.6133 53.4688 90.3008 53.2812C90.043 53.1406 89.7891 52.9648 89.5391 52.7539C89.2969 52.543 89.0625 52.3008 88.8359 52.0273L88.0508 52.8828C88.3008 53.2266 88.5859 53.5234 88.9062 53.7734C89.2344 54.0312 89.5742 54.2461 89.9258 54.418C90.3398 54.6289 90.7656 54.7852 91.2031 54.8867C91.6406 54.9961 92.0664 55.0508 92.4805 55.0508C93.2617 55.0508 93.9648 54.9219 94.5898 54.6641C95.2148 54.4062 95.7461 54.043 96.1836 53.5742C96.6211 53.1133 96.957 52.5586 97.1914 51.9102C97.4336 51.2695 97.5547 50.5586 97.5547 49.7773V37.3203H96.2539L96.1953 39.0898C96.0156 38.8164 95.8086 38.5664 95.5742 38.3398C95.3477 38.1133 95.0977 37.918 94.8242 37.7539C94.4805 37.5352 94.1016 37.3711 93.6875 37.2617C93.2812 37.1445 92.8477 37.0859 92.3867 37.0859C91.5039 37.0859 90.7422 37.2734 90.1016 37.6484C89.4688 38.0234 88.9492 38.5156 88.543 39.125C88.1367 39.7266 87.8359 40.4062 87.6406 41.1641C87.4453 41.9219 87.3477 42.7148 87.3477 43.543ZM88.7539 43.7891V43.543C88.7539 42.918 88.8203 42.3008 88.9531 41.6914C89.0859 41.082 89.3008 40.5312 89.5977 40.0391C89.8945 39.5391 90.293 39.1289 90.793 38.8086C91.293 38.4805 91.9141 38.3164 92.6562 38.3164C93.0703 38.3164 93.457 38.3789 93.8164 38.5039C94.1836 38.6211 94.5156 38.7891 94.8125 39.0078C95.1094 39.2266 95.3711 39.4844 95.5977 39.7812C95.8242 40.0781 96.0078 40.4102 96.1484 40.7773V46.7305C96.0078 47.082 95.8164 47.3984 95.5742 47.6797C95.3398 47.9609 95.0742 48.1992 94.7773 48.3945C94.4648 48.5898 94.1289 48.7383 93.7695 48.8398C93.4102 48.9414 93.0312 48.9922 92.6328 48.9922C91.9453 48.9922 91.3555 48.8477 90.8633 48.5586C90.3711 48.2695 89.9766 47.8906 89.6797 47.4219C89.3594 46.9297 89.125 46.3633 88.9766 45.7227C88.8359 45.082 88.7617 44.4375 88.7539 43.7891ZM102.488 37.3203V38.5742H106.977V48.7461H102.488V50H112.695V48.7461H108.371V37.3203H102.488ZM106.566 33.8516C106.566 34.1328 106.648 34.375 106.812 34.5781C106.977 34.7812 107.246 34.8828 107.621 34.8828C107.996 34.8828 108.266 34.7812 108.43 34.5781C108.602 34.375 108.688 34.1328 108.688 33.8516C108.688 33.6953 108.664 33.5508 108.617 33.418C108.578 33.2852 108.512 33.168 108.418 33.0664C108.332 32.9805 108.223 32.9102 108.09 32.8555C107.957 32.8008 107.801 32.7734 107.621 32.7734C107.441 32.7734 107.285 32.8008 107.152 32.8555C107.02 32.9102 106.91 32.9805 106.824 33.0664C106.73 33.168 106.664 33.2891 106.625 33.4297C106.586 33.5625 106.566 33.7031 106.566 33.8516ZM116.574 50H117.98V41.3398C118.113 40.9258 118.301 40.5391 118.543 40.1797C118.793 39.8203 119.078 39.5078 119.398 39.2422C119.75 38.9609 120.141 38.7383 120.57 38.5742C121 38.4023 121.457 38.3164 121.941 38.3164C122.496 38.3086 122.973 38.3828 123.371 38.5391C123.777 38.6953 124.117 38.9258 124.391 39.2305C124.656 39.5352 124.852 39.9102 124.977 40.3555C125.109 40.8008 125.18 41.3125 125.188 41.8906V50H126.594L126.582 41.8672C126.582 41.1094 126.488 40.4336 126.301 39.8398C126.113 39.2383 125.84 38.7344 125.48 38.3281C125.113 37.9219 124.66 37.6133 124.121 37.4023C123.59 37.1914 122.977 37.0859 122.281 37.0859C121.758 37.0859 121.266 37.1641 120.805 37.3203C120.344 37.4688 119.918 37.6797 119.527 37.9531C119.199 38.1797 118.902 38.4492 118.637 38.7617C118.371 39.0742 118.141 39.4141 117.945 39.7812L117.875 37.3203H116.574V50ZM131.316 37.3203V38.5742H135.805V48.7461H131.316V50H141.523V48.7461H137.199V37.3203H131.316ZM135.395 33.8516C135.395 34.1328 135.477 34.375 135.641 34.5781C135.805 34.7812 136.074 34.8828 136.449 34.8828C136.824 34.8828 137.094 34.7812 137.258 34.5781C137.43 34.375 137.516 34.1328 137.516 33.8516C137.516 33.6953 137.492 33.5508 137.445 33.418C137.406 33.2852 137.34 33.168 137.246 33.0664C137.16 32.9805 137.051 32.9102 136.918 32.8555C136.785 32.8008 136.629 32.7734 136.449 32.7734C136.27 32.7734 136.113 32.8008 135.98 32.8555C135.848 32.9102 135.738 32.9805 135.652 33.0664C135.559 33.168 135.492 33.2891 135.453 33.4297C135.414 33.5625 135.395 33.7031 135.395 33.8516ZM154.121 50H155.621V49.8477C155.512 49.4648 155.418 49.0586 155.34 48.6289C155.27 48.1914 155.23 47.7617 155.223 47.3398V41.2109C155.215 40.5234 155.086 39.9219 154.836 39.4062C154.586 38.8906 154.242 38.457 153.805 38.1055C153.367 37.7695 152.855 37.5156 152.27 37.3438C151.684 37.1719 151.055 37.0859 150.383 37.0859C149.711 37.0859 149.078 37.1797 148.484 37.3672C147.898 37.5547 147.383 37.8125 146.938 38.1406C146.492 38.4766 146.137 38.8711 145.871 39.3242C145.605 39.7773 145.461 40.2734 145.438 40.8125L146.844 40.8242C146.859 40.4258 146.965 40.0703 147.16 39.7578C147.355 39.4375 147.613 39.168 147.934 38.9492C148.246 38.7305 148.609 38.5625 149.023 38.4453C149.438 38.3281 149.871 38.2695 150.324 38.2695C150.816 38.2695 151.273 38.3359 151.695 38.4688C152.125 38.5938 152.496 38.7773 152.809 39.0195C153.121 39.2617 153.367 39.5664 153.547 39.9336C153.727 40.293 153.82 40.7109 153.828 41.1875V42.6172H151.074C150.285 42.6172 149.531 42.6914 148.812 42.8398C148.094 42.9805 147.465 43.2109 146.926 43.5312C146.379 43.8516 145.941 44.2695 145.613 44.7852C145.293 45.293 145.133 45.9102 145.133 46.6367C145.133 47.1758 145.242 47.668 145.461 48.1133C145.68 48.5586 145.977 48.9336 146.352 49.2383C146.727 49.5508 147.172 49.7969 147.688 49.9766C148.203 50.1484 148.754 50.2344 149.34 50.2344C149.809 50.2344 150.258 50.1836 150.688 50.082C151.125 49.9883 151.539 49.8477 151.93 49.6602C152.312 49.4805 152.664 49.2617 152.984 49.0039C153.312 48.7383 153.598 48.4453 153.84 48.125C153.855 48.4531 153.883 48.7773 153.922 49.0977C153.969 49.418 154.035 49.7188 154.121 50ZM149.504 48.9805C149.09 48.9805 148.703 48.9219 148.344 48.8047C147.984 48.6875 147.672 48.5234 147.406 48.3125C147.133 48.1016 146.918 47.8438 146.762 47.5391C146.613 47.2266 146.539 46.8828 146.539 46.5078C146.531 46.0312 146.633 45.6289 146.844 45.3008C147.055 44.9727 147.34 44.6953 147.699 44.4688C148.137 44.1875 148.668 43.9922 149.293 43.8828C149.918 43.7734 150.578 43.7148 151.273 43.707H153.828V46.4844C153.648 46.8594 153.414 47.2031 153.125 47.5156C152.836 47.8203 152.504 48.082 152.129 48.3008C151.754 48.5195 151.344 48.6875 150.898 48.8047C150.453 48.9219 149.988 48.9805 149.504 48.9805Z" fill="#0D38D3"/>
</svg>
