<?xml version="1.0" encoding="utf-8"?>
<!-- Generator: Adobe Adobe Illustrator 24.2.0, SVG Export Plug-In . SVG Version: 6.00 Build 0)  -->
<svg version="1.1" xmlns="http://www.w3.org/2000/svg" xmlns:xlink="http://www.w3.org/1999/xlink" x="0px" y="0px"
	 viewBox="0 0 606 606" style="enable-background:new 0 0 606 606;" xml:space="preserve">
<style type="text/css">
	.st0{fill:#003046;}
	.st1{fill:#43D6B9;}
	.st2{fill:#FFFFFF;}
	.st3{display:none;fill:#003046;}
	.st4{display:none;}
</style>
<g id="Logo_Horizontal_1_">
	<rect x="762.47" y="-716" class="st0" width="792" height="612"/>
	<rect x="-89.53" y="-716" class="st1" width="792" height="612"/>
	<g>
		<g>
			<path d="M262.86-397.43h63.95v67.62h-63.95V-397.43z M326.62-413.88h-80.21v100.52h96.85v-200.5h-16.63V-413.88z M28.4-313.37
				h83.73v-16.45H44.85v-67.62h67.28v-16.45H28.4V-313.37z M211.24-329.81h-64.34v-67.62h64.34V-329.81z M130.46-313.37h97.23
				v-100.52h-97.23V-313.37z M438.51-374.65h-60.09v-22.79h60.09V-374.65z M378.42-329.81v-28.38h76.54v-55.68h-92.99v100.52h93.96
				v-16.45H378.42z"/>
			<path d="M290.39-445.18c0,6.46,3.29,9.69,7.36,9.69c4.97,0,8.2-4.2,8.2-11.37c0-5.36-2.91-9.49-7.55-9.43
				C293.81-456.22,290.39-451.96,290.39-445.18 M251.77-475.59c6.65-6.59,11.49-15.05,11.49-23.05c0-5.3-1.61-8.33-4.97-8.33
				c-3.55,0-6.14,3.68-6.33,16.73L251.77-475.59z M177.89-453.57c-1.74,1.74-3.94,3.74-6.01,5.42c-2.45,1.94-4.65,1.94-6.14,0.45
				c-1.48-1.48-1.23-3.75,0.71-5.87c5.88-6.46,11.88-10.59,14.85-10.59c2.65,0,3.87,1.55,4.13,6.14c0.52,8.65,1.61,22.54,8.2,22.54
				c5.1,0,8.01-9.43,8.01-23.38c0-3.36,1.42-5.3,4-5.3s4,1.94,4,5.3c0,13.88,0.39,23.38,5.75,23.38c6.01,0,9.69-14.01,9.69-24.93
				c0-2.58,1.23-3.74,3.36-3.74c4.84,0,10.14-1.87,15.17-5.04l0.26-22.09c0.19-15.95,5.68-23.57,14.66-23.57
				c8.07,0,12.72,5.29,12.72,14.92c0,13.17-8.85,25.96-19.63,34.35l-0.07,5.49c2.39-1.93,6.07-4.07,10.01-4.07
				c6.65,0,10.14,4.39,10.14,15.11c0,10.2,2.13,13.56,5.88,13.56c2.33,0,4.07-1.29,5.49-3.1c-0.58-1.94-0.84-4.07-0.84-6.39
				c0-9.75,6.46-19.18,16.85-19.18c9.23,0,14.98,7.23,14.98,17.05c0,10.85-7.23,19.5-16.85,19.5c-4.52,0-8.2-1.68-10.78-4.59
				c-2.39,2.39-5.62,4.59-9.82,4.59c-7.68,0-12.91-5.68-12.91-21.7c0-5.04-1.36-6.98-4.26-6.98c-2.52,0-5.81,2.52-8.01,4.52
				l-0.26,19.12c-0.07,3.36-1.55,5.04-4,5.04c-2.45,0-4.07-1.68-4-5.04l0.32-27.7c-3.62,1.94-7.23,3.29-10.66,4
				c-1.23,15.89-7.1,28.74-18.21,28.74c-5.49,0-8.53-4.07-10.14-8.07c-2.26,4-5.88,8.07-11.3,8.07
				C179.38-427.61,177.96-445.95,177.89-453.57 M99.5-449.57c6.65-10.85,12.01-26.48,12.01-42.17c0-11.82-2.39-15.24-5.68-15.24
				c-4.07,0-8.39,6.26-8.46,31.9C97.37-463.9,98.14-455.64,99.5-449.57 M37.63-479.6c0,2.78-2.65,5.75-5.81,5.75
				c-3.29,0-5.3-2.45-5.3-5.49c0-2.9,2.71-5.1,6.14-5.1C35.63-484.44,37.63-482.24,37.63-479.6 M-5.44-373.56
				c4.71,0,7.36-4.52,7.49-18.15l0.26-20.27c-7.81,10.85-13.95,21.18-13.95,29.06C-11.64-376.47-9.06-373.56-5.44-373.56
				 M-6.08-435.49c3.42,0,6.33-1.1,8.65-3.49l0.19-12.59c-2.39-3.36-5.88-4.72-8.78-4.72c-5.55,0-9.23,4.39-9.23,10.53
				C-15.25-439.56-11.57-435.49-6.08-435.49 M3.02-461.13c0.52-1.81,1.87-3.04,3.74-3.04c2.39,0,4,2,4,4.58l-0.26,25.64
				c5.75-7.55,11.62-16.34,16.34-24.99c1.81-3.36,2.9-5.23,5.04-5.23c2.65,0,3.62,1.87,3.62,4.72v11.88
				c0,9.94,1.81,12.08,4.52,12.08c5.1,0,9.82-11.49,10.85-23.96c0.26-3.49,1.62-4.91,4.78-4.72l15.5,0.9
				c3.62,0.19,4.46,1.94,4.58,6.46l0.26,8.85c0.26,9.69,3.16,12.46,7.36,12.46c3.03,0,6.59-2.2,10.07-5.94
				c-2.65-7.75-4.2-19.31-4.2-35.84c0-28.35,7.88-37.58,17.31-37.58c9.04,0,13.11,7.49,13.11,20.73c0,18.66-7.1,40.04-17.11,53.47
				c2,3.68,4.33,5.17,6.59,5.17c6.07,0,12.4-14.34,17.24-23.05c2.65-4.78,3.16-6.01,6.07-5.62c10.33,1.42,18.15,7.95,18.15,18.98
				c0,11.17-9.3,19.7-21.96,17.57c-3.03-0.52-4.58-2.2-4.58-4.39c0-2.39,2.2-3.62,5.62-3.17c9.36,1.23,12.78-4.26,12.78-9.49
				c0-5.75-3.48-9.75-9.17-11.11c-11.36,24.35-17.76,28.16-24.99,28.16c-4.33,0-8.27-1.87-11.5-6.65c-4.52,4.2-9.43,6.65-14.46,6.65
				c-8.72,0-14.14-5.23-14.4-18.53l-0.19-9.24l-9.23-0.58c-1.49,15.43-7.75,28.35-19.18,28.35c-6.91,0-12.14-5.43-10.91-20.28
				c-4.39,8.14-11.43,17.89-18.02,26.61l-0.32,28.67c-0.19,19.7-6.01,26.93-16.27,26.93c-7.62,0-13.43-5.17-13.43-16.14
				c0-13.82,10.14-27.06,22.09-42.17l0.06-6.39c-2.39,1.61-5.55,2.78-9.49,2.78c-9.17,0-16.4-6.65-16.4-17.83
				c0-10.07,7.3-18.73,17.24-18.73C-2.27-464.16,0.83-462.94,3.02-461.13"/>
		</g>
		<g>
			<g>
				<path class="st2" d="M485.55-390.7c-0.19-0.43-0.35-0.88-0.48-1.36c-0.13-0.48-0.23-0.96-0.29-1.46
					c-0.52,0.92-1.21,1.68-2.06,2.28c-0.85,0.6-1.87,0.9-3.05,0.9c-1.97,0-3.49-0.51-4.56-1.52c-1.07-1.02-1.6-2.4-1.6-4.15
					c0-1.84,0.71-3.27,2.13-4.29c1.42-1.01,3.5-1.52,6.22-1.52h2.84v-1.5c0-0.91-0.24-1.61-0.71-2.11c-0.48-0.5-1.18-0.75-2.11-0.75
					c-0.82,0-1.46,0.2-1.91,0.6c-0.45,0.4-0.67,0.96-0.67,1.66l-4.91-0.02l-0.02-0.1c-0.08-1.59,0.61-2.96,2.07-4.12
					c1.46-1.16,3.38-1.73,5.76-1.73c2.25,0,4.08,0.57,5.48,1.71c1.4,1.14,2.11,2.77,2.11,4.88v7.78c0,0.88,0.07,1.71,0.2,2.49
					c0.13,0.78,0.35,1.55,0.64,2.31H485.55z M480.91-394.09c0.89,0,1.69-0.22,2.38-0.66c0.7-0.44,1.17-0.95,1.41-1.53v-2.66h-2.84
					c-1.08,0-1.9,0.27-2.45,0.81c-0.56,0.54-0.84,1.19-0.84,1.96c0,0.63,0.21,1.13,0.63,1.51
					C479.62-394.29,480.19-394.09,480.91-394.09z"/>
				<path class="st2" d="M499.69-414.14v4.61h3.17v3.57h-3.17v9.59c0,0.73,0.15,1.25,0.45,1.57s0.71,0.47,1.22,0.47
					c0.27,0,0.5-0.01,0.69-0.04c0.19-0.03,0.42-0.08,0.67-0.15l0.44,3.67c-0.51,0.17-1.01,0.3-1.5,0.39
					c-0.49,0.09-1.02,0.13-1.58,0.13c-1.75,0-3.1-0.48-4.05-1.44c-0.95-0.96-1.42-2.49-1.42-4.58v-9.61h-2.75v-3.57h2.75v-4.61
					H499.69z"/>
				<path class="st2" d="M521.01-414.14v4.61h3.17v3.57h-3.17v9.59c0,0.73,0.15,1.25,0.45,1.57s0.71,0.47,1.22,0.47
					c0.27,0,0.5-0.01,0.69-0.04c0.19-0.03,0.42-0.08,0.67-0.15l0.43,3.67c-0.51,0.17-1.01,0.3-1.5,0.39
					c-0.49,0.09-1.01,0.13-1.58,0.13c-1.75,0-3.1-0.48-4.05-1.44c-0.95-0.96-1.42-2.49-1.42-4.58v-9.61h-2.75v-3.57h2.75v-4.61
					H521.01z"/>
				<path class="st2" d="M532.37-407.15c0.59-0.86,1.32-1.53,2.18-2.01c0.86-0.48,1.81-0.72,2.85-0.72c1.96,0,3.5,0.65,4.62,1.96
					c1.12,1.31,1.68,3.32,1.68,6.05v11.17h-5.08v-11.23c0-1.46-0.26-2.5-0.77-3.11s-1.29-0.92-2.31-0.92c-0.7,0-1.31,0.12-1.84,0.38
					c-0.53,0.25-0.98,0.6-1.32,1.06v13.83h-5.08v-27.15h5.08V-407.15z"/>
				<path class="st2" d="M555.87-390.34c-2.72,0-4.89-0.87-6.51-2.61s-2.44-3.95-2.44-6.63v-0.7c0-2.8,0.77-5.1,2.31-6.91
					c1.54-1.81,3.6-2.71,6.19-2.7c2.54,0,4.51,0.77,5.92,2.3c1.4,1.53,2.11,3.6,2.11,6.21v2.77h-11.24l-0.04,0.1
					c0.09,1.24,0.51,2.25,1.25,3.05c0.74,0.8,1.74,1.2,3,1.2c1.12,0,2.06-0.11,2.8-0.33c0.74-0.22,1.55-0.58,2.44-1.06l1.38,3.13
					c-0.77,0.63-1.77,1.15-3.01,1.56C558.77-390.54,557.39-390.34,555.87-390.34z M555.41-405.96c-0.94,0-1.68,0.36-2.23,1.08
					c-0.55,0.72-0.88,1.67-1.01,2.84l0.05,0.09h6.23v-0.45c0-1.08-0.25-1.94-0.76-2.58C557.2-405.64,556.43-405.96,555.41-405.96z"
					/>
				<path class="st2" d="M494.97-377.07v16.81c0,2.84-0.94,5.04-2.82,6.58s-4.34,2.31-7.38,2.31c-3.03,0-5.47-0.77-7.34-2.31
					s-2.79-3.74-2.79-6.58v-16.81h5.1v16.8c0,1.67,0.45,2.92,1.34,3.75s2.12,1.24,3.69,1.24c1.59,0,2.84-0.41,3.74-1.23
					c0.91-0.82,1.36-2.08,1.36-3.76v-16.8H494.97z"/>
				<path class="st2" d="M503.64-370.56l0.23,2.7c0.63-0.96,1.4-1.71,2.32-2.25c0.92-0.53,1.94-0.8,3.08-0.8
					c1.9,0,3.39,0.6,4.46,1.79c1.07,1.2,1.6,3.07,1.6,5.62v11.77h-5.1v-11.77c0-1.27-0.25-2.17-0.77-2.7s-1.28-0.79-2.31-0.79
					c-0.67,0-1.28,0.14-1.81,0.41c-0.53,0.27-0.98,0.66-1.34,1.16v13.69h-5.08v-18.83H503.64z"/>
				<path class="st2" d="M524.45-375.06h-5.08v-3.81h5.08V-375.06z M524.45-351.73h-5.08v-18.83h5.08V-351.73z"/>
				<path class="st2" d="M535.43-358.74l0.33,1.74h0.1l0.35-1.74l3.1-11.82h5.31l-6.4,18.83h-4.86l-6.4-18.83h5.31L535.43-358.74z"
					/>
				<path class="st2" d="M554.91-351.36c-2.72,0-4.89-0.87-6.51-2.61s-2.44-3.95-2.44-6.63v-0.7c0-2.8,0.77-5.1,2.31-6.91
					c1.54-1.81,3.6-2.71,6.19-2.7c2.54,0,4.51,0.77,5.92,2.3c1.4,1.53,2.11,3.6,2.11,6.21v2.77h-11.24l-0.04,0.1
					c0.09,1.24,0.51,2.25,1.25,3.05c0.74,0.8,1.74,1.2,3,1.2c1.12,0,2.06-0.11,2.8-0.33c0.74-0.22,1.55-0.58,2.44-1.06l1.38,3.13
					c-0.77,0.63-1.77,1.15-3.01,1.56C557.81-351.57,556.43-351.36,554.91-351.36z M554.46-366.99c-0.94,0-1.68,0.36-2.23,1.08
					c-0.55,0.72-0.88,1.67-1.01,2.84l0.05,0.09h6.23v-0.45c0-1.08-0.25-1.94-0.76-2.58C556.24-366.67,555.48-366.99,554.46-366.99z"
					/>
				<path class="st2" d="M575.34-366.19l-1.86-0.05c-0.75,0-1.38,0.16-1.86,0.47c-0.49,0.31-0.86,0.75-1.11,1.32v12.72h-5.06v-18.83
					h4.72l0.23,2.78c0.44-0.99,1.01-1.75,1.71-2.31c0.7-0.55,1.51-0.83,2.43-0.83c0.25,0,0.49,0.02,0.71,0.06
					c0.21,0.04,0.43,0.09,0.65,0.15L575.34-366.19z"/>
				<path class="st2" d="M588.1-356.91c0-0.56-0.27-1.04-0.81-1.44c-0.54-0.41-1.54-0.77-3-1.08c-2.23-0.45-3.91-1.12-5.04-2.01
					c-1.13-0.89-1.7-2.1-1.7-3.63c0-1.62,0.68-3,2.04-4.13c1.36-1.13,3.19-1.7,5.47-1.7c2.4,0,4.31,0.56,5.73,1.69
					c1.42,1.13,2.1,2.55,2.05,4.26l-0.04,0.1h-4.91c0-0.75-0.24-1.37-0.72-1.84s-1.19-0.71-2.11-0.71c-0.82,0-1.47,0.2-1.94,0.6
					s-0.71,0.9-0.71,1.51c0,0.58,0.25,1.06,0.74,1.43c0.49,0.37,1.49,0.7,3,0.99c2.32,0.46,4.04,1.15,5.17,2.04
					c1.12,0.9,1.69,2.14,1.69,3.72c0,1.69-0.73,3.08-2.18,4.15s-3.37,1.61-5.74,1.61c-2.51,0-4.49-0.63-5.94-1.91
					c-1.46-1.27-2.15-2.72-2.08-4.34l0.03-0.1h4.65c0.04,1.01,0.37,1.74,0.99,2.19c0.63,0.45,1.44,0.68,2.45,0.68
					c0.94,0,1.66-0.19,2.15-0.56C587.85-355.77,588.1-356.27,588.1-356.91z"/>
				<path class="st2" d="M601.64-375.06h-5.08v-3.81h5.08V-375.06z M601.64-351.73h-5.08v-18.83h5.08V-351.73z"/>
				<path class="st2" d="M611.86-375.17v4.61h3.17v3.57h-3.17v9.59c0,0.73,0.15,1.25,0.45,1.57s0.71,0.47,1.22,0.47
					c0.27,0,0.5-0.01,0.69-0.04c0.19-0.03,0.42-0.08,0.67-0.15l0.44,3.67c-0.51,0.17-1.01,0.3-1.5,0.39
					c-0.49,0.09-1.02,0.13-1.58,0.13c-1.75,0-3.1-0.48-4.05-1.44c-0.95-0.96-1.42-2.49-1.42-4.58v-9.61h-2.75v-3.57h2.75v-4.61
					H611.86z"/>
				<path class="st2" d="M625.05-359.63l0.21,1.04h0.1l3.6-11.97h5.46l-7.64,21.65c-0.53,1.35-1.26,2.48-2.18,3.4
					c-0.92,0.92-2.29,1.38-4.12,1.38c-0.43,0-0.83-0.03-1.19-0.1c-0.37-0.07-0.81-0.17-1.33-0.3l0.59-3.71
					c0.15,0.02,0.31,0.05,0.49,0.07c0.17,0.02,0.33,0.04,0.47,0.04c0.84,0,1.48-0.21,1.93-0.62c0.45-0.41,0.8-0.92,1.04-1.54
					l0.59-1.46l-6.68-18.81h5.46L625.05-359.63z"/>
				<path class="st2" d="M473.72-322.34c0-2.81,0.78-5.11,2.35-6.9c1.57-1.79,3.74-2.69,6.51-2.69c2.79,0,4.97,0.89,6.54,2.68
					s2.37,4.09,2.37,6.91v0.37c0,2.83-0.79,5.14-2.36,6.92s-3.75,2.67-6.52,2.67c-2.79,0-4.96-0.89-6.54-2.67s-2.36-4.09-2.36-6.92
					V-322.34z M478.78-321.98c0,1.71,0.3,3.09,0.91,4.13c0.6,1.04,1.58,1.55,2.92,1.55c1.31,0,2.27-0.52,2.88-1.56
					c0.61-1.04,0.91-2.42,0.91-4.12v-0.37c0-1.67-0.31-3.03-0.92-4.08c-0.61-1.05-1.58-1.58-2.91-1.58c-1.31,0-2.27,0.53-2.88,1.59
					c-0.61,1.06-0.91,2.42-0.91,4.07V-321.98z"/>
				<path class="st2" d="M495.94-312.75v-15.26h-2.8v-3.57h2.8v-2.09c0-2.11,0.61-3.74,1.83-4.88c1.22-1.14,2.93-1.71,5.13-1.71
					c0.43,0,0.87,0.03,1.31,0.1c0.45,0.06,0.94,0.15,1.47,0.27l-0.44,3.78c-0.28-0.05-0.55-0.09-0.81-0.12
					c-0.26-0.03-0.57-0.05-0.91-0.05c-0.82,0-1.45,0.23-1.87,0.68c-0.42,0.45-0.64,1.1-0.64,1.95v2.09h3.74v3.57h-3.74v15.26H495.94
					z"/>
				<path class="st2" d="M525.25-319.49l0.31,1.38h0.1l0.3-1.34l5.52-18.64h5.36l-8.61,25.34h-5.22l-8.6-25.34h5.36L525.25-319.49z"
					/>
				<path class="st2" d="M544.26-336.09h-5.08v-3.81h5.08V-336.09z M544.26-312.75h-5.08v-18.83h5.08V-312.75z"/>
				<path class="st2" d="M558.34-327.21l-1.86-0.05c-0.75,0-1.38,0.16-1.86,0.47c-0.49,0.31-0.86,0.75-1.11,1.32v12.72h-5.06v-18.83
					h4.72l0.23,2.78c0.44-0.99,1.01-1.75,1.71-2.31c0.7-0.55,1.51-0.83,2.43-0.83c0.25,0,0.49,0.02,0.71,0.06
					c0.21,0.04,0.43,0.09,0.65,0.15L558.34-327.21z"/>
				<path class="st2" d="M560.13-322.01c0-2.97,0.65-5.37,1.94-7.19c1.29-1.82,3.11-2.73,5.44-2.73c1.06,0,1.98,0.24,2.78,0.71
					c0.8,0.48,1.49,1.15,2.05,2.04l0.4-2.4h4.39v18.74c0,2.45-0.8,4.34-2.41,5.68c-1.61,1.34-3.84,2.01-6.71,2.01
					c-0.95,0-1.96-0.13-3.03-0.39c-1.07-0.26-2.05-0.62-2.96-1.07l0.94-3.79c0.78,0.37,1.57,0.65,2.38,0.84s1.69,0.29,2.64,0.29
					c1.39,0,2.42-0.29,3.07-0.87c0.66-0.58,0.98-1.49,0.98-2.71v-1.71c-0.56,0.71-1.21,1.25-1.97,1.62
					c-0.75,0.37-1.62,0.56-2.59,0.56c-2.31,0-4.11-0.85-5.4-2.55c-1.29-1.7-1.94-3.94-1.94-6.71V-322.01z M565.21-321.64
					c0,1.66,0.28,2.96,0.84,3.91c0.56,0.95,1.46,1.43,2.71,1.43c0.78,0,1.44-0.14,1.98-0.43c0.54-0.29,0.97-0.7,1.3-1.25v-8.23
					c-0.33-0.57-0.76-1.02-1.3-1.33c-0.54-0.31-1.19-0.47-1.94-0.47c-1.24,0-2.15,0.55-2.72,1.66c-0.58,1.11-0.86,2.56-0.86,4.34
					V-321.64z"/>
				<path class="st2" d="M586.38-336.09h-5.08v-3.81h5.08V-336.09z M586.38-312.75h-5.08v-18.83h5.08V-312.75z"/>
				<path class="st2" d="M595.2-331.58l0.23,2.7c0.63-0.96,1.4-1.71,2.31-2.25c0.92-0.53,1.94-0.8,3.08-0.8
					c1.9,0,3.39,0.6,4.46,1.79s1.6,3.07,1.6,5.62v11.77h-5.1v-11.77c0-1.27-0.26-2.17-0.77-2.7c-0.51-0.53-1.28-0.79-2.32-0.79
					c-0.67,0-1.28,0.14-1.81,0.41c-0.53,0.27-0.98,0.66-1.34,1.16v13.69h-5.08v-18.83H595.2z"/>
				<path class="st2" d="M616.01-336.09h-5.08v-3.81h5.08V-336.09z M616.01-312.75h-5.08v-18.83h5.08V-312.75z"/>
				<path class="st2" d="M631.24-312.75c-0.19-0.43-0.34-0.88-0.48-1.36s-0.23-0.96-0.29-1.46c-0.52,0.92-1.21,1.68-2.06,2.28
					c-0.85,0.6-1.87,0.9-3.05,0.9c-1.97,0-3.49-0.51-4.56-1.52s-1.6-2.4-1.6-4.15c0-1.84,0.71-3.27,2.13-4.29
					c1.42-1.01,3.5-1.52,6.22-1.52h2.84v-1.5c0-0.91-0.24-1.61-0.71-2.11s-1.18-0.75-2.11-0.75c-0.82,0-1.46,0.2-1.91,0.6
					c-0.45,0.4-0.67,0.96-0.67,1.66l-4.91-0.02l-0.02-0.1c-0.08-1.59,0.61-2.96,2.07-4.12c1.46-1.16,3.38-1.73,5.76-1.73
					c2.25,0,4.08,0.57,5.48,1.71c1.4,1.14,2.11,2.77,2.11,4.88v7.78c0,0.88,0.07,1.71,0.2,2.49c0.13,0.78,0.34,1.55,0.63,2.31
					H631.24z M626.6-316.14c0.89,0,1.69-0.22,2.38-0.66c0.7-0.44,1.17-0.95,1.41-1.53V-321h-2.84c-1.08,0-1.9,0.27-2.45,0.81
					c-0.56,0.54-0.83,1.19-0.83,1.96c0,0.63,0.21,1.13,0.63,1.51C625.31-316.33,625.88-316.14,626.6-316.14z"/>
			</g>
		</g>
	</g>
	<g>
		<g>
			<path class="st2" d="M1114.86-397.43h63.95v67.62h-63.95V-397.43z M1178.62-413.88h-80.21v100.52h96.85v-200.5h-16.63V-413.88z
				 M880.4-313.37h83.73v-16.45h-67.28v-67.62h67.28v-16.45H880.4V-313.37z M1063.24-329.81h-64.34v-67.62h64.34V-329.81z
				 M982.46-313.37h97.24v-100.52h-97.24V-313.37z M1290.51-374.65h-60.09v-22.79h60.09V-374.65z M1230.42-329.81v-28.38h76.54
				v-55.68h-92.99v100.52h93.96v-16.45H1230.42z"/>
			<path class="st2" d="M1142.39-445.18c0,6.46,3.29,9.69,7.36,9.69c4.97,0,8.2-4.2,8.2-11.37c0-5.36-2.91-9.49-7.56-9.43
				C1145.81-456.22,1142.39-451.96,1142.39-445.18 M1103.77-475.59c6.65-6.59,11.49-15.05,11.49-23.05c0-5.3-1.61-8.33-4.97-8.33
				c-3.55,0-6.14,3.68-6.33,16.73L1103.77-475.59z M1029.89-453.57c-1.74,1.74-3.94,3.74-6.01,5.42c-2.45,1.94-4.65,1.94-6.14,0.45
				c-1.48-1.48-1.23-3.75,0.71-5.87c5.88-6.46,11.88-10.59,14.85-10.59c2.65,0,3.87,1.55,4.13,6.14c0.52,8.65,1.61,22.54,8.2,22.54
				c5.1,0,8.01-9.43,8.01-23.38c0-3.36,1.42-5.3,4-5.3s4,1.94,4,5.3c0,13.88,0.39,23.38,5.75,23.38c6.01,0,9.69-14.01,9.69-24.93
				c0-2.58,1.23-3.74,3.36-3.74c4.84,0,10.14-1.87,15.17-5.04l0.26-22.09c0.19-15.95,5.68-23.57,14.66-23.57
				c8.07,0,12.72,5.29,12.72,14.92c0,13.17-8.85,25.96-19.63,34.35l-0.06,5.49c2.39-1.93,6.07-4.07,10.01-4.07
				c6.65,0,10.14,4.39,10.14,15.11c0,10.2,2.13,13.56,5.88,13.56c2.32,0,4.07-1.29,5.49-3.1c-0.58-1.94-0.84-4.07-0.84-6.39
				c0-9.75,6.46-19.18,16.85-19.18c9.23,0,14.98,7.23,14.98,17.05c0,10.85-7.23,19.5-16.85,19.5c-4.52,0-8.2-1.68-10.78-4.59
				c-2.39,2.39-5.62,4.59-9.82,4.59c-7.68,0-12.92-5.68-12.92-21.7c0-5.04-1.36-6.98-4.26-6.98c-2.52,0-5.81,2.52-8.01,4.52
				l-0.26,19.12c-0.07,3.36-1.55,5.04-4,5.04c-2.45,0-4.07-1.68-4-5.04l0.32-27.7c-3.62,1.94-7.23,3.29-10.66,4
				c-1.23,15.89-7.1,28.74-18.21,28.74c-5.49,0-8.53-4.07-10.14-8.07c-2.26,4-5.88,8.07-11.3,8.07
				C1031.38-427.61,1029.96-445.95,1029.89-453.57 M951.5-449.57c6.65-10.85,12.01-26.48,12.01-42.17c0-11.82-2.39-15.24-5.68-15.24
				c-4.07,0-8.4,6.26-8.46,31.9C949.37-463.9,950.14-455.64,951.5-449.57 M889.63-479.6c0,2.78-2.65,5.75-5.81,5.75
				c-3.29,0-5.3-2.45-5.3-5.49c0-2.9,2.71-5.1,6.14-5.1C887.63-484.44,889.63-482.24,889.63-479.6 M846.56-373.56
				c4.71,0,7.36-4.52,7.49-18.15l0.26-20.27c-7.81,10.85-13.95,21.18-13.95,29.06C840.36-376.47,842.94-373.56,846.56-373.56
				 M845.92-435.49c3.42,0,6.33-1.1,8.65-3.49l0.19-12.59c-2.39-3.36-5.88-4.72-8.78-4.72c-5.55,0-9.23,4.39-9.23,10.53
				C836.75-439.56,840.43-435.49,845.92-435.49 M855.02-461.13c0.52-1.81,1.87-3.04,3.74-3.04c2.39,0,4,2,4,4.58l-0.26,25.64
				c5.75-7.55,11.62-16.34,16.34-24.99c1.81-3.36,2.9-5.23,5.04-5.23c2.65,0,3.62,1.87,3.62,4.72v11.88
				c0,9.94,1.81,12.08,4.52,12.08c5.1,0,9.82-11.49,10.85-23.96c0.26-3.49,1.61-4.91,4.78-4.72l15.5,0.9
				c3.62,0.19,4.46,1.94,4.59,6.46l0.26,8.85c0.26,9.69,3.16,12.46,7.36,12.46c3.03,0,6.59-2.2,10.07-5.94
				c-2.65-7.75-4.2-19.31-4.2-35.84c0-28.35,7.88-37.58,17.31-37.58c9.04,0,13.11,7.49,13.11,20.73c0,18.66-7.1,40.04-17.11,53.47
				c2,3.68,4.33,5.17,6.59,5.17c6.07,0,12.4-14.34,17.24-23.05c2.65-4.78,3.16-6.01,6.07-5.62c10.33,1.42,18.15,7.95,18.15,18.98
				c0,11.17-9.3,19.7-21.96,17.57c-3.03-0.52-4.58-2.2-4.58-4.39c0-2.39,2.2-3.62,5.62-3.17c9.36,1.23,12.78-4.26,12.78-9.49
				c0-5.75-3.48-9.75-9.17-11.11c-11.36,24.35-17.76,28.16-24.99,28.16c-4.33,0-8.27-1.87-11.49-6.65
				c-4.52,4.2-9.43,6.65-14.47,6.65c-8.72,0-14.14-5.23-14.4-18.53l-0.19-9.24l-9.23-0.58c-1.48,15.43-7.75,28.35-19.18,28.35
				c-6.91,0-12.14-5.43-10.91-20.28c-4.39,8.14-11.43,17.89-18.02,26.61l-0.32,28.67c-0.19,19.7-6.01,26.93-16.27,26.93
				c-7.62,0-13.43-5.17-13.43-16.14c0-13.82,10.14-27.06,22.09-42.17l0.07-6.39c-2.39,1.61-5.55,2.78-9.49,2.78
				c-9.17,0-16.4-6.65-16.4-17.83c0-10.07,7.3-18.73,17.24-18.73C849.73-464.16,852.83-462.94,855.02-461.13"/>
		</g>
		<g>
			<g>
				<path class="st1" d="M1337.55-390.7c-0.19-0.43-0.35-0.88-0.48-1.36c-0.13-0.48-0.23-0.96-0.29-1.46
					c-0.52,0.92-1.21,1.68-2.06,2.28c-0.85,0.6-1.87,0.9-3.05,0.9c-1.97,0-3.49-0.51-4.56-1.52c-1.07-1.02-1.6-2.4-1.6-4.15
					c0-1.84,0.71-3.27,2.13-4.29c1.42-1.01,3.5-1.52,6.22-1.52h2.84v-1.5c0-0.91-0.24-1.61-0.71-2.11c-0.48-0.5-1.18-0.75-2.11-0.75
					c-0.82,0-1.46,0.2-1.91,0.6c-0.45,0.4-0.67,0.96-0.67,1.66l-4.91-0.02l-0.02-0.1c-0.08-1.59,0.61-2.96,2.07-4.12
					c1.46-1.16,3.38-1.73,5.76-1.73c2.25,0,4.08,0.57,5.48,1.71c1.4,1.14,2.11,2.77,2.11,4.88v7.78c0,0.88,0.07,1.71,0.2,2.49
					s0.34,1.55,0.64,2.31H1337.55z M1332.91-394.09c0.89,0,1.69-0.22,2.38-0.66c0.7-0.44,1.17-0.95,1.41-1.53v-2.66h-2.84
					c-1.08,0-1.9,0.27-2.45,0.81c-0.56,0.54-0.83,1.19-0.83,1.96c0,0.63,0.21,1.13,0.63,1.51
					C1331.62-394.29,1332.19-394.09,1332.91-394.09z"/>
				<path class="st1" d="M1351.69-414.14v4.61h3.17v3.57h-3.17v9.59c0,0.73,0.15,1.25,0.45,1.57s0.71,0.47,1.22,0.47
					c0.27,0,0.5-0.01,0.69-0.04c0.19-0.03,0.41-0.08,0.67-0.15l0.44,3.67c-0.51,0.17-1.01,0.3-1.5,0.39
					c-0.49,0.09-1.01,0.13-1.58,0.13c-1.75,0-3.1-0.48-4.05-1.44c-0.95-0.96-1.42-2.49-1.42-4.58v-9.61h-2.75v-3.57h2.75v-4.61
					H1351.69z"/>
				<path class="st1" d="M1373-414.14v4.61h3.17v3.57H1373v9.59c0,0.73,0.15,1.25,0.45,1.57c0.3,0.31,0.71,0.47,1.22,0.47
					c0.27,0,0.5-0.01,0.69-0.04c0.19-0.03,0.42-0.08,0.67-0.15l0.43,3.67c-0.51,0.17-1.01,0.3-1.5,0.39
					c-0.49,0.09-1.02,0.13-1.58,0.13c-1.75,0-3.1-0.48-4.05-1.44c-0.95-0.96-1.42-2.49-1.42-4.58v-9.61h-2.75v-3.57h2.75v-4.61H1373
					z"/>
				<path class="st1" d="M1384.37-407.15c0.59-0.86,1.32-1.53,2.18-2.01c0.86-0.48,1.81-0.72,2.85-0.72c1.96,0,3.5,0.65,4.62,1.96
					c1.12,1.31,1.68,3.32,1.68,6.05v11.17h-5.08v-11.23c0-1.46-0.26-2.5-0.77-3.11s-1.29-0.92-2.31-0.92c-0.7,0-1.31,0.12-1.85,0.38
					s-0.97,0.6-1.32,1.06v13.83h-5.08v-27.15h5.08V-407.15z"/>
				<path class="st1" d="M1407.87-390.34c-2.72,0-4.89-0.87-6.51-2.61c-1.62-1.74-2.44-3.95-2.44-6.63v-0.7
					c0-2.8,0.77-5.1,2.31-6.91c1.54-1.81,3.6-2.71,6.19-2.7c2.54,0,4.51,0.77,5.92,2.3c1.4,1.53,2.11,3.6,2.11,6.21v2.77h-11.24
					l-0.04,0.1c0.09,1.24,0.51,2.25,1.25,3.05c0.74,0.8,1.74,1.2,3,1.2c1.12,0,2.06-0.11,2.8-0.33s1.55-0.58,2.44-1.06l1.38,3.13
					c-0.77,0.63-1.77,1.15-3.01,1.56C1410.77-390.54,1409.39-390.34,1407.87-390.34z M1407.41-405.96c-0.94,0-1.68,0.36-2.23,1.08
					c-0.54,0.72-0.88,1.67-1.01,2.84l0.05,0.09h6.23v-0.45c0-1.08-0.25-1.94-0.76-2.58C1409.2-405.64,1408.43-405.96,1407.41-405.96
					z"/>
				<path class="st1" d="M1346.97-377.07v16.81c0,2.84-0.94,5.04-2.82,6.58s-4.34,2.31-7.38,2.31c-3.03,0-5.47-0.77-7.34-2.31
					c-1.86-1.54-2.79-3.74-2.79-6.58v-16.81h5.1v16.8c0,1.67,0.45,2.92,1.34,3.75s2.12,1.24,3.69,1.24c1.59,0,2.84-0.41,3.74-1.23
					s1.36-2.08,1.36-3.76v-16.8H1346.97z"/>
				<path class="st1" d="M1355.64-370.56l0.23,2.7c0.63-0.96,1.4-1.71,2.31-2.25c0.92-0.53,1.94-0.8,3.08-0.8
					c1.9,0,3.39,0.6,4.46,1.79c1.07,1.2,1.6,3.07,1.6,5.62v11.77h-5.1v-11.77c0-1.27-0.25-2.17-0.77-2.7s-1.28-0.79-2.32-0.79
					c-0.67,0-1.28,0.14-1.81,0.41s-0.98,0.66-1.34,1.16v13.69h-5.08v-18.83H1355.64z"/>
				<path class="st1" d="M1376.45-375.06h-5.08v-3.81h5.08V-375.06z M1376.45-351.73h-5.08v-18.83h5.08V-351.73z"/>
				<path class="st1" d="M1387.43-358.74l0.33,1.74h0.1l0.35-1.74l3.1-11.82h5.31l-6.41,18.83h-4.86l-6.4-18.83h5.31L1387.43-358.74
					z"/>
				<path class="st1" d="M1406.91-351.36c-2.72,0-4.89-0.87-6.51-2.61c-1.62-1.74-2.44-3.95-2.44-6.63v-0.7
					c0-2.8,0.77-5.1,2.31-6.91c1.54-1.81,3.6-2.71,6.19-2.7c2.54,0,4.51,0.77,5.92,2.3c1.4,1.53,2.11,3.6,2.11,6.21v2.77h-11.24
					l-0.04,0.1c0.09,1.24,0.51,2.25,1.25,3.05c0.74,0.8,1.74,1.2,3,1.2c1.12,0,2.06-0.11,2.8-0.33s1.55-0.58,2.44-1.06l1.38,3.13
					c-0.77,0.63-1.77,1.15-3.01,1.56C1409.81-351.57,1408.43-351.36,1406.91-351.36z M1406.46-366.99c-0.94,0-1.68,0.36-2.23,1.08
					c-0.54,0.72-0.88,1.67-1.01,2.84l0.05,0.09h6.23v-0.45c0-1.08-0.25-1.94-0.76-2.58
					C1408.24-366.67,1407.48-366.99,1406.46-366.99z"/>
				<path class="st1" d="M1427.34-366.19l-1.86-0.05c-0.75,0-1.38,0.16-1.86,0.47c-0.49,0.31-0.86,0.75-1.11,1.32v12.72h-5.06
					v-18.83h4.72l0.23,2.78c0.44-0.99,1.01-1.75,1.71-2.31c0.7-0.55,1.51-0.83,2.43-0.83c0.26,0,0.49,0.02,0.71,0.06
					c0.21,0.04,0.43,0.09,0.65,0.15L1427.34-366.19z"/>
				<path class="st1" d="M1440.1-356.91c0-0.56-0.27-1.04-0.81-1.44s-1.54-0.77-3-1.08c-2.23-0.45-3.91-1.12-5.04-2.01
					c-1.13-0.89-1.7-2.1-1.7-3.63c0-1.62,0.68-3,2.04-4.13c1.36-1.13,3.19-1.7,5.47-1.7c2.4,0,4.31,0.56,5.73,1.69
					c1.42,1.13,2.1,2.55,2.05,4.26l-0.04,0.1h-4.91c0-0.75-0.24-1.37-0.72-1.84s-1.19-0.71-2.11-0.71c-0.82,0-1.47,0.2-1.94,0.6
					c-0.47,0.4-0.71,0.9-0.71,1.51c0,0.58,0.25,1.06,0.74,1.43c0.49,0.37,1.49,0.7,3,0.99c2.32,0.46,4.04,1.15,5.17,2.04
					c1.12,0.9,1.69,2.14,1.69,3.72c0,1.69-0.73,3.08-2.18,4.15c-1.45,1.07-3.37,1.61-5.74,1.61c-2.51,0-4.49-0.63-5.94-1.91
					s-2.15-2.72-2.08-4.34l0.04-0.1h4.65c0.04,1.01,0.37,1.74,0.99,2.19c0.63,0.45,1.45,0.68,2.46,0.68c0.94,0,1.66-0.19,2.15-0.56
					C1439.85-355.77,1440.1-356.27,1440.1-356.91z"/>
				<path class="st1" d="M1453.64-375.06h-5.08v-3.81h5.08V-375.06z M1453.64-351.73h-5.08v-18.83h5.08V-351.73z"/>
				<path class="st1" d="M1463.86-375.17v4.61h3.17v3.57h-3.17v9.59c0,0.73,0.15,1.25,0.45,1.57s0.71,0.47,1.22,0.47
					c0.27,0,0.5-0.01,0.69-0.04c0.19-0.03,0.41-0.08,0.67-0.15l0.44,3.67c-0.51,0.17-1.01,0.3-1.5,0.39
					c-0.49,0.09-1.01,0.13-1.58,0.13c-1.75,0-3.1-0.48-4.05-1.44c-0.95-0.96-1.42-2.49-1.42-4.58v-9.61h-2.75v-3.57h2.75v-4.61
					H1463.86z"/>
				<path class="st1" d="M1477.05-359.63l0.21,1.04h0.1l3.6-11.97h5.46l-7.64,21.65c-0.53,1.35-1.26,2.48-2.18,3.4
					c-0.92,0.92-2.29,1.38-4.12,1.38c-0.43,0-0.83-0.03-1.19-0.1c-0.37-0.07-0.81-0.17-1.33-0.3l0.59-3.71
					c0.15,0.02,0.31,0.05,0.49,0.07c0.17,0.02,0.33,0.04,0.47,0.04c0.84,0,1.48-0.21,1.93-0.62c0.45-0.41,0.8-0.92,1.04-1.54
					l0.59-1.46l-6.68-18.81h5.46L1477.05-359.63z"/>
				<path class="st1" d="M1325.72-322.34c0-2.81,0.78-5.11,2.35-6.9c1.57-1.79,3.74-2.69,6.51-2.69c2.79,0,4.97,0.89,6.54,2.68
					c1.58,1.79,2.37,4.09,2.37,6.91v0.37c0,2.83-0.79,5.14-2.36,6.92s-3.75,2.67-6.52,2.67c-2.79,0-4.96-0.89-6.54-2.67
					s-2.36-4.09-2.36-6.92V-322.34z M1330.78-321.98c0,1.71,0.3,3.09,0.91,4.13c0.6,1.04,1.58,1.55,2.92,1.55
					c1.31,0,2.27-0.52,2.88-1.56c0.61-1.04,0.91-2.42,0.91-4.12v-0.37c0-1.67-0.31-3.03-0.92-4.08c-0.62-1.05-1.58-1.58-2.91-1.58
					c-1.31,0-2.27,0.53-2.88,1.59c-0.61,1.06-0.91,2.42-0.91,4.07V-321.98z"/>
				<path class="st1" d="M1347.94-312.75v-15.26h-2.8v-3.57h2.8v-2.09c0-2.11,0.61-3.74,1.83-4.88c1.22-1.14,2.93-1.71,5.13-1.71
					c0.43,0,0.87,0.03,1.31,0.1c0.45,0.06,0.94,0.15,1.47,0.27l-0.44,3.78c-0.28-0.05-0.55-0.09-0.81-0.12
					c-0.26-0.03-0.57-0.05-0.91-0.05c-0.82,0-1.45,0.23-1.87,0.68c-0.42,0.45-0.64,1.1-0.64,1.95v2.09h3.74v3.57h-3.74v15.26
					H1347.94z"/>
				<path class="st1" d="M1377.25-319.49l0.31,1.38h0.1l0.3-1.34l5.52-18.64h5.36l-8.62,25.34h-5.22l-8.6-25.34h5.36L1377.25-319.49
					z"/>
				<path class="st1" d="M1396.26-336.09h-5.08v-3.81h5.08V-336.09z M1396.26-312.75h-5.08v-18.83h5.08V-312.75z"/>
				<path class="st1" d="M1410.34-327.21l-1.86-0.05c-0.75,0-1.38,0.16-1.86,0.47c-0.49,0.31-0.86,0.75-1.11,1.32v12.72h-5.06
					v-18.83h4.72l0.23,2.78c0.44-0.99,1.01-1.75,1.71-2.31c0.7-0.55,1.51-0.83,2.43-0.83c0.26,0,0.49,0.02,0.71,0.06
					c0.21,0.04,0.43,0.09,0.65,0.15L1410.34-327.21z"/>
				<path class="st1" d="M1412.13-322.01c0-2.97,0.65-5.37,1.94-7.19c1.29-1.82,3.11-2.73,5.44-2.73c1.06,0,1.98,0.24,2.79,0.71
					s1.49,1.15,2.05,2.04l0.4-2.4h4.39v18.74c0,2.45-0.8,4.34-2.41,5.68c-1.61,1.34-3.84,2.01-6.71,2.01
					c-0.95,0-1.96-0.13-3.03-0.39c-1.07-0.26-2.05-0.62-2.96-1.07l0.94-3.79c0.78,0.37,1.57,0.65,2.38,0.84s1.69,0.29,2.64,0.29
					c1.39,0,2.42-0.29,3.07-0.87c0.65-0.58,0.98-1.49,0.98-2.71v-1.71c-0.56,0.71-1.21,1.25-1.97,1.62s-1.62,0.56-2.59,0.56
					c-2.31,0-4.11-0.85-5.4-2.55c-1.29-1.7-1.94-3.94-1.94-6.71V-322.01z M1417.21-321.64c0,1.66,0.28,2.96,0.84,3.91
					c0.56,0.95,1.46,1.43,2.71,1.43c0.78,0,1.44-0.14,1.97-0.43c0.54-0.29,0.97-0.7,1.3-1.25v-8.23c-0.32-0.57-0.76-1.02-1.3-1.33
					c-0.54-0.31-1.19-0.47-1.94-0.47c-1.24,0-2.15,0.55-2.72,1.66c-0.57,1.11-0.86,2.56-0.86,4.34V-321.64z"/>
				<path class="st1" d="M1438.38-336.09h-5.08v-3.81h5.08V-336.09z M1438.38-312.75h-5.08v-18.83h5.08V-312.75z"/>
				<path class="st1" d="M1447.2-331.58l0.23,2.7c0.63-0.96,1.4-1.71,2.32-2.25c0.92-0.53,1.94-0.8,3.08-0.8
					c1.9,0,3.39,0.6,4.46,1.79c1.07,1.2,1.6,3.07,1.6,5.62v11.77h-5.1v-11.77c0-1.27-0.26-2.17-0.77-2.7
					c-0.51-0.53-1.28-0.79-2.32-0.79c-0.67,0-1.28,0.14-1.81,0.41c-0.53,0.27-0.98,0.66-1.34,1.16v13.69h-5.08v-18.83H1447.2z"/>
				<path class="st1" d="M1468.01-336.09h-5.08v-3.81h5.08V-336.09z M1468.01-312.75h-5.08v-18.83h5.08V-312.75z"/>
				<path class="st1" d="M1483.24-312.75c-0.19-0.43-0.35-0.88-0.48-1.36c-0.13-0.48-0.23-0.96-0.29-1.46
					c-0.52,0.92-1.21,1.68-2.06,2.28c-0.85,0.6-1.87,0.9-3.05,0.9c-1.97,0-3.49-0.51-4.56-1.52s-1.6-2.4-1.6-4.15
					c0-1.84,0.71-3.27,2.13-4.29c1.42-1.01,3.5-1.52,6.22-1.52h2.84v-1.5c0-0.91-0.24-1.61-0.71-2.11c-0.48-0.5-1.18-0.75-2.11-0.75
					c-0.82,0-1.46,0.2-1.91,0.6s-0.67,0.96-0.67,1.66l-4.91-0.02l-0.02-0.1c-0.08-1.59,0.61-2.96,2.07-4.12
					c1.46-1.16,3.38-1.73,5.76-1.73c2.25,0,4.08,0.57,5.48,1.71s2.11,2.77,2.11,4.88v7.78c0,0.88,0.07,1.71,0.2,2.49
					c0.13,0.78,0.34,1.55,0.63,2.31H1483.24z M1478.6-316.14c0.89,0,1.69-0.22,2.38-0.66c0.7-0.44,1.17-0.95,1.41-1.53V-321h-2.84
					c-1.08,0-1.9,0.27-2.45,0.81c-0.56,0.54-0.83,1.19-0.83,1.96c0,0.63,0.21,1.13,0.63,1.51S1477.88-316.14,1478.6-316.14z"/>
			</g>
		</g>
	</g>
</g>
<g id="Logo_Vertical">
	<rect class="st1" width="606" height="606"/>
	<rect x="762.47" y="-6" class="st3" width="792" height="612"/>
	<g class="st4">
		<path class="st2" d="M1155.67,288.24h63.95v67.62h-63.95V288.24z M1219.43,271.79h-80.21V372.3h96.85V171.8h-16.63V271.79z
			 M921.21,372.3h83.73v-16.45h-67.28v-67.62h67.28v-16.45h-83.73V372.3z M1104.06,355.86h-64.34v-67.62h64.34V355.86z
			 M1023.27,372.3h97.24V271.79h-97.24V372.3z M1331.32,311.02h-60.09v-22.79h60.09V311.02z M1271.23,355.86v-28.38h76.54v-55.68
			h-92.99V372.3h93.96v-16.45H1271.23z M1183.2,240.49c0,6.46,3.29,9.69,7.36,9.69c4.97,0,8.2-4.2,8.2-11.37
			c0-5.36-2.91-9.49-7.56-9.43C1186.62,229.45,1183.2,233.71,1183.2,240.49 M1144.58,210.08c6.65-6.59,11.49-15.05,11.49-23.05
			c0-5.3-1.61-8.33-4.97-8.33c-3.55,0-6.14,3.68-6.33,16.73L1144.58,210.08z M1070.71,232.1c-1.74,1.74-3.94,3.74-6.01,5.42
			c-2.45,1.94-4.65,1.94-6.14,0.45c-1.48-1.48-1.23-3.75,0.71-5.87c5.88-6.46,11.88-10.59,14.85-10.59c2.65,0,3.87,1.55,4.13,6.14
			c0.52,8.65,1.61,22.54,8.2,22.54c5.1,0,8.01-9.43,8.01-23.38c0-3.36,1.42-5.3,4-5.3s4,1.94,4,5.3c0,13.88,0.39,23.38,5.75,23.38
			c6.01,0,9.69-14.01,9.69-24.93c0-2.58,1.23-3.74,3.36-3.74c4.84,0,10.14-1.87,15.17-5.04l0.26-22.09
			c0.19-15.95,5.68-23.57,14.66-23.57c8.07,0,12.72,5.29,12.72,14.92c0,13.17-8.85,25.96-19.63,34.35l-0.06,5.49
			c2.39-1.93,6.07-4.07,10.01-4.07c6.65,0,10.14,4.39,10.14,15.11c0,10.2,2.13,13.56,5.88,13.56c2.32,0,4.07-1.29,5.49-3.1
			c-0.58-1.94-0.84-4.07-0.84-6.39c0-9.75,6.46-19.18,16.85-19.18c9.23,0,14.98,7.23,14.98,17.05c0,10.85-7.23,19.5-16.85,19.5
			c-4.52,0-8.2-1.68-10.78-4.59c-2.39,2.39-5.62,4.59-9.82,4.59c-7.68,0-12.92-5.68-12.92-21.7c0-5.04-1.36-6.98-4.26-6.98
			c-2.52,0-5.81,2.52-8.01,4.52l-0.26,19.12c-0.07,3.36-1.55,5.04-4,5.04c-2.45,0-4.07-1.68-4-5.04l0.32-27.7
			c-3.62,1.94-7.23,3.29-10.66,4c-1.23,15.89-7.1,28.74-18.21,28.74c-5.49,0-8.53-4.07-10.14-8.07c-2.26,4-5.88,8.07-11.3,8.07
			C1072.19,258.06,1070.77,239.72,1070.71,232.1 M992.31,236.1c6.65-10.85,12.01-26.48,12.01-42.17c0-11.82-2.39-15.24-5.68-15.24
			c-4.07,0-8.4,6.26-8.46,31.9C990.18,221.77,990.95,230.03,992.31,236.1 M930.45,206.07c0,2.78-2.65,5.75-5.81,5.75
			c-3.29,0-5.3-2.45-5.3-5.49c0-2.9,2.71-5.1,6.14-5.1C928.44,201.23,930.45,203.43,930.45,206.07 M887.37,312.11
			c4.71,0,7.36-4.52,7.49-18.15l0.26-20.27c-7.81,10.85-13.95,21.18-13.95,29.06C881.17,309.2,883.76,312.11,887.37,312.11
			 M886.73,250.18c3.42,0,6.33-1.1,8.65-3.49l0.19-12.59c-2.39-3.36-5.88-4.72-8.78-4.72c-5.55,0-9.23,4.39-9.23,10.53
			C877.56,246.11,881.24,250.18,886.73,250.18 M895.83,224.54c0.52-1.81,1.87-3.04,3.74-3.04c2.39,0,4,2,4,4.58l-0.26,25.64
			c5.75-7.55,11.62-16.34,16.34-24.99c1.81-3.36,2.9-5.23,5.04-5.23c2.65,0,3.62,1.87,3.62,4.72v11.88c0,9.94,1.81,12.08,4.52,12.08
			c5.1,0,9.82-11.49,10.85-23.96c0.26-3.49,1.61-4.91,4.78-4.72l15.5,0.9c3.62,0.19,4.46,1.94,4.59,6.46l0.26,8.85
			c0.26,9.69,3.16,12.46,7.36,12.46c3.03,0,6.59-2.2,10.07-5.94c-2.65-7.75-4.2-19.31-4.2-35.84c0-28.35,7.88-37.58,17.31-37.58
			c9.04,0,13.11,7.49,13.11,20.73c0,18.66-7.1,40.04-17.11,53.47c2,3.68,4.33,5.17,6.59,5.17c6.07,0,12.4-14.34,17.24-23.05
			c2.65-4.78,3.16-6.01,6.07-5.62c10.33,1.42,18.15,7.95,18.15,18.98c0,11.17-9.3,19.7-21.96,17.57c-3.03-0.52-4.58-2.2-4.58-4.39
			c0-2.39,2.2-3.62,5.62-3.17c9.36,1.23,12.78-4.26,12.78-9.49c0-5.75-3.48-9.75-9.17-11.11c-11.36,24.35-17.76,28.16-24.99,28.16
			c-4.33,0-8.27-1.87-11.49-6.65c-4.52,4.2-9.43,6.65-14.47,6.65c-8.72,0-14.14-5.23-14.4-18.53l-0.19-9.24l-9.23-0.58
			c-1.48,15.43-7.75,28.35-19.18,28.35c-6.91,0-12.14-5.43-10.91-20.28c-4.39,8.14-11.43,17.89-18.02,26.61l-0.32,28.67
			c-0.19,19.7-6.01,26.93-16.27,26.93c-7.62,0-13.43-5.17-13.43-16.14c0-13.82,10.14-27.06,22.09-42.17l0.07-6.39
			c-2.39,1.61-5.55,2.78-9.49,2.78c-9.17,0-16.4-6.65-16.4-17.83c0-10.07,7.3-18.73,17.24-18.73
			C890.54,221.51,893.64,222.73,895.83,224.54"/>
		<path class="st1" d="M1087.99,391.25v19.36c0,3.27-1.08,5.8-3.25,7.58c-2.16,1.78-5,2.67-8.5,2.67c-3.49,0-6.3-0.89-8.45-2.67
			c-2.14-1.78-3.22-4.3-3.22-7.58v-19.36h5.87v19.35c0,1.92,0.51,3.36,1.54,4.32c1.03,0.96,2.45,1.43,4.25,1.43
			c1.83,0,3.27-0.47,4.31-1.42c1.04-0.95,1.56-2.39,1.56-4.33v-19.35H1087.99z M1097.97,398.74l0.26,3.11
			c0.72-1.11,1.61-1.97,2.67-2.59c1.06-0.61,2.24-0.92,3.55-0.92c2.19,0,3.9,0.69,5.13,2.06c1.23,1.38,1.84,3.53,1.84,6.47v13.55
			h-5.87v-13.56c0-1.46-0.29-2.49-0.88-3.1s-1.48-0.91-2.67-0.91c-0.78,0-1.47,0.16-2.08,0.47c-0.62,0.31-1.13,0.76-1.54,1.33v15.77
			h-5.85v-21.69H1097.97z M1121.94,393.55h-5.85v-4.39h5.85V393.55z M1121.94,420.43h-5.85v-21.69h5.85V420.43z M1134.59,412.35
			l0.38,2h0.12l0.4-2l3.57-13.61h6.11l-7.38,21.69h-5.59l-7.38-21.69h6.11L1134.59,412.35z M1157.02,420.85c-3.13,0-5.62-1-7.5-3.01
			c-1.87-2-2.81-4.55-2.81-7.64v-0.8c0-3.22,0.88-5.87,2.66-7.96c1.77-2.08,4.14-3.12,7.12-3.11c2.93,0,5.2,0.88,6.81,2.65
			c1.62,1.76,2.42,4.15,2.42,7.16v3.19h-12.95l-0.04,0.12c0.11,1.42,0.58,2.6,1.43,3.51s2,1.38,3.46,1.38
			c1.29,0,2.37-0.13,3.23-0.39c0.85-0.26,1.79-0.66,2.81-1.22l1.58,3.61c-0.88,0.72-2.04,1.32-3.47,1.79
			C1160.36,420.61,1158.77,420.85,1157.02,420.85z M1156.5,402.85c-1.08,0-1.94,0.41-2.57,1.24c-0.63,0.83-1.02,1.92-1.16,3.27
			l0.06,0.1h7.17v-0.52c0-1.24-0.29-2.24-0.87-2.98C1158.55,403.22,1157.67,402.85,1156.5,402.85z M1180.55,403.77l-2.14-0.06
			c-0.87,0-1.58,0.18-2.14,0.54c-0.56,0.36-0.99,0.87-1.28,1.52v14.65h-5.83v-21.69h5.43l0.26,3.21c0.51-1.13,1.17-2.02,1.97-2.66
			s1.74-0.95,2.8-0.95c0.29,0,0.56,0.02,0.81,0.07c0.25,0.05,0.5,0.1,0.75,0.17L1180.55,403.77z M1195.24,414.45
			c0-0.64-0.31-1.2-0.93-1.66c-0.62-0.47-1.77-0.88-3.46-1.24c-2.57-0.52-4.5-1.29-5.8-2.31s-1.96-2.42-1.96-4.18
			c0-1.87,0.79-3.46,2.36-4.76s3.67-1.95,6.3-1.95c2.77,0,4.97,0.65,6.6,1.94s2.42,2.93,2.36,4.91l-0.04,0.12h-5.65
			c0-0.87-0.28-1.58-0.83-2.12s-1.37-0.82-2.43-0.82c-0.95,0-1.69,0.23-2.24,0.69s-0.81,1.04-0.81,1.73c0,0.67,0.28,1.22,0.85,1.64
			c0.57,0.43,1.72,0.81,3.46,1.14c2.67,0.53,4.66,1.32,5.95,2.35c1.3,1.04,1.94,2.46,1.94,4.28c0,1.95-0.83,3.54-2.51,4.78
			c-1.67,1.24-3.88,1.85-6.61,1.85c-2.89,0-5.17-0.73-6.84-2.19s-2.48-3.13-2.4-5l0.04-0.12h5.35c0.04,1.16,0.42,2,1.14,2.53
			s1.66,0.78,2.83,0.78c1.08,0,1.91-0.21,2.48-0.64C1194.95,415.77,1195.24,415.19,1195.24,414.45z M1210.83,393.55h-5.85v-4.39
			h5.85V393.55z M1210.83,420.43h-5.85v-21.69h5.85V420.43z M1222.6,393.43v5.31h3.65v4.11h-3.65v11.04c0,0.84,0.17,1.44,0.52,1.8
			c0.35,0.36,0.81,0.54,1.4,0.54c0.31,0,0.57-0.02,0.79-0.05c0.22-0.03,0.48-0.09,0.77-0.17l0.5,4.23c-0.59,0.2-1.16,0.35-1.72,0.45
			c-0.56,0.1-1.17,0.15-1.82,0.15c-2.02,0-3.57-0.55-4.66-1.66s-1.63-2.87-1.63-5.27v-11.06h-3.17v-4.11h3.17v-5.31H1222.6z
			 M1237.79,411.33l0.24,1.2h0.12l4.15-13.79h6.29l-8.8,24.93c-0.62,1.55-1.45,2.86-2.51,3.92c-1.06,1.06-2.64,1.59-4.75,1.59
			c-0.49,0-0.95-0.04-1.37-0.12s-0.93-0.19-1.53-0.34l0.68-4.27c0.17,0.03,0.36,0.05,0.56,0.08c0.2,0.03,0.38,0.04,0.54,0.04
			c0.96,0,1.7-0.24,2.22-0.71s0.92-1.07,1.2-1.77l0.68-1.68l-7.7-21.67h6.29L1237.79,411.33z M1260.26,409.38
			c0-3.23,0.9-5.88,2.71-7.95s4.3-3.1,7.5-3.1c3.21,0,5.72,1.03,7.54,3.09c1.82,2.06,2.73,4.71,2.73,7.96v0.42
			c0,3.26-0.91,5.92-2.72,7.97s-4.31,3.08-7.51,3.08c-3.21,0-5.72-1.03-7.53-3.08s-2.72-4.71-2.72-7.97V409.38z M1266.09,409.79
			c0,1.97,0.35,3.56,1.04,4.75c0.69,1.19,1.82,1.79,3.37,1.79c1.51,0,2.62-0.6,3.32-1.8c0.7-1.2,1.05-2.78,1.05-4.74v-0.42
			c0-1.92-0.35-3.49-1.06-4.7s-1.82-1.82-3.35-1.82c-1.51,0-2.62,0.61-3.32,1.83s-1.05,2.79-1.05,4.69V409.79z M1285.85,420.43
			v-17.58h-3.23v-4.11h3.23v-2.41c0-2.43,0.7-4.31,2.1-5.62c1.4-1.32,3.37-1.97,5.91-1.97c0.49,0,1,0.04,1.51,0.11
			c0.51,0.07,1.08,0.18,1.69,0.31l-0.5,4.35c-0.32-0.05-0.63-0.1-0.93-0.14c-0.3-0.04-0.65-0.06-1.05-0.06
			c-0.95,0-1.67,0.26-2.15,0.78c-0.49,0.52-0.73,1.27-0.73,2.25v2.41h4.31v4.11h-4.31v17.58H1285.85z M1319.6,412.67l0.36,1.58h0.12
			l0.34-1.54l6.35-21.47h6.17l-9.92,29.18h-6.01l-9.9-29.18h6.17L1319.6,412.67z M1341.49,393.55h-5.85v-4.39h5.85V393.55z
			 M1341.49,420.43h-5.85v-21.69h5.85V420.43z M1357.7,403.77l-2.14-0.06c-0.87,0-1.58,0.18-2.14,0.54
			c-0.56,0.36-0.99,0.87-1.28,1.52v14.65h-5.83v-21.69h5.43l0.26,3.21c0.51-1.13,1.17-2.02,1.97-2.66s1.74-0.95,2.8-0.95
			c0.29,0,0.56,0.02,0.81,0.07c0.25,0.05,0.5,0.1,0.75,0.17L1357.7,403.77z M1359.77,409.76c0-3.42,0.74-6.18,2.23-8.28
			c1.49-2.1,3.58-3.15,6.26-3.15c1.22,0,2.29,0.27,3.21,0.82s1.71,1.33,2.36,2.34l0.46-2.77h5.05v21.59c0,2.82-0.92,5-2.78,6.54
			c-1.85,1.54-4.43,2.31-7.73,2.31c-1.1,0-2.26-0.15-3.49-0.45s-2.37-0.71-3.41-1.23l1.08-4.37c0.9,0.43,1.81,0.75,2.74,0.97
			c0.93,0.22,1.94,0.33,3.04,0.33c1.6,0,2.78-0.33,3.54-1c0.75-0.67,1.13-1.71,1.13-3.13v-1.96c-0.64,0.82-1.4,1.44-2.26,1.86
			c-0.87,0.43-1.86,0.64-2.99,0.64c-2.66,0-4.73-0.98-6.22-2.94c-1.49-1.96-2.23-4.53-2.23-7.73V409.76z M1365.62,410.19
			c0,1.91,0.32,3.41,0.96,4.51s1.68,1.64,3.13,1.64c0.89,0,1.65-0.16,2.27-0.49c0.62-0.33,1.12-0.81,1.49-1.44v-9.48
			c-0.37-0.66-0.87-1.17-1.49-1.53c-0.62-0.36-1.37-0.54-2.23-0.54c-1.43,0-2.48,0.64-3.14,1.92c-0.66,1.28-0.99,2.94-0.99,5V410.19
			z M1389.99,393.55h-5.85v-4.39h5.85V393.55z M1389.99,420.43h-5.85v-21.69h5.85V420.43z M1400.15,398.74l0.26,3.11
			c0.72-1.11,1.61-1.97,2.67-2.59c1.06-0.61,2.24-0.92,3.55-0.92c2.19,0,3.9,0.69,5.13,2.06c1.23,1.38,1.84,3.53,1.84,6.47v13.55
			h-5.87v-13.56c0-1.46-0.29-2.49-0.88-3.1s-1.48-0.91-2.67-0.91c-0.78,0-1.47,0.16-2.08,0.47c-0.62,0.31-1.13,0.76-1.54,1.33v15.77
			h-5.85v-21.69H1400.15z M1424.12,393.55h-5.85v-4.39h5.85V393.55z M1424.12,420.43h-5.85v-21.69h5.85V420.43z M1441.66,420.43
			c-0.21-0.49-0.4-1.01-0.55-1.56c-0.15-0.55-0.26-1.11-0.33-1.68c-0.6,1.06-1.39,1.93-2.38,2.63s-2.15,1.04-3.52,1.04
			c-2.27,0-4.02-0.58-5.25-1.75c-1.23-1.17-1.84-2.76-1.84-4.78c0-2.12,0.82-3.77,2.46-4.94c1.64-1.17,4.03-1.75,7.17-1.75h3.27
			v-1.72c0-1.04-0.27-1.85-0.82-2.43c-0.55-0.57-1.36-0.86-2.42-0.86c-0.95,0-1.68,0.23-2.2,0.69s-0.77,1.1-0.77,1.91l-5.65-0.02
			l-0.02-0.12c-0.09-1.83,0.7-3.41,2.38-4.74c1.68-1.33,3.9-1.99,6.63-1.99c2.59,0,4.7,0.66,6.31,1.97
			c1.62,1.32,2.42,3.19,2.42,5.62v8.96c0,1.02,0.08,1.97,0.23,2.87c0.15,0.89,0.4,1.78,0.73,2.67H1441.66z M1436.31,416.52
			c1.03,0,1.94-0.25,2.75-0.76s1.34-1.09,1.62-1.76v-3.07h-3.27c-1.24,0-2.18,0.31-2.83,0.93c-0.64,0.62-0.96,1.37-0.96,2.25
			c0,0.72,0.24,1.3,0.72,1.74C1434.83,416.3,1435.48,416.52,1436.31,416.52z M1376.07,372.2c-0.17-0.39-0.31-0.8-0.43-1.23
			s-0.21-0.87-0.26-1.33c-0.47,0.83-1.1,1.52-1.87,2.07s-1.7,0.82-2.77,0.82c-1.79,0-3.17-0.46-4.14-1.38
			c-0.97-0.92-1.45-2.18-1.45-3.77c0-1.67,0.64-2.97,1.93-3.89c1.29-0.92,3.17-1.38,5.64-1.38h2.57v-1.36
			c0-0.82-0.22-1.46-0.65-1.91c-0.43-0.45-1.07-0.68-1.91-0.68c-0.75,0-1.32,0.18-1.73,0.54c-0.41,0.36-0.61,0.87-0.61,1.51
			l-4.45-0.02l-0.02-0.09c-0.07-1.44,0.55-2.69,1.88-3.73c1.33-1.05,3.07-1.57,5.23-1.57c2.04,0,3.7,0.52,4.97,1.56
			c1.27,1.04,1.91,2.51,1.91,4.43v7.06c0,0.8,0.06,1.55,0.18,2.26c0.12,0.71,0.31,1.41,0.58,2.1H1376.07z M1371.86,369.12
			c0.81,0,1.53-0.2,2.16-0.6c0.63-0.4,1.06-0.86,1.28-1.39v-2.42h-2.57c-0.98,0-1.72,0.24-2.23,0.73c-0.51,0.49-0.76,1.08-0.76,1.78
			c0,0.57,0.19,1.03,0.57,1.37C1370.69,368.94,1371.21,369.12,1371.86,369.12z M1388.9,350.93v4.18h2.87v3.24h-2.87v8.7
			c0,0.66,0.14,1.14,0.41,1.42c0.27,0.28,0.64,0.43,1.11,0.43c0.24,0,0.45-0.01,0.62-0.04s0.38-0.07,0.61-0.13l0.4,3.33
			c-0.46,0.16-0.92,0.28-1.36,0.35c-0.44,0.08-0.92,0.12-1.44,0.12c-1.59,0-2.81-0.44-3.67-1.31c-0.86-0.87-1.29-2.26-1.29-4.15
			v-8.72h-2.5v-3.24h2.5v-4.18H1388.9z M1408.24,350.93v4.18h2.88v3.24h-2.88v8.7c0,0.66,0.14,1.14,0.41,1.42
			c0.27,0.28,0.64,0.43,1.11,0.43c0.24,0,0.45-0.01,0.62-0.04s0.38-0.07,0.61-0.13l0.39,3.33c-0.46,0.16-0.92,0.28-1.36,0.35
			c-0.44,0.08-0.92,0.12-1.44,0.12c-1.59,0-2.81-0.44-3.67-1.31c-0.86-0.87-1.29-2.26-1.29-4.15v-8.72h-2.5v-3.24h2.5v-4.18H1408.24
			z M1418.55,357.28c0.54-0.78,1.19-1.39,1.97-1.82s1.64-0.66,2.59-0.66c1.78,0,3.18,0.59,4.19,1.78c1.02,1.18,1.52,3.01,1.52,5.49
			v10.14h-4.61V362c0-1.33-0.23-2.27-0.7-2.82c-0.47-0.55-1.17-0.83-2.09-0.83c-0.63,0-1.19,0.11-1.67,0.34s-0.88,0.55-1.2,0.96
			v12.55h-4.61v-24.63h4.61V357.28z M1439.87,372.53c-2.46,0-4.43-0.79-5.91-2.37c-1.47-1.58-2.21-3.58-2.21-6.02v-0.63
			c0-2.54,0.7-4.63,2.09-6.27c1.39-1.64,3.27-2.46,5.61-2.45c2.31,0,4.09,0.69,5.37,2.08c1.27,1.39,1.91,3.27,1.91,5.64v2.51h-10.2
			l-0.03,0.09c0.08,1.12,0.46,2.04,1.13,2.77c0.67,0.72,1.58,1.09,2.72,1.09c1.02,0,1.87-0.1,2.54-0.3s1.41-0.52,2.21-0.96
			l1.25,2.84c-0.69,0.57-1.61,1.04-2.73,1.41C1442.5,372.34,1441.25,372.53,1439.87,372.53z M1439.46,358.35
			c-0.85,0-1.53,0.33-2.02,0.98c-0.5,0.65-0.8,1.51-0.92,2.57l0.05,0.08h5.65v-0.41c0-0.98-0.23-1.76-0.69-2.34
			C1441.07,358.64,1440.38,358.35,1439.46,358.35z"/>
	</g>
	<g>
		<g>
			<path d="M303.67,288.24h63.95v67.62h-63.95V288.24z M367.43,271.79h-80.21V372.3h96.85V171.8h-16.63V271.79z M69.21,372.3h83.73
				v-16.45H85.66v-67.62h67.28v-16.45H69.21V372.3z M252.06,355.86h-64.34v-67.62h64.34V355.86z M171.27,372.3h97.24V271.79h-97.24
				V372.3z M479.32,311.02h-60.09v-22.79h60.09V311.02z M419.23,355.86v-28.38h76.54v-55.68h-92.99V372.3h93.96v-16.45H419.23z"/>
			<path d="M331.2,240.49c0,6.46,3.29,9.69,7.36,9.69c4.97,0,8.2-4.2,8.2-11.37c0-5.36-2.91-9.49-7.55-9.43
				C334.62,229.45,331.2,233.71,331.2,240.49 M292.58,210.08c6.65-6.59,11.49-15.05,11.49-23.05c0-5.3-1.61-8.33-4.97-8.33
				c-3.55,0-6.14,3.68-6.33,16.73L292.58,210.08z M218.71,232.1c-1.74,1.74-3.94,3.74-6.01,5.42c-2.45,1.94-4.65,1.94-6.14,0.45
				c-1.48-1.48-1.23-3.75,0.71-5.87c5.88-6.46,11.88-10.59,14.85-10.59c2.65,0,3.87,1.55,4.13,6.14c0.52,8.65,1.61,22.54,8.2,22.54
				c5.1,0,8.01-9.43,8.01-23.38c0-3.36,1.42-5.3,4-5.3s4,1.94,4,5.3c0,13.88,0.39,23.38,5.75,23.38c6.01,0,9.69-14.01,9.69-24.93
				c0-2.58,1.23-3.74,3.36-3.74c4.84,0,10.14-1.87,15.17-5.04l0.26-22.09c0.19-15.95,5.68-23.57,14.66-23.57
				c8.07,0,12.72,5.29,12.72,14.92c0,13.17-8.85,25.96-19.63,34.35l-0.07,5.49c2.39-1.93,6.07-4.07,10.01-4.07
				c6.65,0,10.14,4.39,10.14,15.11c0,10.2,2.13,13.56,5.88,13.56c2.33,0,4.07-1.29,5.49-3.1c-0.58-1.94-0.84-4.07-0.84-6.39
				c0-9.75,6.46-19.18,16.85-19.18c9.23,0,14.98,7.23,14.98,17.05c0,10.85-7.23,19.5-16.85,19.5c-4.52,0-8.2-1.68-10.78-4.59
				c-2.39,2.39-5.62,4.59-9.82,4.59c-7.68,0-12.91-5.68-12.91-21.7c0-5.04-1.36-6.98-4.26-6.98c-2.52,0-5.81,2.52-8.01,4.52
				L292,253.02c-0.07,3.36-1.55,5.04-4,5.04c-2.45,0-4.07-1.68-4-5.04l0.32-27.7c-3.62,1.94-7.23,3.29-10.66,4
				c-1.23,15.89-7.1,28.74-18.21,28.74c-5.49,0-8.53-4.07-10.14-8.07c-2.26,4-5.88,8.07-11.3,8.07
				C220.19,258.06,218.77,239.72,218.71,232.1 M140.31,236.1c6.65-10.85,12.01-26.48,12.01-42.17c0-11.82-2.39-15.24-5.68-15.24
				c-4.07,0-8.39,6.26-8.46,31.9C138.18,221.77,138.95,230.03,140.31,236.1 M78.45,206.07c0,2.78-2.65,5.75-5.81,5.75
				c-3.29,0-5.3-2.45-5.3-5.49c0-2.9,2.71-5.1,6.14-5.1C76.44,201.23,78.45,203.43,78.45,206.07 M35.37,312.11
				c4.71,0,7.36-4.52,7.49-18.15l0.26-20.27c-7.81,10.85-13.95,21.18-13.95,29.06C29.17,309.2,31.76,312.11,35.37,312.11
				 M34.73,250.18c3.42,0,6.33-1.1,8.65-3.49l0.19-12.59c-2.39-3.36-5.88-4.72-8.78-4.72c-5.55,0-9.23,4.39-9.23,10.53
				C25.56,246.11,29.24,250.18,34.73,250.18 M43.83,224.54c0.52-1.81,1.87-3.04,3.74-3.04c2.39,0,4,2,4,4.58l-0.26,25.64
				c5.75-7.55,11.62-16.34,16.34-24.99c1.81-3.36,2.9-5.23,5.04-5.23c2.65,0,3.62,1.87,3.62,4.72v11.88
				c0,9.94,1.81,12.08,4.52,12.08c5.1,0,9.82-11.49,10.85-23.96c0.26-3.49,1.62-4.91,4.78-4.72l15.5,0.9
				c3.62,0.19,4.46,1.94,4.58,6.46l0.26,8.85c0.26,9.69,3.16,12.46,7.36,12.46c3.03,0,6.59-2.2,10.07-5.94
				c-2.65-7.75-4.2-19.31-4.2-35.84c0-28.35,7.88-37.58,17.31-37.58c9.04,0,13.11,7.49,13.11,20.73c0,18.66-7.1,40.04-17.11,53.47
				c2,3.68,4.33,5.17,6.59,5.17c6.07,0,12.4-14.34,17.24-23.05c2.65-4.78,3.16-6.01,6.07-5.62c10.33,1.42,18.15,7.95,18.15,18.98
				c0,11.17-9.3,19.7-21.96,17.57c-3.03-0.52-4.58-2.2-4.58-4.39c0-2.39,2.2-3.62,5.62-3.17c9.36,1.23,12.78-4.26,12.78-9.49
				c0-5.75-3.48-9.75-9.17-11.11c-11.36,24.35-17.76,28.16-24.99,28.16c-4.33,0-8.27-1.87-11.5-6.65c-4.52,4.2-9.43,6.65-14.46,6.65
				c-8.72,0-14.14-5.23-14.4-18.53l-0.19-9.24l-9.23-0.58c-1.49,15.43-7.75,28.35-19.18,28.35c-6.91,0-12.14-5.43-10.91-20.28
				c-4.39,8.14-11.43,17.89-18.02,26.61l-0.32,28.67c-0.19,19.7-6.01,26.93-16.27,26.93c-7.62,0-13.43-5.17-13.43-16.14
				c0-13.82,10.14-27.06,22.09-42.17l0.06-6.39c-2.39,1.61-5.55,2.78-9.49,2.78c-9.17,0-16.4-6.65-16.4-17.83
				c0-10.07,7.3-18.73,17.24-18.73C38.54,221.51,41.64,222.73,43.83,224.54"/>
		</g>
		<path class="st2" d="M235.99,391.24v19.36c0,3.27-1.08,5.8-3.25,7.58c-2.16,1.78-5,2.67-8.5,2.67c-3.49,0-6.3-0.89-8.45-2.67
			c-2.14-1.78-3.22-4.3-3.22-7.58v-19.36h5.87v19.35c0,1.92,0.51,3.36,1.54,4.32c1.03,0.96,2.45,1.43,4.25,1.43
			c1.83,0,3.27-0.47,4.31-1.42c1.04-0.95,1.56-2.39,1.56-4.33v-19.35H235.99z M245.97,398.74l0.26,3.11
			c0.72-1.11,1.61-1.97,2.67-2.59c1.06-0.61,2.24-0.92,3.55-0.92c2.19,0,3.9,0.69,5.13,2.06c1.23,1.38,1.84,3.53,1.84,6.47v13.55
			h-5.87v-13.56c0-1.46-0.29-2.49-0.88-3.1s-1.48-0.91-2.67-0.91c-0.78,0-1.47,0.16-2.08,0.47c-0.62,0.31-1.13,0.76-1.54,1.33v15.77
			h-5.85v-21.69H245.97z M269.94,393.55h-5.85v-4.39h5.85V393.55z M269.94,420.43h-5.85v-21.69h5.85V420.43z M282.59,412.35l0.38,2
			h0.12l0.4-2l3.57-13.61h6.11l-7.38,21.69h-5.59l-7.38-21.69h6.11L282.59,412.35z M305.02,420.85c-3.13,0-5.62-1-7.5-3.01
			c-1.87-2-2.81-4.55-2.81-7.64v-0.8c0-3.22,0.88-5.87,2.66-7.96c1.77-2.08,4.14-3.12,7.12-3.11c2.93,0,5.2,0.88,6.81,2.65
			c1.62,1.76,2.42,4.15,2.42,7.16v3.19h-12.95l-0.04,0.12c0.11,1.42,0.58,2.6,1.43,3.51s2,1.38,3.46,1.38
			c1.29,0,2.37-0.13,3.23-0.39c0.85-0.26,1.79-0.66,2.81-1.22l1.58,3.61c-0.88,0.72-2.04,1.32-3.47,1.79
			C308.36,420.61,306.77,420.85,305.02,420.85z M304.5,402.85c-1.08,0-1.94,0.41-2.57,1.24c-0.63,0.83-1.02,1.92-1.16,3.27l0.06,0.1
			H308v-0.52c0-1.24-0.29-2.24-0.87-2.98C306.55,403.22,305.67,402.85,304.5,402.85z M328.55,403.77l-2.14-0.06
			c-0.87,0-1.58,0.18-2.14,0.54c-0.56,0.36-0.99,0.87-1.28,1.52v14.65h-5.83v-21.69h5.43l0.26,3.21c0.51-1.13,1.17-2.02,1.97-2.66
			s1.74-0.95,2.8-0.95c0.29,0,0.56,0.02,0.81,0.07c0.25,0.05,0.5,0.1,0.75,0.17L328.55,403.77z M343.24,414.45
			c0-0.64-0.31-1.2-0.93-1.66c-0.62-0.47-1.77-0.88-3.46-1.24c-2.57-0.52-4.5-1.29-5.8-2.31s-1.96-2.42-1.96-4.18
			c0-1.87,0.79-3.46,2.36-4.76s3.67-1.95,6.3-1.95c2.77,0,4.97,0.65,6.6,1.94s2.42,2.93,2.36,4.91l-0.04,0.12h-5.65
			c0-0.87-0.28-1.58-0.83-2.12s-1.37-0.82-2.43-0.82c-0.95,0-1.69,0.23-2.24,0.69s-0.81,1.04-0.81,1.73c0,0.67,0.28,1.22,0.85,1.64
			c0.57,0.43,1.72,0.81,3.46,1.14c2.67,0.53,4.66,1.32,5.95,2.35c1.3,1.04,1.94,2.46,1.94,4.28c0,1.95-0.83,3.54-2.51,4.78
			c-1.67,1.24-3.88,1.85-6.61,1.85c-2.89,0-5.17-0.73-6.84-2.19s-2.48-3.13-2.4-5l0.04-0.12h5.35c0.04,1.16,0.42,2,1.14,2.53
			s1.66,0.78,2.83,0.78c1.08,0,1.91-0.21,2.48-0.64C342.95,415.77,343.24,415.19,343.24,414.45z M358.83,393.55h-5.85v-4.39h5.85
			V393.55z M358.83,420.43h-5.85v-21.69h5.85V420.43z M370.6,393.43v5.31h3.65v4.11h-3.65v11.04c0,0.84,0.17,1.44,0.52,1.8
			c0.35,0.36,0.81,0.54,1.4,0.54c0.31,0,0.57-0.02,0.79-0.05c0.22-0.03,0.48-0.09,0.77-0.17l0.5,4.23c-0.59,0.2-1.16,0.35-1.72,0.45
			c-0.56,0.1-1.17,0.15-1.82,0.15c-2.02,0-3.57-0.55-4.66-1.66s-1.63-2.87-1.63-5.27v-11.06h-3.17v-4.11h3.17v-5.31H370.6z
			 M385.79,411.33l0.24,1.2h0.12l4.15-13.79h6.29l-8.8,24.93c-0.62,1.55-1.45,2.86-2.51,3.92c-1.06,1.06-2.64,1.59-4.75,1.59
			c-0.49,0-0.95-0.04-1.37-0.12s-0.93-0.19-1.53-0.34l0.68-4.27c0.17,0.03,0.36,0.05,0.56,0.08c0.2,0.03,0.38,0.04,0.54,0.04
			c0.96,0,1.7-0.24,2.22-0.71s0.92-1.07,1.2-1.77l0.68-1.68l-7.7-21.67h6.29L385.79,411.33z M408.26,409.38
			c0-3.23,0.9-5.88,2.71-7.95s4.3-3.1,7.5-3.1c3.21,0,5.72,1.03,7.54,3.09c1.82,2.06,2.73,4.71,2.73,7.96v0.42
			c0,3.26-0.91,5.92-2.72,7.97s-4.31,3.08-7.51,3.08c-3.21,0-5.72-1.03-7.53-3.08s-2.72-4.71-2.72-7.97V409.38z M414.09,409.79
			c0,1.97,0.35,3.56,1.04,4.75c0.69,1.19,1.82,1.79,3.37,1.79c1.51,0,2.62-0.6,3.32-1.8c0.7-1.2,1.05-2.78,1.05-4.74v-0.42
			c0-1.92-0.35-3.49-1.06-4.7s-1.82-1.82-3.35-1.82c-1.51,0-2.62,0.61-3.32,1.83s-1.05,2.79-1.05,4.69V409.79z M433.85,420.43
			v-17.58h-3.23v-4.11h3.23v-2.41c0-2.43,0.7-4.31,2.1-5.62c1.4-1.32,3.37-1.97,5.91-1.97c0.49,0,1,0.04,1.51,0.11
			c0.51,0.07,1.08,0.18,1.69,0.31l-0.5,4.35c-0.32-0.05-0.63-0.1-0.93-0.14c-0.3-0.04-0.65-0.06-1.05-0.06
			c-0.95,0-1.67,0.26-2.15,0.78c-0.49,0.52-0.73,1.27-0.73,2.25v2.41h4.31v4.11h-4.31v17.58H433.85z M467.6,412.67l0.36,1.58h0.12
			l0.34-1.54l6.35-21.47h6.17l-9.92,29.18h-6.01l-9.9-29.18h6.17L467.6,412.67z M489.49,393.55h-5.85v-4.39h5.85V393.55z
			 M489.49,420.43h-5.85v-21.69h5.85V420.43z M505.7,403.77l-2.14-0.06c-0.87,0-1.58,0.18-2.14,0.54c-0.56,0.36-0.99,0.87-1.28,1.52
			v14.65h-5.83v-21.69h5.43l0.26,3.21c0.51-1.13,1.17-2.02,1.97-2.66s1.74-0.95,2.8-0.95c0.29,0,0.56,0.02,0.81,0.07
			c0.25,0.05,0.5,0.1,0.75,0.17L505.7,403.77z M507.77,409.76c0-3.42,0.74-6.18,2.23-8.28c1.49-2.1,3.58-3.15,6.26-3.15
			c1.22,0,2.29,0.27,3.21,0.82s1.71,1.33,2.36,2.34l0.46-2.77h5.05v21.59c0,2.82-0.92,5-2.78,6.54c-1.85,1.54-4.43,2.31-7.73,2.31
			c-1.1,0-2.26-0.15-3.49-0.45s-2.37-0.71-3.41-1.23l1.08-4.37c0.9,0.43,1.81,0.75,2.74,0.97c0.93,0.22,1.94,0.33,3.04,0.33
			c1.6,0,2.78-0.33,3.54-1c0.75-0.67,1.13-1.71,1.13-3.13v-1.96c-0.64,0.82-1.4,1.44-2.26,1.86c-0.87,0.43-1.86,0.64-2.99,0.64
			c-2.66,0-4.73-0.98-6.22-2.94c-1.49-1.96-2.23-4.53-2.23-7.73V409.76z M513.62,410.19c0,1.91,0.32,3.41,0.96,4.51
			s1.68,1.64,3.13,1.64c0.89,0,1.65-0.16,2.27-0.49c0.62-0.33,1.12-0.81,1.49-1.44v-9.48c-0.37-0.66-0.87-1.17-1.49-1.53
			c-0.62-0.36-1.37-0.54-2.23-0.54c-1.43,0-2.48,0.64-3.14,1.92c-0.66,1.28-0.99,2.94-0.99,5V410.19z M537.99,393.55h-5.85v-4.39
			h5.85V393.55z M537.99,420.43h-5.85v-21.69h5.85V420.43z M548.15,398.74l0.26,3.11c0.72-1.11,1.61-1.97,2.67-2.59
			c1.06-0.61,2.24-0.92,3.55-0.92c2.19,0,3.9,0.69,5.13,2.06c1.23,1.38,1.84,3.53,1.84,6.47v13.55h-5.87v-13.56
			c0-1.46-0.29-2.49-0.88-3.1s-1.48-0.91-2.67-0.91c-0.78,0-1.47,0.16-2.08,0.47c-0.62,0.31-1.13,0.76-1.54,1.33v15.77h-5.85v-21.69
			H548.15z M572.12,393.55h-5.85v-4.39h5.85V393.55z M572.12,420.43h-5.85v-21.69h5.85V420.43z M589.66,420.43
			c-0.21-0.49-0.4-1.01-0.55-1.56c-0.15-0.55-0.26-1.11-0.33-1.68c-0.6,1.06-1.39,1.93-2.38,2.63s-2.15,1.04-3.52,1.04
			c-2.27,0-4.02-0.58-5.25-1.75c-1.23-1.17-1.84-2.76-1.84-4.78c0-2.12,0.82-3.77,2.46-4.94c1.64-1.17,4.03-1.75,7.17-1.75h3.27
			v-1.72c0-1.04-0.27-1.85-0.82-2.43c-0.55-0.57-1.36-0.86-2.42-0.86c-0.95,0-1.68,0.23-2.2,0.69s-0.77,1.1-0.77,1.91l-5.65-0.02
			l-0.02-0.12c-0.09-1.83,0.7-3.41,2.38-4.74c1.68-1.33,3.9-1.99,6.63-1.99c2.59,0,4.7,0.66,6.31,1.97
			c1.62,1.32,2.42,3.19,2.42,5.62v8.96c0,1.02,0.08,1.97,0.23,2.87c0.15,0.89,0.4,1.78,0.73,2.67H589.66z M584.31,416.52
			c1.03,0,1.94-0.25,2.75-0.76s1.34-1.09,1.62-1.76v-3.07h-3.27c-1.24,0-2.18,0.31-2.83,0.93c-0.64,0.62-0.96,1.37-0.96,2.25
			c0,0.72,0.24,1.3,0.72,1.74C582.83,416.3,583.48,416.52,584.31,416.52z M524.07,372.19c-0.17-0.39-0.31-0.8-0.43-1.23
			s-0.21-0.87-0.26-1.33c-0.47,0.83-1.1,1.52-1.87,2.07c-0.77,0.55-1.7,0.82-2.77,0.82c-1.79,0-3.17-0.46-4.14-1.38
			c-0.97-0.92-1.45-2.18-1.45-3.77c0-1.67,0.64-2.97,1.93-3.89c1.29-0.92,3.17-1.38,5.64-1.38h2.57v-1.36
			c0-0.82-0.22-1.46-0.65-1.91c-0.43-0.45-1.07-0.68-1.91-0.68c-0.75,0-1.32,0.18-1.73,0.54c-0.41,0.36-0.61,0.87-0.61,1.51
			l-4.45-0.02l-0.02-0.09c-0.07-1.44,0.55-2.69,1.88-3.73c1.33-1.05,3.07-1.57,5.23-1.57c2.04,0,3.7,0.52,4.97,1.56
			c1.27,1.04,1.91,2.51,1.91,4.43v7.06c0,0.8,0.06,1.55,0.18,2.26c0.12,0.71,0.31,1.41,0.58,2.1H524.07z M519.86,369.12
			c0.81,0,1.53-0.2,2.16-0.6c0.63-0.4,1.06-0.86,1.28-1.39v-2.42h-2.57c-0.98,0-1.72,0.24-2.23,0.73c-0.5,0.49-0.76,1.08-0.76,1.78
			c0,0.57,0.19,1.03,0.57,1.37C518.69,368.94,519.21,369.12,519.86,369.12z M536.9,350.92v4.18h2.87v3.24h-2.87v8.7
			c0,0.66,0.14,1.14,0.41,1.42s0.64,0.43,1.11,0.43c0.24,0,0.45-0.01,0.62-0.04s0.38-0.07,0.61-0.13l0.4,3.33
			c-0.46,0.16-0.92,0.28-1.36,0.36s-0.92,0.12-1.44,0.12c-1.59,0-2.81-0.44-3.67-1.31c-0.86-0.87-1.29-2.26-1.29-4.15v-8.72h-2.49
			v-3.24h2.49v-4.18H536.9z M556.24,350.92v4.18h2.87v3.24h-2.87v8.7c0,0.66,0.14,1.14,0.41,1.42c0.27,0.28,0.64,0.43,1.11,0.43
			c0.24,0,0.45-0.01,0.62-0.04s0.38-0.07,0.61-0.13l0.4,3.33c-0.46,0.16-0.92,0.28-1.36,0.36c-0.44,0.08-0.92,0.12-1.44,0.12
			c-1.59,0-2.81-0.44-3.67-1.31c-0.86-0.87-1.29-2.26-1.29-4.15v-8.72h-2.5v-3.24h2.5v-4.18H556.24z M566.55,357.27
			c0.54-0.78,1.19-1.39,1.97-1.82c0.78-0.44,1.64-0.66,2.59-0.66c1.78,0,3.18,0.59,4.19,1.78c1.02,1.18,1.52,3.01,1.52,5.49v10.14
			h-4.61V362c0-1.33-0.23-2.27-0.7-2.82c-0.47-0.55-1.17-0.83-2.09-0.83c-0.63,0-1.19,0.11-1.67,0.34c-0.48,0.23-0.88,0.55-1.2,0.96
			v12.55h-4.61v-24.63h4.61V357.27z M587.87,372.53c-2.46,0-4.43-0.79-5.91-2.37c-1.47-1.58-2.21-3.58-2.21-6.02v-0.63
			c0-2.54,0.7-4.63,2.09-6.27c1.39-1.64,3.27-2.46,5.61-2.45c2.3,0,4.09,0.69,5.37,2.08c1.27,1.39,1.91,3.27,1.91,5.64v2.51h-10.2
			l-0.03,0.09c0.08,1.12,0.46,2.04,1.13,2.77c0.67,0.72,1.58,1.09,2.72,1.09c1.02,0,1.87-0.1,2.54-0.3s1.41-0.52,2.21-0.96
			l1.25,2.84c-0.7,0.57-1.61,1.04-2.73,1.41S589.25,372.53,587.87,372.53z M587.46,358.35c-0.85,0-1.53,0.33-2.02,0.98
			c-0.5,0.65-0.8,1.51-0.92,2.57l0.05,0.08h5.65v-0.41c0-0.98-0.23-1.76-0.69-2.34C589.08,358.64,588.38,358.35,587.46,358.35z"/>
	</g>
</g>
</svg>
