<svg xmlns="http://www.w3.org/2000/svg" viewBox="0 0 2010 670"><defs><style>.cls-1{font-size:30px;}.cls-1,.cls-2{fill:#f9b88c;font-family:RobotoMono-Regular, Roboto Mono;}.cls-2{font-size:31px;}.cls-10,.cls-11,.cls-12,.cls-13,.cls-14,.cls-15,.cls-16,.cls-17,.cls-18,.cls-19,.cls-20,.cls-21,.cls-22,.cls-23,.cls-24,.cls-3,.cls-4,.cls-5,.cls-6,.cls-7,.cls-8,.cls-9{fill:none;stroke:#f9b88c;stroke-miterlimit:10;}.cls-4{stroke-width:1.57px;}.cls-5{stroke-width:2.14px;}.cls-6{stroke-width:2.71px;}.cls-7{stroke-width:3.29px;}.cls-8{stroke-width:3.86px;}.cls-9{stroke-width:4.43px;}.cls-10{stroke-width:5px;}.cls-11{stroke-width:5.57px;}.cls-12{stroke-width:6.14px;}.cls-13{stroke-width:6.71px;}.cls-14{stroke-width:7.29px;}.cls-15{stroke-width:7.86px;}.cls-16{stroke-width:8.43px;}.cls-17{stroke-width:9px;}.cls-18{stroke-width:9.57px;}.cls-19{stroke-width:10.14px;}.cls-20{stroke-width:10.71px;}.cls-21{stroke-width:11.29px;}.cls-22{stroke-width:11.86px;}.cls-23{stroke-width:12.43px;}.cls-24{stroke-width:13px;}</style></defs><g id="Layer_5" data-name="Layer 5"><text class="cls-1" transform="translate(5.59 520.21) rotate(32.42)">G</text><text class="cls-1" transform="translate(21.19 530.11) rotate(30.97)">e</text><text class="cls-1" transform="matrix(0.87, 0.49, -0.49, 0.87, 37.03, 539.6)">t</text><text class="cls-1" transform="translate(53.08 548.7) rotate(28.19)"> </text><text class="cls-1" transform="translate(69.35 557.41) rotate(26.84)">s</text><text class="cls-1" transform="matrix(0.9, 0.43, -0.43, 0.9, 85.82, 565.74)">t</text><text class="cls-1" transform="matrix(0.91, 0.41, -0.41, 0.91, 102.48, 573.68)">a</text><text class="cls-1" transform="translate(119.32 581.22) rotate(22.78)">r</text><text class="cls-1" transform="translate(136.32 588.36) rotate(21.4)">t</text><text class="cls-1" transform="matrix(0.94, 0.34, -0.34, 0.94, 153.52, 595.09)">e</text><text class="cls-1" transform="translate(170.9 601.41) rotate(18.53)">d</text><text class="cls-1" transform="matrix(0.96, 0.29, -0.29, 0.96, 188.43, 607.28)">.</text><text class="cls-1" transform="translate(206.15 612.7) rotate(15.47)"> </text><text class="cls-1" transform="translate(224 617.63) rotate(13.85)">G</text><text class="cls-1" transform="translate(242.05 622.07) rotate(12.16)">e</text><text class="cls-1" transform="matrix(0.98, 0.18, -0.18, 0.98, 260.2, 625.98)">t</text><text class="cls-1" transform="translate(278.52 629.33) rotate(8.54)"> </text><text class="cls-1" transform="translate(296.97 632.09) rotate(6.59)">s</text><text class="cls-1" transform="translate(315.52 634.23) rotate(4.53)">t</text><text class="cls-1" transform="translate(334.17 635.7) rotate(2.36)">a</text><text class="cls-1" transform="matrix(1, 0, 0, 1, 352.93, 636.46)">r</text><text class="cls-1" transform="matrix(1, -0.04, 0.04, 1, 371.74, 636.47)">t</text><text class="cls-1" transform="translate(390.55 635.68) rotate(-4.9)">e</text><text class="cls-1" transform="translate(409.38 634.05) rotate(-7.59)">d</text><text class="cls-1" transform="translate(428.16 631.52) rotate(-10.42)">.</text><text class="cls-1" transform="translate(446.55 628.03) rotate(-12.78)"> </text><text class="cls-1" transform="translate(466.49 623.22) rotate(-20.22)">G</text><text class="cls-1" transform="translate(484.92 616.3) rotate(-25.27)">e</text><text class="cls-1" transform="matrix(0.87, -0.49, 0.49, 0.87, 502.38, 607.98)">t</text><text class="cls-1" transform="translate(519.1 598.54) rotate(-33.02)"> </text><text class="cls-1" transform="translate(536.25 587.52) rotate(-40.18)">s</text><text class="cls-1" transform="matrix(0.66, -0.75, 0.75, 0.66, 551.92, 573.89)">t</text><text class="cls-1" transform="matrix(0.6, -0.8, 0.8, 0.6, 564.69, 559.2)">a</text><text class="cls-1" transform="translate(575.48 544.76) rotate(-52.89)">r</text><text class="cls-1" transform="translate(585.78 530.86) rotate(-47.96)">t</text><text class="cls-1" transform="translate(596.88 518.38) rotate(-38.59)">e</text><text class="cls-1" transform="translate(609.97 507.84) rotate(-30)">d</text><text class="cls-1" transform="translate(624.57 499.35) rotate(-22.21)">.</text><text class="cls-1" transform="translate(640.34 492.89) rotate(-15.57)"> </text><text class="cls-1" transform="translate(656.93 488.26) rotate(-10.13)">G</text><text class="cls-1" transform="translate(674.04 485.2) rotate(-5.76)">e</text><text class="cls-1" transform="matrix(1, -0.04, 0.04, 1, 691.43, 483.45)">t</text><text class="cls-1" transform="translate(709.02 482.75) rotate(0.39)"> </text><text class="cls-1" transform="translate(726.73 482.88) rotate(2.43)">s</text><text class="cls-1" transform="matrix(1, 0.06, -0.06, 1, 744.16, 483.62)">t</text><text class="cls-1" transform="translate(761.41 484.72) rotate(4.93)">a</text><text class="cls-1" transform="matrix(0.99, 0.11, -0.11, 0.99, 778.58, 486.18)">r</text><text class="cls-1" transform="translate(795.68 488.06) rotate(7.74)">t</text><text class="cls-1" transform="translate(812.7 490.37) rotate(9.2)">e</text><text class="cls-1" transform="matrix(0.98, 0.18, -0.18, 0.98, 829.67, 493.1)">d</text><text class="cls-1" transform="translate(846.6 496.28) rotate(11.99)">.</text><text class="cls-1" transform="matrix(0.97, 0.23, -0.23, 0.97, 863.54, 499.87)"> </text><text class="cls-1" transform="translate(880.43 503.84) rotate(14.38)">G</text><text class="cls-1" transform="translate(897.95 508.37) rotate(14.07)">e</text><text class="cls-1" transform="translate(915.61 512.8) rotate(13.43)">t</text><text class="cls-1" transform="translate(933.36 517.04) rotate(12.7)"> </text><text class="cls-1" transform="translate(951.19 521.05) rotate(11.88)">s</text><text class="cls-1" transform="translate(969.1 524.82) rotate(10.97)">t</text><text class="cls-1" transform="translate(987.11 528.31) rotate(9.96)">a</text><text class="cls-1" transform="matrix(0.99, 0.15, -0.15, 0.99, 1005.2, 531.49)">r</text><text class="cls-1" transform="translate(1023.37 534.32) rotate(7.66)">t</text><text class="cls-1" transform="translate(1041.65 536.77) rotate(6.35)">e</text><text class="cls-1" transform="translate(1060 538.81) rotate(4.94)">d</text><text class="cls-1" transform="translate(1078.44 540.4) rotate(3.42)">.</text><text class="cls-1" transform="translate(1096.93 541.5) rotate(1.78)"> </text><text class="cls-1" transform="translate(1115.51 542.07) rotate(0.04)">G</text><text class="cls-1" transform="translate(1134.13 542.08) rotate(-1.82)">e</text><text class="cls-1" transform="matrix(1, -0.07, 0.07, 1, 1152.78, 541.48)">t</text><text class="cls-1" transform="translate(1171.41 540.23) rotate(-5.87)"> </text><text class="cls-1" transform="matrix(0.99, -0.14, 0.14, 0.99, 1190.04, 538.31)">s</text><text class="cls-1" transform="translate(1208.61 535.67) rotate(-10.33)">t</text><text class="cls-1" transform="translate(1227.11 532.28) rotate(-12.7)">a</text><text class="cls-1" transform="translate(1245.63 528.11) rotate(-15.75)">r</text><text class="cls-1" transform="matrix(0.95, -0.32, 0.32, 0.95, 1263.81, 522.94)">t</text><text class="cls-1" transform="translate(1281.48 517) rotate(-20.37)">e</text><text class="cls-1" transform="matrix(0.93, -0.37, 0.37, 0.93, 1298.67, 510.59)">d</text><text class="cls-1" transform="translate(1315.49 503.96) rotate(-21.63)">.</text><text class="cls-1" transform="translate(1331.88 497.44) rotate(-20.99)"> </text><text class="cls-1" transform="translate(1348.19 491.14) rotate(-19.48)">G</text><text class="cls-1" transform="translate(1364.82 485.23) rotate(-16.98)">e</text><text class="cls-1" transform="translate(1381.45 480.07) rotate(-13.28)">t</text><text class="cls-1" transform="translate(1398.75 475.94) rotate(-12.8)"> </text><text class="cls-1" transform="matrix(0.98, -0.21, 0.21, 0.98, 1415.89, 472.04)">s</text><text class="cls-1" transform="translate(1433.07 468.38) rotate(-11.29)">t</text><text class="cls-1" transform="matrix(0.98, -0.18, 0.18, 0.98, 1450.32, 464.93)">a</text><text class="cls-1" transform="translate(1467.58 461.72) rotate(-9.73)">r</text><text class="cls-1" transform="matrix(0.99, -0.16, 0.16, 0.99, 1484.87, 458.75)">t</text><text class="cls-1" transform="translate(1502.21 456.03) rotate(-8.11)">e</text><text class="cls-1" transform="translate(1519.57 453.55) rotate(-7.29)">d</text><text class="cls-1" transform="translate(1536.94 451.32) rotate(-6.45)">.</text><text class="cls-1" transform="translate(1554.37 449.35) rotate(-5.59)"> </text><text class="cls-1" transform="translate(1571.79 447.64) rotate(-4.72)">G</text><text class="cls-1" transform="matrix(1, -0.07, 0.07, 1, 1589.24, 446.2)">e</text><text class="cls-1" transform="matrix(1, -0.05, 0.05, 1, 1606.69, 445.02)">t</text><text class="cls-1" transform="translate(1624.15 444.12) rotate(-2.02)"> </text><text class="cls-1" transform="translate(1641.63 443.5) rotate(-1.09)">s</text><text class="cls-1" transform="matrix(1, 0, 0, 1, 1659.1, 443.16)">t</text><text class="cls-1" transform="matrix(1, 0.01, -0.01, 1, 1676.55, 443.11)">a</text><text class="cls-1" transform="translate(1694.01 443.35) rotate(1.78)">r</text><text class="cls-1" transform="translate(1711.45 443.89) rotate(2.77)">t</text><text class="cls-1" transform="matrix(1, 0.07, -0.07, 1, 1728.86, 444.73)">e</text><text class="cls-1" transform="matrix(1, 0.08, -0.08, 1, 1746.26, 445.87)">d</text><text class="cls-1" transform="translate(1763.63 447.32) rotate(5.82)">.</text><text class="cls-1" transform="translate(1780.94 449.07) rotate(6.86)"> </text><text class="cls-1" transform="matrix(0.99, 0.14, -0.14, 0.99, 1798.22, 451.15)">G</text><text class="cls-1" transform="matrix(0.99, 0.16, -0.16, 0.99, 1815.46, 453.54)">e</text><text class="cls-1" transform="translate(1832.65 456.26) rotate(10.08)">t</text><text class="cls-1" transform="translate(1849.76 459.29) rotate(11.18)"> </text><text class="cls-2" transform="matrix(0.79, -0.61, 0.61, 0.79, 17.61, 207.25)">G</text><text class="cls-2" transform="translate(31.51 196.44) rotate(-29.87)">e</text><text class="cls-2" transform="matrix(0.92, -0.39, 0.39, 0.92, 46.86, 187.6)">t</text><text class="cls-2" transform="translate(63.23 180.57) rotate(-17.65)"> </text><text class="cls-2" transform="matrix(0.97, -0.22, 0.22, 0.97, 80.28, 175.13)">s</text><text class="cls-2" transform="translate(97.78 171.1) rotate(-8.87)">t</text><text class="cls-2" transform="translate(115.55 168.32) rotate(-5.29)">a</text><text class="cls-2" transform="translate(133.49 166.65) rotate(-2.01)">r</text><text class="cls-2" transform="translate(151.53 166.03) rotate(0.92)">t</text><text class="cls-2" transform="translate(169.66 166.32) rotate(3.02)">e</text><text class="cls-2" transform="translate(187.77 167.27) rotate(4.97)">d</text><text class="cls-2" transform="translate(205.87 168.84) rotate(6.74)">.</text><text class="cls-2" transform="matrix(0.99, 0.14, -0.14, 0.99, 223.93, 170.97)"> </text><text class="cls-2" transform="translate(241.93 173.61) rotate(9.72)">G</text><text class="cls-2" transform="matrix(0.98, 0.19, -0.19, 0.98, 259.86, 176.68)">e</text><text class="cls-2" transform="matrix(0.98, 0.21, -0.21, 0.98, 277.78, 180.14)">t</text><text class="cls-2" transform="translate(295.62 183.92) rotate(12.76)"> </text><text class="cls-2" transform="matrix(0.97, 0.23, -0.23, 0.97, 313.42, 187.95)">s</text><text class="cls-2" transform="translate(331.21 192.18) rotate(13.8)">t</text><text class="cls-2" transform="translate(348.99 196.56) rotate(14.03)">a</text><text class="cls-2" transform="translate(366.77 201.01) rotate(14.07)">r</text><text class="cls-2" transform="translate(384.54 205.47) rotate(13.92)">t</text><text class="cls-2" transform="matrix(0.97, 0.23, -0.23, 0.97, 402.3, 209.87)">e</text><text class="cls-2" transform="matrix(0.97, 0.23, -0.23, 0.97, 420.07, 214.17)">d</text><text class="cls-2" transform="matrix(0.98, 0.21, -0.21, 0.98, 437.84, 218.3)">.</text><text class="cls-2" transform="matrix(0.98, 0.18, -0.18, 0.98, 456.02, 222.36)"> </text><text class="cls-2" transform="translate(474.62 225.81) rotate(8.04)">G</text><text class="cls-2" transform="translate(492.87 228.38) rotate(6.15)">e</text><text class="cls-2" transform="matrix(1, 0.08, -0.08, 1, 510.98, 230.32)">t</text><text class="cls-2" transform="translate(529.17 231.85) rotate(4.11)"> </text><text class="cls-2" transform="translate(547.45 233.15) rotate(3.92)">s</text><text class="cls-2" transform="translate(565.69 234.39) rotate(4.29)">t</text><text class="cls-2" transform="matrix(1, 0.09, -0.09, 1, 583.91, 235.77)">a</text><text class="cls-2" transform="translate(602.14 237.34) rotate(4.76)">r</text><text class="cls-2" transform="matrix(1, 0.07, -0.07, 1, 620.32, 238.88)">t</text><text class="cls-2" transform="translate(638.47 240.16) rotate(2.51)">e</text><text class="cls-2" transform="translate(657.23 241) rotate(0.27)">d</text><text class="cls-2" transform="matrix(1, -0.05, 0.05, 1, 676.27, 241.1)">.</text><text class="cls-2" transform="translate(695.49 240.17) rotate(-6.57)"> </text><text class="cls-2" transform="matrix(0.98, -0.19, 0.19, 0.98, 714.79, 237.89)">G</text><text class="cls-2" transform="translate(733.52 234.23) rotate(-14.72)">e</text><text class="cls-2" transform="translate(751.98 229.35) rotate(-17.93)">t</text><text class="cls-2" transform="matrix(0.94, -0.35, 0.35, 0.94, 770.05, 223.48)"> </text><text class="cls-2" transform="translate(787.69 216.8) rotate(-23.01)">s</text><text class="cls-2" transform="translate(804.53 209.64) rotate(-24.86)">t</text><text class="cls-2" transform="translate(821.02 201.99) rotate(-26.31)">a</text><text class="cls-2" transform="matrix(0.89, -0.46, 0.46, 0.89, 837.38, 193.9)">r</text><text class="cls-2" transform="translate(853.57 185.5) rotate(-28.14)">t</text><text class="cls-2" transform="translate(869.69 176.87) rotate(-28.56)">e</text><text class="cls-2" transform="translate(885.79 168.09) rotate(-28.67)">d</text><text class="cls-2" transform="translate(901.84 159.31) rotate(-28.47)">.</text><text class="cls-2" transform="matrix(0.88, -0.47, 0.47, 0.88, 917.91, 150.59)"> </text><text class="cls-2" transform="translate(934.02 142.01) rotate(-27.23)">G</text><text class="cls-2" transform="translate(950.11 133.74) rotate(-26.32)">e</text><text class="cls-2" transform="translate(966.37 126.84) rotate(-18.93)">t</text><text class="cls-2" transform="translate(983.69 120.89) rotate(-19.07)"> </text><text class="cls-2" transform="matrix(0.95, -0.32, 0.32, 0.95, 1000.99, 114.9)">s</text><text class="cls-2" transform="translate(1018.3 108.96) rotate(-18.54)">t</text><text class="cls-2" transform="translate(1035.6 103.14) rotate(-17.85)">a</text><text class="cls-2" transform="matrix(0.96, -0.29, 0.29, 0.96, 1052.95, 97.54)">r</text><text class="cls-2" transform="translate(1070.37 92.24) rotate(-15.62)">t</text><text class="cls-2" transform="translate(1087.88 87.34) rotate(-14.11)">e</text><text class="cls-2" transform="translate(1105.48 82.9) rotate(-12.37)">d</text><text class="cls-2" transform="translate(1123.2 79) rotate(-10.45)">.</text><text class="cls-2" transform="translate(1141.03 75.7) rotate(-8.38)"> </text><text class="cls-2" transform="matrix(0.99, -0.11, 0.11, 0.99, 1158.97, 73.05)">G</text><text class="cls-2" transform="translate(1176.99 71.07) rotate(-4.18)">e</text><text class="cls-2" transform="translate(1195.08 69.74) rotate(-2.17)">t</text><text class="cls-2" transform="matrix(1, 0, 0, 1, 1213.2, 69.05)"> </text><text class="cls-2" transform="translate(1231.36 68.97) rotate(1.74)">s</text><text class="cls-2" transform="matrix(1, 0.06, -0.06, 1, 1249.47, 69.51)">t</text><text class="cls-2" transform="translate(1267.59 70.67) rotate(5.58)">a</text><text class="cls-2" transform="translate(1285.64 72.42) rotate(7.52)">r</text><text class="cls-2" transform="translate(1303.63 74.79) rotate(9.49)">t</text><text class="cls-2" transform="translate(1321.52 77.77) rotate(11.49)">e</text><text class="cls-2" transform="translate(1339.29 81.37) rotate(13.56)">d</text><text class="cls-2" transform="matrix(0.96, 0.27, -0.27, 0.96, 1356.92, 85.61)">.</text><text class="cls-2" transform="matrix(0.95, 0.31, -0.31, 0.95, 1374.36, 90.5)"> </text><text class="cls-2" transform="translate(1391.59 96.06) rotate(20.4)">G</text><text class="cls-2" transform="translate(1408.55 102.36) rotate(22.73)">e</text><text class="cls-2" transform="translate(1425.27 109.37) rotate(24.85)">t</text><text class="cls-2" transform="translate(1441.74 116.99) rotate(26.76)"> </text><text class="cls-2" transform="translate(1457.96 125.17) rotate(28.46)">s</text><text class="cls-2" transform="translate(1473.95 133.83) rotate(29.94)">t</text><text class="cls-2" transform="matrix(0.86, 0.52, -0.52, 0.86, 1489.72, 142.92)">a</text><text class="cls-2" transform="translate(1505.3 152.37) rotate(32.3)">r</text><text class="cls-2" transform="translate(1520.73 162.13) rotate(33.17)">t</text><text class="cls-2" transform="translate(1536 172.11) rotate(33.84)">e</text><text class="cls-2" transform="translate(1551.18 182.29) rotate(34.36)">d</text><text class="cls-2" transform="matrix(0.82, 0.57, -0.57, 0.82, 1566.27, 192.6)">.</text><text class="cls-2" transform="translate(1581.27 203.05) rotate(35.38)"> </text><text class="cls-2" transform="matrix(0.81, 0.59, -0.59, 0.81, 1596.17, 213.63)">G</text><text class="cls-2" transform="matrix(0.8, 0.59, -0.59, 0.8, 1610.98, 224.35)">e</text><text class="cls-2" transform="matrix(0.8, 0.6, -0.6, 0.8, 1625.7, 235.19)">t</text><text class="cls-2" transform="matrix(0.79, 0.61, -0.61, 0.79, 1640.31, 246.16)"> </text><text class="cls-2" transform="translate(1654.81 257.25) rotate(37.92)">s</text><text class="cls-2" transform="matrix(0.78, 0.62, -0.62, 0.78, 1669.23, 268.49)">t</text><text class="cls-2" transform="matrix(0.78, 0.63, -0.63, 0.78, 1683.55, 279.85)">a</text><text class="cls-2" transform="translate(1697.77 291.33) rotate(39.45)">r</text><text class="cls-2" transform="translate(1712.1 303.21) rotate(37.7)">t</text><text class="cls-2" transform="translate(1727.18 314.9) rotate(34.56)">e</text><text class="cls-2" transform="matrix(0.86, 0.5, -0.5, 0.86, 1743.14, 325.89)">d</text><text class="cls-2" transform="translate(1760.22 335.81) rotate(24.33)">.</text><text class="cls-2" transform="translate(1778.59 344.05) rotate(16.83)"> </text><text class="cls-2" transform="matrix(0.99, 0.13, -0.13, 0.99, 1798.44, 349.68)">G</text><text class="cls-2" transform="matrix(0.99, 0.14, -0.14, 0.99, 1816.53, 352.13)">e</text><text class="cls-2" transform="translate(1835.04 354.76) rotate(5.63)">t</text><text class="cls-2" transform="translate(1854.53 356.71) rotate(0.45)"> </text><text class="cls-2" transform="matrix(0.99, -0.13, 0.13, 0.99, 1874.79, 356.82)">s</text><text class="cls-2" transform="translate(1893.14 354.27) rotate(-10.21)">t</text><text class="cls-2" transform="translate(1911.71 350.94) rotate(-12.54)">a</text><text class="cls-2" transform="translate(1930.4 346.81) rotate(-15.89)">r</text><text class="cls-2" transform="matrix(0.94, -0.35, 0.35, 0.94, 1949.04, 341.44)">t</text><text class="cls-2" transform="matrix(0.92, -0.39, 0.39, 0.92, 1966.66, 334.82)">e</text><text class="cls-2" transform="matrix(0.92, -0.4, 0.4, 0.92, 1983.45, 327.63)">d</text><text class="cls-2" transform="translate(2000.11 320.29) rotate(-22.12)">.</text><text class="cls-2" transform="translate(2017 313.52) rotate(-20.36)"> </text></g><g id="Layer_12" data-name="Layer 12"><path class="cls-3" d="M-6.33,223.55c30.49-38.83,98.81-51,148.12-48.55,150.3,7.45,295.76,55.29,445.33,71.78,41.13,4.54,83.07,6.66,123.62-1.61,57.83-11.79,109.11-43.8,160.56-72.7C964,120.39,1061.7,87.19,1179.7,78.1c54.3-5.6,105.68,0,159.87,15.37,31.39,8.89,66.9,17.83,96.77,31,34.88,15.32,67.05,36.13,98.35,57.83q57,39.56,110.91,83.39c28.73,23.38,56.88,47.75,88.49,67.05s67.33,33.48,104.36,34.21c23.43.46,46.63-4.45,69.31-10.37A774,774,0,0,0,2017.32,319"/><path class="cls-4" d="M-6.32,235.1c30.18-35.91,96.57-46.51,145-43.34C241,198.31,341.55,223,442.59,242.55c44.19,8.55,88.53,16.12,133.22,20.9,10.39,1.07,20.83,2,31.28,2.59,31.78,1.83,63.64.68,94.39-6.53A264.43,264.43,0,0,0,733,250c13.07-4.83,25.77-10.58,38.46-16.68,31.42-15.1,62.5-31.89,93.2-47.8a832,832,0,0,1,78-35.87c70.83-28.13,146.28-45.38,231.92-51.34a446.27,446.27,0,0,1,117,4.55c14.34,2.4,28.76,5.44,43.36,9.13,16.14,4.06,33.31,8.09,50.26,12.69a433.68,433.68,0,0,1,46.76,15.12c35.06,14,67.57,33.39,99.28,53.72q57.77,37,112.6,78.62c29.23,22.18,57.91,45.41,89.9,63.9s67.84,32.22,105,33.24c23.49.64,46.75-3.8,69.5-9.15q28.88-6.79,57.13-15.59,26.71-8.24,52.76-18.3"/><path class="cls-5" d="M-6.31,246.64c29.87-33,94.33-42,141.81-38.12,100.14,7.92,199,32.53,298.09,51.51,43.43,8.31,87,15.71,130.91,20.1,10.6,1.05,21.26,1.88,31.91,2.37,32.41,1.51,64.82-.45,95.8-8.65a261.85,261.85,0,0,0,31.64-10.65c13.06-5.33,25.69-11.62,38.52-18,31.76-15.9,64.07-31.66,95.61-46.68,25.87-12.31,51.81-23.77,78.67-33.4,71.45-26.19,147.31-41.33,232.82-46.64a505.53,505.53,0,0,1,117.3,4c14.39,2.1,28.83,4.76,43.45,8,16.21,3.56,33.38,7.06,50.35,11.11a450.33,450.33,0,0,1,46.92,13.54c35.25,12.75,68.1,30.67,100.22,49.61q58.5,34.52,114.29,73.86c29.73,21,59,43.06,91.3,60.75s68.37,31,105.58,32.26c23.53.82,46.85-3.13,69.67-7.92q29-6.07,57.32-14,26.78-7.26,52.92-16.27"/><path class="cls-6" d="M-6.3,258.19c29.56-30,92.08-37.43,138.65-32.91,97.89,9.5,195,33.84,292.25,52.24,42.65,8.06,85.44,15.19,128.59,19.28,10.81,1,21.69,1.77,32.55,2.16,33,1.19,66-1.58,97.21-10.77a254.57,254.57,0,0,0,31.76-11.76c13.06-5.83,25.62-12.65,38.58-19.38,32.11-16.69,65.63-31.43,98-45.55,26.12-11.38,52.2-22.14,79.3-30.93,72.08-24.25,148.35-37.29,233.73-41.95,39.94-3,78.52-1.51,117.64,3.42,14.44,1.81,28.91,4.11,43.54,6.89,16.27,3.09,33.45,6,50.45,9.53a467.22,467.22,0,0,1,47.08,12c35.43,11.46,68.63,27.94,101.14,45.5q59.24,32,116,69.1c30.23,19.78,60,40.71,92.71,57.61s68.89,29.7,106.18,31.28c23.59,1,47-2.48,69.86-6.7q29-5.35,57.5-12.34,26.85-6.3,53.07-14.26"/><path class="cls-7" d="M-6.3,269.73C23,242.63,83.55,236.82,129.2,242c95.66,10.93,191.05,35.14,286.4,53,41.89,7.82,83.91,14.67,126.28,18.47,11,1,22.11,1.67,33.19,1.95,33.66.87,67.16-2.71,98.61-12.89a250.22,250.22,0,0,0,31.89-12.86c13.06-6.33,25.56-13.69,38.65-20.73,32.45-17.49,67.16-31.22,100.45-44.43C871,214.05,897.27,204,924.61,196c72.71-22.3,149.39-33.23,234.63-37.24,40-2.64,78.76-1.29,118,2.85,14.49,1.51,29,3.44,43.64,5.77,16.34,2.6,33.53,5,50.54,8a474,474,0,0,1,47.25,10.38c35.63,10.1,69.15,25.21,102.07,41.39q60,29.47,117.68,64.33c30.73,18.58,61,38.37,94.11,54.46s69.42,28.44,106.8,30.31c23.63,1.18,47.06-1.82,70-5.48q29.15-4.65,57.7-10.72,26.89-5.32,53.21-12.23"/><path class="cls-8" d="M-6.29,281.28c29-24.17,87.6-28.4,132.35-22.48,93.41,12.35,187.09,36.44,280.54,53.69,41.13,7.57,82.38,14.13,124,17.65,11.24.95,22.54,1.57,33.82,1.74,34.29.55,68.35-3.84,100-15a244.77,244.77,0,0,0,32-14c13.06-6.82,25.49-14.72,38.72-22.08,32.79-18.28,68.68-31,102.86-43.3,26.58-9.56,53-18.87,80.58-26C991.92,191.17,1069,182.33,1154.13,179c40.12-2.27,79-1.05,118.32,2.29,14.54,1.22,29.07,2.77,43.74,4.65,16.4,2.1,33.59,3.94,50.63,6.38,16.21,2.32,32.31,5.1,47.4,8.8,35.82,8.8,69.68,22.48,103,37.28q60.7,27,119.37,59.57c31.23,17.38,62.06,36,95.51,51.31s69.94,27.18,107.41,29.34c23.69,1.36,47.17-1.17,70.22-4.26q29.22-3.93,57.88-9.09,27-4.38,53.36-10.21"/><path class="cls-9" d="M-6.28,292.83c28.64-21.24,85.36-23.89,129.19-17.27,91.17,13.77,183.14,37.74,274.7,54.41,40.35,7.33,80.84,13.6,121.66,16.84,11.45.92,23,1.46,34.45,1.53,34.92.23,69.52-5,101.43-17.13a241,241,0,0,0,32.14-15.07c13.06-7.32,25.43-15.76,38.78-23.43,33.14-19.07,70.2-30.84,105.29-42.18,26.79-8.67,53.39-17.24,81.21-23.53,74-18.41,151.47-25.14,236.45-27.85,40.2-1.92,79.23-.83,118.66,1.72,14.59.92,29.15,2.1,43.83,3.53,16.47,1.6,33.66,2.9,50.72,4.8,16.24,1.81,32.37,4.06,47.57,7.23,36,7.49,70.21,19.74,103.94,33.16q61.44,24.46,121,54.81c31.74,16.18,63.1,33.68,96.93,48.17s70.46,25.92,108,28.36c23.73,1.54,47.27-.51,70.39-3q29.32-3.21,58.07-7.47,27-3.41,53.51-8.19"/><path class="cls-10" d="M-6.27,304.37c28.33-18.3,83.11-19.37,126-12.05C208.69,307.5,299,331.37,388.61,347.46c39.59,7.08,79.32,13,119.35,16,11.67.87,23.39,1.35,35.09,1.31,35.54-.09,70.69-6.09,102.83-19.25a239.5,239.5,0,0,0,32.27-16.17c13.06-7.82,25.36-16.8,38.85-24.79,33.48-19.86,71.7-30.67,107.7-41,27-7.79,53.79-15.61,81.85-21.06,74.59-16.47,152.51-21.1,237.35-23.16,40.29-1.55,79.47-.6,119,1.16,14.65.62,29.24,1.42,43.93,2.41,16.54,1.11,33.74,1.86,50.82,3.22,16.25,1.3,32.42,3,47.72,5.65,36.18,6.2,70.74,17,104.88,29.06q62.18,21.94,122.74,50c32.24,15,64.14,31.33,98.33,45s71,24.66,108.63,27.39c23.79,1.72,47.38.14,70.58-1.82q29.4-2.49,58.26-5.84,27.06-2.44,53.65-6.17"/><path class="cls-11" d="M-6.26,315.92c28-15.37,80.86-14.87,122.87-6.84,86.69,16.58,175.24,40.35,263,55.86,38.81,6.84,77.78,12.48,117,15.22,11.88.83,23.82,1.24,35.72,1.1,36.17-.41,71.87-7.22,104.25-21.37A236.14,236.14,0,0,0,669,342.61c13.06-8.31,25.29-17.83,38.91-26.13C741.75,295.82,781.12,286,818,276.55c27.19-6.93,54.19-14,82.49-18.6,75.21-14.52,153.55-17,238.26-18.45,40.37-1.19,79.71-.37,119.34.59,14.69.33,29.32.74,44,1.29,16.61.61,33.81.83,50.91,1.64,16.28.79,32.48,2,47.89,4.07,36.36,4.91,71.26,14.29,105.81,25q62.91,19.43,124.43,45.28c32.74,13.78,65.18,29,99.73,41.87s71.51,23.4,109.24,26.42c23.84,1.9,47.49.8,70.76-.6q29.49-1.78,58.45-4.22,27.12-1.47,53.8-4.15"/><path class="cls-12" d="M-6.25,327.46C21.46,315,72.37,317.1,113.47,325.84c84.44,18,171.28,41.65,257.15,56.59,38.05,6.59,76.26,11.91,114.72,14.4,12.1.78,24.25,1.14,36.36.89,36.8-.73,73-8.35,105.65-23.49a235,235,0,0,0,32.52-18.38c13.06-8.82,25.23-18.87,39-27.49C733,306.91,773.53,298,811.39,289.55c27.38-6.08,54.58-12.33,83.12-16.12,75.84-12.58,154.59-13,239.16-13.76,40.46-.82,79.95-.14,119.69,0,14.74,0,29.4.07,44.12.16,16.67.11,33.87-.2,51,.08,16.29.26,32.53.95,48,2.49,36.54,3.62,71.8,11.56,106.75,20.84a1298,1298,0,0,1,126.12,40.51c33.24,12.58,66.21,26.64,101.14,38.72s72,22.15,109.85,25.44c23.88,2.08,47.59,1.46,70.94.63q29.58-1.06,58.64-2.6,27.16-.51,53.94-2.12"/><path class="cls-13" d="M-6.24,339c27.39-9.5,76.37-5.87,116.56,3.59,82.2,19.36,167.33,42.95,251.31,57.31,37.27,6.35,74.72,11.33,112.4,13.59,12.31.74,24.68,1,37,.68,37.43-1.05,74.23-9.48,107.07-25.61a232.19,232.19,0,0,0,32.64-19.49c13.06-9.31,25.16-19.9,39-28.83,34.51-22.25,76.17-30.29,115-37.69,27.57-5.25,55-10.7,83.76-13.65,76.47-10.63,155.63-9,240.07-9.06,40.54-.47,80.18.08,120-.54,14.8-.26,29.49-.61,44.22-1,16.74-.39,34-1.24,51.09-1.5,16.32-.25,32.59-.08,48.21.91,36.72,2.33,72.32,8.83,107.68,16.73a1266.73,1266.73,0,0,1,127.81,35.74c33.74,11.39,67.25,24.31,102.54,35.59s72.56,20.88,110.46,24.46c23.94,2.26,47.7,2.11,71.12,1.85q29.67-.35,58.83-1,27.24.45,54.09-.1"/><path class="cls-14" d="M-6.23,350.55c27.08-6.56,74.12-1.37,113.4,8.82,80,20.72,163.38,44.24,245.46,58,36.51,6.1,73.2,10.74,110.09,12.77,12.53.69,25.11.93,37.63.47,38-1.37,75.4-10.61,108.47-27.73a232.73,232.73,0,0,0,32.77-20.59c13.06-9.81,25.09-20.94,39.11-30.19,34.85-23,77.64-30.2,117.37-36.56,27.76-4.44,55.38-9.06,84.41-11.18,77.08-8.69,156.66-4.9,241-4.37,40.63-.1,80.42.32,120.37-1.1,14.85-.56,29.57-1.29,44.31-2.08,16.81-.89,34-2.28,51.19-3.08,16.33-.76,32.64-1.11,48.37-.66,36.89,1,72.84,6.09,108.61,12.61a1235,1235,0,0,1,129.5,31c34.24,10.19,68.28,22,103.94,32.44s73.09,19.62,111.08,23.49c24,2.44,47.81,2.77,71.3,3.07q29.75.38,59,.65,27.3,1.43,54.24,1.92"/><path class="cls-15" d="M-6.22,362.1c26.77-3.63,71.88,3.12,110.24,14,77.72,22.09,159.43,45.55,239.62,58.75a964.64,964.64,0,0,0,107.77,12c12.75.63,25.54.81,38.27.25,38.68-1.69,76.57-11.74,109.88-29.85a232.23,232.23,0,0,0,32.89-21.69c13.06-10.31,25-22,39.18-31.54,35.19-23.83,79.11-30.14,119.79-35.44,27.94-3.64,55.77-7.43,85-8.72,77.71-6.74,157.7-.85,241.87.34,40.72.26,80.66.54,120.71-1.67,14.89-.85,29.65-2,44.41-3.2,16.87-1.4,34.08-3.32,51.27-4.66,16.35-1.27,32.69-2.14,48.53-2.24,37.08-.24,73.38,3.37,109.55,8.51A1200.43,1200.43,0,0,1,1624,343.15c34.74,9,69.32,19.62,105.35,29.29S1802.94,390.8,1841,395c24,2.62,47.92,3.42,71.48,4.29q29.85,1.08,59.21,2.28,27.35,2.39,54.38,3.94"/><path class="cls-16" d="M-6.22,373.65c26.47-.7,69.64,7.6,107.1,19.24,75.48,23.45,155.47,46.85,233.76,59.48a929.85,929.85,0,0,0,105.47,11.15c12.95.58,25.95.71,38.89,0,39.31-2,77.75-12.87,111.29-32a230.31,230.31,0,0,0,33-22.8c13.06-10.8,25-23,39.24-32.89,35.54-24.62,80.6-30.09,122.21-34.31,28.13-2.85,56.17-5.8,85.68-6.25,78.34-4.8,158.74,3.2,242.77,5,40.81.63,80.9.77,121-2.24,15-1.14,29.74-2.65,44.51-4.31,16.94-1.91,34.16-4.36,51.37-6.24,16.37-1.78,32.74-3.16,48.69-3.82,37.26-1.52,73.9.64,110.48,4.4a1176.53,1176.53,0,0,1,132.88,21.45c35.24,7.79,70.35,17.27,106.75,26.15s74.13,17.1,112.3,21.54c24.08,2.8,48,4.08,71.66,5.51q29.92,1.8,59.39,3.9,27.4,3.35,54.53,6"/><path class="cls-17" d="M-6.21,385.19c26.16,2.24,67.4,12.09,103.94,24.46,73.25,24.8,151.52,48.15,227.92,60.2A895.42,895.42,0,0,0,428.8,480.19c13.17.53,26.38.6,39.53-.17,39.93-2.33,78.93-14,112.7-34.09A231.33,231.33,0,0,0,614.17,422c13.06-11.3,24.9-24,39.31-34.24,35.88-25.42,82.07-30.07,124.62-33.19,28.32-2.08,56.57-4.16,86.32-3.78,79-2.86,159.78,7.24,243.68,9.73,40.89,1,81.13,1,121.39-2.81,15-1.44,29.82-3.34,44.6-5.43,17-2.42,34.23-5.4,51.46-7.82,16.39-2.29,32.8-4.19,48.85-5.39,37.44-2.8,74.43-2.09,111.41.28a1156.15,1156.15,0,0,1,134.58,16.69c35.74,6.59,71.39,14.93,108.15,23s74.66,15.84,112.91,20.57c24.14,3,48.13,4.73,71.84,6.73q30,2.52,59.59,5.53,27.45,4.31,54.67,8"/><path class="cls-18" d="M-6.2,396.74C19.65,401.91,59,413.3,94.58,426.41c71,26.14,147.57,49.45,222.07,60.93a865.93,865.93,0,0,0,100.84,9.52,398.65,398.65,0,0,0,40.17-.38,248,248,0,0,0,114.1-36.21,230.71,230.71,0,0,0,33.27-25c13.06-11.8,24.83-25.07,39.37-35.59,36.23-26.21,83.56-30.06,127.05-32.06,28.5-1.31,57-2.53,86.95-1.31,79.59-.91,160.82,11.29,244.58,14.43,41,1.34,81.38,1.22,121.74-3.38,15-1.73,29.9-4,44.69-6.55,17.08-2.93,34.3-6.43,51.56-9.39,16.41-2.81,32.85-5.23,49-7,37.62-4.07,75-4.82,112.34-3.82a1137.16,1137.16,0,0,1,136.26,11.92c36.25,5.39,72.44,12.58,109.57,19.85S1803.32,397,1841.66,402c24.19,3.16,48.24,5.4,72,8q30.11,3.24,59.77,7.15,27.51,5.28,54.83,10"/><path class="cls-19" d="M-6.19,408.28c25.54,8.1,62.92,21,97.62,34.89,68.8,27.47,143.62,50.76,216.23,61.65a834.21,834.21,0,0,0,98.52,8.71,396.57,396.57,0,0,0,40.8-.59A246.86,246.86,0,0,0,562.5,474.61a232.4,232.4,0,0,0,33.39-26.11c13.06-12.3,24.76-26.11,39.44-36.94,36.56-27,85-30.08,129.46-30.94,28.69-.56,57.36-.9,87.59,1.15,80.22,1,161.86,15.34,245.49,19.13,41.06,1.71,81.61,1.45,122.07-3.94,15.1-2,30-4.71,44.8-7.68,17.13-3.43,34.37-7.46,51.64-11,16.43-3.33,32.91-6.25,49.18-8.55,37.8-5.35,75.48-7.56,113.27-7.94a1119.86,1119.86,0,0,1,138,7.16c36.75,4.19,73.47,10.24,111,16.7s75.7,13.33,114.13,18.62c24.24,3.34,48.34,6.05,72.2,9.18q30.2,3.94,60,8.78,27.57,6.24,55,12"/><path class="cls-20" d="M-6.18,419.83c25.23,11,60.69,25.5,94.47,40.1C154.86,488.72,228,512,298.66,522.31a805.27,805.27,0,0,0,96.21,7.89,400.52,400.52,0,0,0,41.44-.8A246,246,0,0,0,553.23,489a233,233,0,0,0,33.52-27.21c13.06-12.8,24.7-27.15,39.5-38.3,36.91-27.79,86.54-28.85,131.88-29.81a757.76,757.76,0,0,1,88.23,3.62c80.85,3,162.9,19.39,246.4,23.83,41.14,2.07,81.84,1.68,122.41-4.51,15.15-2.32,30.06-5.4,44.89-8.8,17.2-3.94,34.44-8.5,51.74-12.54,16.44-3.84,33-7.24,49.33-10.13a921.68,921.68,0,0,1,114.21-12.05,1109.81,1109.81,0,0,1,139.64,2.4c37.25,3,74.51,7.89,112.38,13.56s76.22,12.06,114.73,17.64c24.29,3.52,48.45,6.71,72.39,10.4q30.27,4.67,60.15,10.4,27.63,7.21,55.12,14.05"/><path class="cls-21" d="M-6.17,431.37c24.92,14,58.46,30,91.31,45.32,64.36,30.09,135.71,53.36,204.52,63.1a778.8,778.8,0,0,0,93.9,7.09,401.76,401.76,0,0,0,42.08-1A245.24,245.24,0,0,0,544,503.29,233.31,233.31,0,0,0,577.61,475c13.06-13.29,24.63-28.18,39.57-39.64,37.25-28.59,88-30.16,134.3-28.69,29.09.92,58.15,2.37,88.86,6.09,81.47,4.92,163.94,23.43,247.3,28.52,41.24,2.44,82.09,1.91,122.76-5.07,15.2-2.62,30.14-6.09,45-9.92,17.27-4.46,34.51-9.54,51.83-14.12,16.47-4.35,33-8.27,49.5-11.71a959,959,0,0,1,115.14-16.15,1100.76,1100.76,0,0,1,141.33-2.37c37.75,1.79,75.54,5.55,113.78,10.41s76.75,10.8,115.35,16.67c24.34,3.7,48.55,7.36,72.56,11.62q30.38,5.38,60.34,12,27.69,8.17,55.27,16.07"/><path class="cls-22" d="M-6.16,442.92c24.61,16.9,56.23,34.41,88.15,50.53,62.16,31.39,131.76,54.66,198.68,63.83,30.35,4.15,61,5.85,91.58,6.27A405.61,405.61,0,0,0,415,562.32,244.92,244.92,0,0,0,534.7,517.63a234.81,234.81,0,0,0,33.77-29.42c13.06-13.79,24.56-29.22,39.64-41,37.59-29.38,89.53-30.22,136.71-27.56,29.3,1.65,58.55,4,89.5,8.56,82.1,6.87,165,27.48,248.21,33.22,41.32,2.79,82.32,2.13,123.09-5.64,15.25-2.91,30.22-6.8,45.08-11,17.33-5,34.59-10.58,51.93-15.7,16.48-4.86,33.08-9.3,49.65-13.28a998.06,998.06,0,0,1,116.08-20.27,1094.6,1094.6,0,0,1,143-7.13c38.25.59,76.58,3.2,115.18,7.26s77.27,9.54,116,15.7c24.39,3.88,48.66,8,72.75,12.84q30.45,6.1,60.52,13.65,27.75,9.14,55.42,18.09"/><path class="cls-23" d="M-6.15,454.47c24.3,19.83,54,38.81,85,55.74,60,32.6,127.81,56,192.83,64.55,29.59,3.91,59.45,5.21,89.28,5.46a409.57,409.57,0,0,0,43.34-1.44A244.74,244.74,0,0,0,525.43,532a236.66,236.66,0,0,0,33.9-30.52c13.06-14.29,24.5-30.26,39.7-42.35,37.94-30.18,91.05-30.31,139.13-26.44,29.51,2.37,59,5.63,90.14,11,82.73,8.82,166,31.53,249.11,37.92,41.41,3.16,82.56,2.37,123.44-6.2,15.3-3.21,30.3-7.48,45.18-12.16,17.39-5.5,34.65-11.62,52-17.27q24.76-8.07,49.82-14.87a1039.93,1039.93,0,0,1,117-24.38,1091.17,1091.17,0,0,1,144.71-11.89c38.75-.61,77.62.86,116.59,4.12,38.82,3.25,77.79,8.28,116.57,14.72,24.44,4.06,48.77,8.67,72.92,14.06q30.55,6.81,60.72,15.27,27.8,10.11,55.56,20.12"/><path class="cls-24" d="M-6.14,466C64,532.58,166.73,580.07,262.68,592.25c28.81,3.66,57.91,4.57,87,4.64,14.67,0,29.38-.14,44-1.65a244.68,244.68,0,0,0,156.57-80.56c13.06-14.79,24.43-31.29,39.77-43.7,38.28-31,92.57-30.4,141.55-25.32,29.73,3.09,59.34,7.28,90.77,13.5,125,16.14,250.88,63.92,373.8,35.85,33.34-7.62,65.16-20.65,97.38-32.13,217.28-77.46,459.15-84.17,683.5-14.69l55.71,22.13"/></g></svg>